<?xml version="1.0" encoding="UTF-8" standalone="no"?>
<svg
   xmlns:dc="http://purl.org/dc/elements/1.1/"
   xmlns:cc="http://creativecommons.org/ns#"
   xmlns:rdf="http://www.w3.org/1999/02/22-rdf-syntax-ns#"
   xmlns:svg="http://www.w3.org/2000/svg"
   xmlns="http://www.w3.org/2000/svg"
   version="1.1"
   id="svg2"
   viewBox="0 0 1080 1080"
   height="12in"
   width="12in">
  <defs
     id="defs4" />
  <metadata
     id="metadata7">
    <rdf:RDF>
      <cc:Work
         rdf:about="">
        <dc:format>image/svg+xml</dc:format>
        <dc:type
           rdf:resource="http://purl.org/dc/dcmitype/StillImage" />
        <dc:title></dc:title>
      </cc:Work>
    </rdf:RDF>
  </metadata>
  <g
     transform="translate(0,27.63782)"
     id="layer1">
    <g
       transform="matrix(0.72254444,0,0,0.72254444,2906.0967,3458.0965)"
       id="layer1-9">
      <g
         transform="matrix(0.78552379,0,0,0.78552379,-2414.0471,-4243.1355)"
         id="layer1-2" />
      <path
         style="fill:#0b0c10"
         id="path3040"
         d="m -3297.4692,-4041.262 0,-367.0174 -14.047,-15.0373 c -38.0409,-40.7231 -9.1246,-107.6919 46.5003,-107.6919 31.0699,0 64.9063,32.3981 64.9063,62.1472 0,16.9219 -12.628,43.6319 -23.9807,50.7216 -10.0709,6.2894 -10.0952,7.2001 -10.0952,375.1 l 0,368.7952 -31.6419,0 -31.6418,0 z m 87.6236,-54.0628 0,-70.5852 116.112,0 116.111,0 39.6643,34.3314 c 21.8149,18.882 39.6638,35.8755 39.6638,37.7639 0,1.8877 -17.3767,18.2023 -38.6153,36.2542 l -38.6151,32.8214 -117.1601,0 -117.1606,0 z m -429.1829,-64.7767 c -20.521,-17.9206 -37.485,-33.6777 -37.6976,-35.0164 -0.2143,-1.3387 18.1307,-18.3158 40.7639,-37.7268 l 41.151,-35.293 136.501,0 136.5011,0 0,70.5858 0,70.5857 -139.9544,-0.2775 -139.9544,-0.2775 -37.3106,-32.5823 z m 432.4284,-67.4698 c -1.7851,-1.785 -3.2455,-33.5484 -3.2455,-70.5857 l 0,-67.3403 190.3983,0 190.3984,0 38.3966,32.4026 c 21.1183,17.8214 38.3971,34.0138 38.3971,35.9831 0,1.9694 -18.341,19.1518 -40.7576,38.1832 l -40.7571,34.6027 -184.7924,0 c -101.6356,0 -186.2532,-1.4605 -188.0378,-3.2456 z" />
    </g>
  </g>
</svg>
