<?xml version="1.0" encoding="UTF-8" standalone="no"?>
<!-- Created with Inkscape (http://www.inkscape.org/) -->

<svg
   id="svg27183"
   sodipodi:docname="lab-utils.svg"
   viewBox="0 0 481.11111 481.11111"
   version="1.1"
   inkscape:version="1.4.3 (0d15f75, 2025-12-25)"
   width="433"
   height="433"
   xmlns:inkscape="http://www.inkscape.org/namespaces/inkscape"
   xmlns:sodipodi="http://sodipodi.sourceforge.net/DTD/sodipodi-0.dtd"
   xmlns="http://www.w3.org/2000/svg"
   xmlns:svg="http://www.w3.org/2000/svg"
   xmlns:rdf="http://www.w3.org/1999/02/22-rdf-syntax-ns#"
   xmlns:cc="http://creativecommons.org/ns#"
   xmlns:dc="http://purl.org/dc/elements/1.1/">
  <defs
     id="defs1" />
  <sodipodi:namedview
     id="base"
     bordercolor="#666666"
     inkscape:pageshadow="2"
     inkscape:window-y="-11"
     pagecolor="#ffffff"
     inkscape:window-height="1494"
     inkscape:window-maximized="1"
     inkscape:zoom="1.4"
     inkscape:window-x="-11"
     showgrid="false"
     borderopacity="1.0"
     inkscape:current-layer="layer1"
     inkscape:cx="112.5"
     inkscape:cy="137.5"
     inkscape:window-width="2560"
     inkscape:pageopacity="0.0"
     inkscape:document-units="px"
     inkscape:showpageshadow="2"
     inkscape:pagecheckerboard="0"
     inkscape:deskcolor="#d1d1d1" />
  <g
     id="layer1"
     inkscape:label="Layer 1"
     inkscape:groupmode="layer"
     transform="translate(0,-642.36)">
    <path
       id="path3919"
       sodipodi:nodetypes="ccscscscsscscssssssscscsscscscsssssscscsssscscsssscscsssssccscsscssscccsscsscccsssssssssssscsssscscccccccsscssssssscscccccccccccsscsscccsscscccsssscccssssscccccccccscccscscccccccsss"
       style="fill:#2a7298;fill-opacity:1;stroke-width:0.899951"
       inkscape:connector-curvature="0"
       d="m 215.89121,1049.9434 8.78462,-14.1386 2.50889,0.3691 c 6.02729,0.8869 12.91273,1.381 19.3116,1.3859 6.23882,0 8.7363,-0.168 19.55681,-1.3515 l 3.30534,-0.3615 8.10036,13.1738 c 4.45506,7.2455 8.43576,13.6335 8.84598,14.1953 0.71829,0.9836 0.98785,0.9559 7.31775,-0.7514 8.94162,-2.4118 19.45352,-6.1282 28.18954,-9.9664 9.59652,-4.2164 23.85118,-12.0619 23.84309,-13.1232 0,-0.2244 -1.69753,-7.56 -3.76863,-16.3018 l -3.76549,-15.8941 5.55895,-4.5455 c 6.93368,-5.66947 16.3978,-15.17726 21.78169,-21.88044 2.25649,-2.80986 4.45568,-5.1089 4.887,-5.1089 0.43141,0 7.70317,1.61764 16.15977,3.59469 8.45633,1.97714 15.47533,3.59477 15.59659,3.59477 0.5894,0 6.31354,-10.31625 10.19023,-18.36475 5.22968,-10.85818 9.08005,-21.10321 12.10434,-32.21295 1.73543,-6.37334 2.09283,-8.36725 1.55768,-8.69294 -0.38192,-0.23243 -6.76804,-4.23335 -14.19179,-8.89086 -10.76958,-6.7572 -13.47141,-8.68834 -13.37081,-9.55703 1.68865,-14.60652 1.61463,-33.54294 -0.16554,-42.35879 -0.2779,-1.37634 0.41103,-1.89157 13.31064,-9.95467 7.48212,-4.67672 13.86573,-8.67283 14.18639,-8.88031 1.21852,-0.78894 -3.92906,-18.42608 -8.97316,-30.745 -3.63301,-8.87246 -11.6669,-24.6802 -14.60226,-28.7306 -0.0494,-0.0686 -7.38907,1.6189 -16.30978,3.75013 l -16.21904,3.87493 -1.65272,-2.08201 c -8.04413,-10.1341 -16.31785,-18.51534 -26.03023,-26.36997 -2.19667,-1.77651 -3.994,-3.31985 -3.994,-3.42967 0,-0.1099 1.61139,-7.16223 3.58082,-15.67142 1.96951,-8.50952 3.58091,-15.8346 3.58091,-16.27824 0,-1.55731 -16.24152,-10.37306 -28.21021,-15.31162 -12.18697,-5.02892 -29.83957,-10.23241 -30.63628,-9.03045 -0.20659,0.3118 -4.18828,6.72167 -8.84813,14.24403 -5.50803,8.8915 -8.72373,13.58038 -9.19053,13.40094 -0.39485,-0.15214 -5.33925,-0.58727 -10.98785,-0.96697 -8.24632,-0.55436 -12.24265,-0.55237 -20.28256,0.01 -5.50723,0.38529 -10.64295,0.82684 -11.41272,0.98113 -1.31022,0.2627 -1.94014,-0.59639 -9.86508,-13.45324 -4.65616,-7.55348 -8.64198,-13.93746 -8.85747,-14.18632 -0.88267,-1.01999 -18.68464,4.22695 -29.93926,8.82423 -11.97768,4.89257 -28.97369,14.11147 -28.98626,15.7228 -0.009,0.47667 1.60466,7.65806 3.57417,15.95904 1.96942,8.30062 3.58082,15.39819 3.58082,15.7733 0,0.37468 -2.04515,2.26685 -4.54496,4.20476 -5.84684,4.53281 -18.4583,17.19347 -22.97362,23.06258 -1.93054,2.50941 -3.90373,4.55869 -4.38491,4.55399 -0.48117,-0.006 -7.81634,-1.60816 -16.29989,-3.5633 l -15.425024,-3.55465 -0.93576,1.21287 c -1.662414,2.15495 -8.03138,13.76973 -10.824376,19.73983 -3.803128,8.1293 -7.877696,19.38006 -10.512697,29.02727 -1.233338,4.51567 -2.242391,8.37618 -2.242391,8.57906 0,0.20286 6.338517,4.32992 14.085792,9.1711 l 14.085791,8.80242 -0.330633,3.31822 c -1.475585,14.80938 -1.419806,27.15084 0.174165,38.54823 l 0.441022,3.1542 -11.33546,7.04862 c -6.234503,3.87674 -12.619907,7.86681 -14.189985,8.86688 l -2.854255,1.81826 1.855711,7.05862 c 2.498742,9.50473 6.36663,20.5144 10.176765,28.96776 3.222163,7.14969 9.886641,19.38457 11.856424,21.76504 l 1.101839,1.33198 15.976532,-3.81561 15.97653,-3.81559 1.37732,1.75794 c 7.47997,9.54711 17.15589,19.43145 25.7563,26.30868 2.96724,2.373 4.46358,3.9331 4.30773,4.4912 -0.74372,2.6639 -6.92603,30.5259 -6.92603,31.213 0,1.6396 18.17356,11.3974 29.74884,15.9735 8.97899,3.5494 25.13831,8.5573 27.82038,8.6216 0.85385,0.021 3.07863,-3.1551 9.88664,-14.1124 z m 14.92203,-41.9811 c -41.9924,-5.7367 -77.4979,-31.17596 -95.65979,-68.54207 -9.31628,-19.16366 -12.85344,-34.47169 -12.84356,-55.5803 0.01,-21.16902 3.36552,-35.79085 12.6747,-55.23133 5.98803,-12.50466 12.5211,-21.77766 22.7787,-32.33467 20.03736,-20.62079 46.93886,-33.78278 75.39877,-36.88912 7.90258,-0.86267 26.52606,-0.40376 33.71178,0.83067 34.66836,5.95585 65.49237,26.15448 84.42762,55.32511 6.89693,10.62464 13.96902,27.34381 16.84241,39.81871 6.52651,28.33387 2.95899,58.66318 -9.95041,84.59313 -18.78166,37.72408 -55.19974,63.13197 -97.90533,68.30857 -6.41109,0.777 -22.81374,0.611 -29.4695,-0.2983 z m 72.17239,-42.85017 c 1.00779,-1.11791 0.91725,-1.23288 -8.17815,-10.37577 -7.77296,-7.81316 -9.19771,-9.50023 -9.19771,-10.89064 0,-1.3767 1.2381,-2.89126 7.56754,-9.25766 10.15701,-10.21527 8.72219,-10.32257 20.55293,1.5381 9.09622,9.11971 9.12945,9.14587 10.15701,8.0063 1.01165,-1.12224 0.98202,-1.32828 -1.61814,-11.22336 l -2.64865,-10.08001 -5.25697,-5.36074 -5.25707,-5.36073 -9.95761,-2.33439 -9.95759,-2.3344 -31.42671,-31.45101 -31.42672,-31.45101 -1.81133,-7.5853 c -3.32213,-13.91221 -2.69752,-12.61467 -8.78813,-18.25656 l -5.43491,-5.03441 -9.86239,-2.76586 c -9.77436,-2.74141 -9.87137,-2.75638 -10.94564,-1.69003 -1.07578,1.06804 -1.01686,1.14334 8.12569,10.37937 7.69492,7.77312 9.2094,9.56875 9.2094,10.91858 0,1.3401 -1.33637,2.95927 -7.8433,9.50294 -5.91537,5.94891 -8.18201,7.88764 -9.22197,7.88764 -1.04767,0 -3.58126,-2.20843 -10.55939,-9.20447 -9.19053,-9.2144 -10.38785,-10.02411 -11.29685,-7.64563 -0.18332,0.47968 0.84576,5.43702 2.28686,11.01597 l 2.62045,10.14403 5.30035,5.25741 5.30055,5.2574 10.01868,2.36172 10.01867,2.36171 31.3369,31.56553 31.33688,31.56552 2.33347,10.06018 2.33347,10.06018 5.51549,5.10483 5.5153,5.10484 9.46628,2.63277 c 5.20658,1.44802 9.73754,2.64971 10.06988,2.67044 0.33171,0.0207 1.06178,-0.47099 1.62235,-1.09276 z m -102.76466,-6.67478 c 3.22422,-1.49762 5.58356,-3.66915 23.6868,-21.8002 l 20.10562,-20.13658 -3.2766,-3.324 -3.27668,-3.324 -8.36237,8.28592 c -7.61327,7.54347 -8.53762,8.28591 -10.31599,8.28591 -1.45448,0 -2.24553,-0.37236 -3.09551,-1.45712 -2.39537,-3.05692 -1.81224,-4.09432 7.73649,-13.76253 l 7.65781,-7.75401 -3.4476,-3.40822 -3.44771,-3.40821 -8.65618,8.25878 c -9.33334,8.90474 -10.37078,9.47137 -12.93159,7.05628 -0.86219,-0.81309 -1.2751,-1.8298 -1.2751,-3.13969 0,-1.75668 0.76986,-2.71589 8.26114,-10.29281 l 8.26096,-8.35554 -3.31009,-3.28829 -3.31019,-3.28828 -19.84693,19.89944 c -21.6793,21.73618 -22.53889,22.82813 -23.77394,30.18684 -0.86335,5.14694 0.0692,8.9932 3.18866,13.15929 2.66402,3.55763 8.04081,8.77788 11.19085,10.86539 5.06333,3.35483 12.00463,3.63751 18.23734,0.74267 z m 63.90433,-95.05635 -19.00621,-18.72454 -2.62584,2.5728 -2.62566,2.5728 18.87237,18.95176 18.87238,18.95176 2.75931,-2.79975 2.75923,-2.79976 z m 23.00955,-14.25214 13.7759,-14.24583 6.53586,-2.14468 6.53594,-2.14467 5.75369,-8.40323 c 3.16458,-4.6218 5.83822,-8.65795 5.94159,-8.96931 0.10339,-0.31133 -2.53916,-3.11038 -5.87243,-6.22014 l -6.06033,-5.65406 -8.50663,6.12069 -8.50662,6.12068 -2.11718,6.08777 -2.11728,6.08777 -14.45675,14.51184 -14.45676,14.51183 4.25242,4.29403 c 2.33886,2.36171 4.5385,4.29412 4.88817,4.29412 0.34967,0 6.83478,-6.41066 14.41094,-14.24582 z" />
  </g>
  <metadata
     id="metadata1">
    <rdf:RDF>
      <cc:Work>
        <dc:format>image/svg+xml</dc:format>
        <dc:type
           rdf:resource="http://purl.org/dc/dcmitype/StillImage" />
        <cc:license
           rdf:resource="http://creativecommons.org/publicdomain/zero/1.0/" />
        <dc:publisher>
          <cc:Agent
             rdf:about="http://openclipart.org/">
            <dc:title>Openclipart</dc:title>
          </cc:Agent>
        </dc:publisher>
      </cc:Work>
      <cc:License
         rdf:about="http://creativecommons.org/publicdomain/zero/1.0/">
        <cc:permits
           rdf:resource="http://creativecommons.org/ns#Reproduction" />
        <cc:permits
           rdf:resource="http://creativecommons.org/ns#Distribution" />
        <cc:permits
           rdf:resource="http://creativecommons.org/ns#DerivativeWorks" />
      </cc:License>
    </rdf:RDF>
  </metadata>
</svg>
