<?xml version="1.0" encoding="UTF-8"?>
<svg version="1.1" xmlns="http://www.w3.org/2000/svg" width="800px" height="800px" viewBox="-50 -50 472 467" xml:space="preserve">
<g>
  <path style="fill:#306998;" d="M1.000000,172.399994 C8.142924,172.000000 15.285849,172.000000 22.360285,172.000000 C26.283283,122.504768 48.736504,82.382660 85.352989,50.630497 C116.309631,23.786295 153.218704,11.099277 194.394531,13.115976 C194.394531,26.732988 194.394531,40.075336 194.394531,53.937580 C156.089844,52.652225 124.544853,66.776566 99.455437,94.363312 C79.659096,116.130127 66.730423,141.597534 63.608501,171.880463 C68.750763,171.880463 73.201080,171.880463 78.528687,171.880463 C67.902283,193.970596 57.566654,215.456284 46.931881,237.563812 C39.975147,227.966278 33.537922,218.985550 26.994368,210.082977 C18.620443,198.690170 10.160872,187.360336 1.369105,176.001678 C1.000000,174.933334 1.000000,173.866653 1.000000,172.399994 z"/>
  <path style="fill:#306998;" d="M186.834991,84.024963 C192.372681,84.364273 197.450256,84.716248 202.532318,84.982933 C204.519745,85.087227 206.517227,85.000000 208.773178,85.000000 C212.937805,93.898857 217.091537,102.756699 221.228561,111.622337 C223.095963,115.624184 226.592545,115.808792 229.868317,114.530083 C237.163803,111.682274 244.325546,108.464493 251.413864,105.125862 C254.536545,103.655052 256.671539,103.813011 259.137238,106.491943 C264.095245,111.878769 269.365082,116.987465 274.656128,122.054413 C276.676300,123.989021 277.234436,125.549065 276.069153,128.395477 C272.616608,136.828827 269.676727,145.470947 266.468872,154.006073 C265.274841,157.183090 266.497375,158.797958 269.453003,160.043869 C277.275177,163.341248 285.083527,166.699921 292.694244,170.446854 C294.251007,171.213272 295.765778,173.739716 295.852203,175.524948 C296.206177,182.837296 296.172577,190.183929 295.868805,197.500793 C295.799835,199.162155 294.473236,201.529709 293.053925,202.251389 C284.911896,206.391357 276.494965,209.991791 268.366150,214.155579 C267.076630,214.816101 265.744904,217.754135 266.182068,219.048172 C269.353912,228.436462 273.074402,237.638428 276.329742,247.000717 C276.745331,248.196030 275.919006,250.429871 274.914734,251.413239 C268.655365,257.542236 262.181458,263.452209 255.676270,269.530457 C247.065826,266.363403 238.211380,263.252441 229.478134,259.831970 C225.205597,258.158569 222.760117,258.711578 220.793472,263.352692 C217.596191,270.897888 213.601929,278.104828 209.960281,285.462555 C208.810928,287.784760 207.494751,289.145447 204.386536,289.125519 C196.661118,289.076019 188.933167,289.756500 181.201874,289.888672 C180.150391,289.906616 178.539108,288.692566 178.095963,287.659180 C175.257233,281.039551 172.537277,274.361053 170.038330,267.605682 C166.914902,259.162170 164.393753,257.717102 155.931763,260.568146 C148.655823,263.019531 141.511276,265.866547 134.206711,268.222626 C132.702744,268.707733 130.127228,268.426208 129.104156,267.420837 C123.572784,261.985107 118.267120,256.304199 113.166298,250.461044 C112.312195,249.482635 112.354607,247.137344 112.818451,245.691818 C115.067299,238.683487 117.896675,231.852798 119.955376,224.794388 C122.272926,216.848526 121.703354,215.269730 114.711670,212.228149 C107.943794,209.283920 101.360748,205.911102 94.568420,203.028381 C91.360184,201.666779 90.741753,199.544495 90.958420,196.437103 C91.427879,189.704269 91.935188,182.953400 91.886169,176.213837 C91.861862,172.870102 92.993889,171.253464 95.922913,169.946716 C102.963913,166.805435 109.796303,163.195572 116.844604,160.072037 C120.979965,158.239410 121.734421,155.641449 120.263435,151.617630 C117.351837,143.653122 114.546173,135.644012 111.993851,127.559547 C111.550026,126.153740 112.004074,123.733276 112.999344,122.725540 C118.569344,117.085739 124.286522,111.563957 130.317337,106.429291 C131.549515,105.380211 134.474670,105.651443 136.380066,106.178833 C143.943329,108.272247 151.598328,110.246223 158.852005,113.174393 C163.993515,115.249939 166.148865,112.202599 167.856506,109.063591 C171.299820,102.733971 174.243073,96.111053 177.052063,89.465187 C178.891739,85.112595 181.558838,82.912384 186.834991,84.024963 M177.079163,218.599503 C183.148987,220.065567 189.264709,222.862045 195.276810,222.654648 C202.487686,222.405945 209.438385,219.686584 215.748962,215.168869 C227.957214,206.428970 233.802719,188.621124 228.366791,174.827576 C221.134750,156.476456 202.568207,147.257050 184.324722,152.136520 C167.694778,156.584457 157.588715,169.928238 157.251160,186.463287 C156.966370,200.414658 164.271637,211.072937 177.079163,218.599503 z"/>
  <path style="fill:#306998;" d="M254.689194,290.980743 C256.748657,290.642670 258.323700,290.117218 259.921631,290.034515 C267.835510,289.625092 275.757935,289.381378 283.672638,288.985718 C292.250488,288.556854 300.823120,288.024841 310.075104,287.499359 C298.927643,311.770111 288.108063,335.327057 276.828979,359.884369 C273.348969,353.970551 270.186066,349.091034 267.559998,343.937927 C266.101746,341.076385 264.841248,340.530365 261.914734,341.949341 C246.214539,349.561951 229.591370,353.935577 212.185516,354.940125 C200.788406,355.597931 189.260681,356.768311 177.961090,355.776520 C152.426834,353.535309 127.907112,347.388123 105.388313,334.237305 C92.208031,326.540070 79.960342,317.819305 69.440208,306.837646 C59.650116,296.618011 51.053261,285.423828 44.376293,272.858032 C43.630924,271.455261 42.735401,270.132263 41.864094,268.697479 C52.626076,262.948944 63.317150,257.426117 73.800133,251.533081 C77.291176,249.570587 78.953125,249.854660 81.016731,253.476852 C98.332672,283.870941 124.495827,302.406616 158.179916,311.086670 C173.353867,314.996857 188.788483,316.148071 204.109650,314.690857 C216.348480,313.526794 228.372986,309.800568 240.390915,306.803680 C244.179169,305.859039 243.563187,302.532928 242.170151,299.717072 C240.958160,297.267212 239.540710,294.918976 237.366791,290.997467 C243.633209,290.997467 248.924255,290.997467 254.689194,290.980743 z"/>
  <path style="fill:#306998;" d="M244.743591,66.245499 C237.375519,55.801437 230.268661,45.619995 222.593933,34.625027 C248.952698,31.510580 274.670898,28.471817 302.031464,25.239000 C298.521027,31.948002 295.358429,37.992290 292.005554,44.400150 C296.479919,47.937050 301.526184,51.249725 305.748077,55.400822 C315.227173,64.720924 325.171112,73.771713 333.334747,84.180054 C346.599640,101.092361 356.448975,120.204315 362.256531,140.955658 C365.505066,152.563293 367.099915,164.670685 368.887634,176.635406 C369.856659,183.120804 370.190918,189.802567 369.900543,196.355362 C369.072632,215.039139 365.756500,233.267212 358.094849,250.487045 C355.290192,256.790649 352.157410,262.948517 349.365540,269.257477 C348.051666,272.226562 346.378418,272.827911 343.636169,271.178040 C333.725861,265.215485 323.842316,259.204285 313.818512,253.437698 C311.508362,252.108688 311.877167,251.381302 313.003815,249.398880 C321.117767,235.121521 326.087494,219.867859 328.103699,203.466476 C331.399475,176.655899 324.666504,152.013504 312.743652,128.506531 C305.719269,114.657341 296.291565,102.372444 285.039185,91.611488 C281.756531,88.472237 277.972778,85.859764 274.449493,82.968307 C272.337006,81.234627 271.090881,81.852936 269.940460,84.168625 C268.387848,87.293869 266.541351,90.273102 264.391235,94.074814 C257.534637,84.324989 251.269714,75.416557 244.743591,66.245499 z"/>
</g>
</svg>
