<?xml version="1.0" encoding="UTF-8" standalone="no"?>
<svg
   version="1.1"
   width="800px"
   height="800px"
   viewBox="-50 -50 472 467"
   xml:space="preserve"
   id="svg4"
   sodipodi:docname="nb_venv_kernels_scan.svg"
   inkscape:version="1.4.3 (0d15f75, 2025-12-25)"
   xmlns:inkscape="http://www.inkscape.org/namespaces/inkscape"
   xmlns:sodipodi="http://sodipodi.sourceforge.net/DTD/sodipodi-0.dtd"
   xmlns="http://www.w3.org/2000/svg"
   xmlns:svg="http://www.w3.org/2000/svg"><defs
   id="defs4"><linearGradient
   id="paint0_linear_87_8204"
   x1="12.4809"
   y1="2"
   x2="12.4809"
   y2="22.7407"
   gradientUnits="userSpaceOnUse"
   gradientTransform="matrix(6.1391472,0,0,6.1391472,174.3504,183.0797)"><stop
     stop-color="#327EBD"
     id="stop2"
     offset="0"
     style="stop-color:#8aa7b9;stop-opacity:1;" /><stop
     offset="1"
     stop-color="#1565A7"
     id="stop3" /></linearGradient><linearGradient
   id="paint1_linear_87_8204"
   x1="19.518999"
   y1="9.2592802"
   x2="19.518999"
   y2="30"
   gradientUnits="userSpaceOnUse"
   gradientTransform="matrix(6.1391472,0,0,6.1391472,174.3504,183.0797)"><stop
     stop-color="#FFDA4B"
     id="stop4"
     offset="0"
     style="stop-color:#d4c776;stop-opacity:1;" /><stop
     offset="1"
     stop-color="#F9C600"
     id="stop5" /></linearGradient>
  
  
  
  
</defs><sodipodi:namedview
   id="namedview4"
   pagecolor="#c5c5c5"
   bordercolor="#000000"
   borderopacity="0.25"
   inkscape:showpageshadow="2"
   inkscape:pageopacity="0.0"
   inkscape:pagecheckerboard="0"
   inkscape:deskcolor="#686868"
   inkscape:zoom="1.51625"
   inkscape:cx="511.45919"
   inkscape:cy="499.25804"
   inkscape:window-width="2560"
   inkscape:window-height="1494"
   inkscape:window-x="-11"
   inkscape:window-y="-11"
   inkscape:window-maximized="1"
   inkscape:current-layer="svg4" />
<path
   style="fill:#1d5584;fill-opacity:1"
   d="M -2.5020611,193.80147 C 4.6408629,193.40148 11.783788,193.40148 18.858224,193.40148 22.781222,143.90625 45.234443,103.78414 81.850928,72.031981 112.80757,45.187779 149.71664,32.500761 190.89247,34.51746 c 0,13.617012 0,26.95936 0,40.821604 -38.30469,-1.285355 -69.84968,12.838986 -94.939094,40.425736 -19.796341,21.76681 -32.725014,47.23421 -35.846936,77.51714 5.142262,0 9.592579,0 14.920186,0 -10.626404,22.09014 -20.962033,43.57582 -31.596806,65.68335 -6.956734,-9.59753 -13.393959,-18.57826 -19.937513,-27.48083 -8.373925,-11.39281 -16.8334961,-22.72264 -25.6252631,-34.0813 -0.369105,-1.06835 -0.369105,-2.13503 -0.369105,-3.60169 z"
   id="path1" /><path
   style="fill:#1d5584;fill-opacity:1"
   d="m 251.18713,312.38222 c 2.05947,-0.33807 3.63451,-0.86352 5.23244,-0.94623 7.91388,-0.40942 15.8363,-0.65313 23.75101,-1.04879 8.57785,-0.42887 17.15048,-0.96088 26.40246,-1.48636 -11.14746,24.27075 -21.96704,47.8277 -33.24612,72.38501 -3.48001,-5.91382 -6.64291,-10.79334 -9.26898,-15.94644 -1.45825,-2.86154 -2.71875,-3.40756 -5.64527,-1.98859 -15.70019,7.61261 -32.32336,11.98624 -49.72921,12.99079 -11.39711,0.6578 -22.92484,1.82818 -34.22443,0.83639 -25.53426,-2.24121 -50.05398,-8.3884 -72.57278,-21.53922 -13.18028,-7.69723 -25.427969,-16.418 -35.948103,-27.39965 -9.790092,-10.21964 -18.386947,-21.41382 -25.063915,-33.97962 -0.745369,-1.40277 -1.640892,-2.72577 -2.512199,-4.16055 10.761982,-5.74854 21.453056,-11.27136 31.936039,-17.1644 3.491043,-1.96249 5.152992,-1.67842 7.216598,1.94377 17.315941,30.39409 43.4791,48.92977 77.16319,57.60982 15.17395,3.91019 30.60856,5.0614 45.92973,3.60419 12.23883,-1.16407 24.26334,-4.89029 36.28126,-7.88718 3.78826,-0.94464 3.17228,-4.27075 1.77924,-7.08661 -1.21199,-2.44986 -2.62944,-4.79809 -4.80336,-8.7196 6.26642,0 11.55746,0 17.3224,-0.0167 z"
   id="path3" /><path
   style="fill:#1d5584;fill-opacity:1"
   d="M 241.24153,87.646983 C 233.87346,77.202921 226.7666,67.021479 219.09187,56.026511 c 26.35877,-3.114447 52.07697,-6.15321 79.43753,-9.386027 -3.51043,6.709002 -6.67303,12.75329 -10.02591,19.16115 4.47437,3.5369 9.52063,6.849575 13.74253,11.000672 9.47909,9.320102 19.42303,18.370891 27.58667,28.779234 13.26489,16.9123 23.11423,36.02425 28.92178,56.7756 3.24854,11.60763 4.84338,23.71502 6.6311,35.67975 0.96903,6.48539 1.30329,13.16716 1.01291,19.71995 -0.82791,18.68378 -4.14404,36.91185 -11.80569,54.13168 -2.80466,6.30361 -5.93744,12.46148 -8.72931,18.77044 -1.31387,2.96908 -2.98712,3.57043 -5.72937,1.92056 -9.91031,-5.96256 -19.79385,-11.97375 -29.81766,-17.74034 -2.31015,-1.32901 -1.94134,-2.0564 -0.8147,-4.03882 8.11396,-14.27736 13.08368,-29.53102 15.09989,-45.9324 3.29577,-26.81058 -3.4372,-51.45298 -15.36005,-74.95995 -7.02438,-13.84919 -16.45209,-26.13409 -27.70447,-36.89504 -3.28265,-3.13925 -7.0664,-5.75172 -10.58969,-8.64318 -2.11248,-1.73368 -3.35861,-1.11537 -4.50903,1.20032 -1.55261,3.12524 -3.39911,6.10448 -5.54923,9.90619 -6.85659,-9.74983 -13.12152,-18.658259 -19.64764,-27.829317 z"
   id="path4" /><g
   id="g1"
   transform="translate(-82.882115,-75.488871)"><path
     fill-rule="evenodd"
     clip-rule="evenodd"
     d="m 254.25998,195.35797 c -13.48834,0 -24.42246,10.58715 -24.42246,23.64707 v 16.37108 h 42.26956 v 4.54752 h -61.05603 c -13.48811,0 -24.42238,10.5872 -24.42238,23.64701 v 35.47076 c 0,13.05981 10.93427,23.64677 24.42238,23.64677 h 14.08984 v -20.00871 c 0,-13.05981 10.9343,-23.64737 24.42265,-23.64737 h 45.08711 c 11.41327,0 20.66499,-8.95826 20.66499,-20.00871 v -40.01835 c 0,-13.05992 -10.93383,-23.64707 -24.42214,-23.64707 z m -5.63576,29.10412 c 4.66884,0 8.45363,-3.66484 8.45363,-8.18552 0,-4.52074 -3.78479,-8.18557 -8.45363,-8.18557 -4.66942,0 -8.45421,3.66483 -8.45421,8.18557 0,4.52068 3.78479,8.18552 8.45421,8.18552 z"
     fill="url(#paint0_linear_87_8204)"
     id="path1-0"
     style="fill:url(#paint0_linear_87_8204);stroke:#576aa7;stroke-width:0.535465;stroke-dasharray:none;stroke-opacity:1" /><path
     fill-rule="evenodd"
     clip-rule="evenodd"
     d="m 290.89225,367.25409 c 13.48834,0 24.42276,-10.58695 24.42276,-23.64675 v -16.37129 h -42.26985 v -4.54724 h 61.05627 c 13.48832,0 24.42212,-10.58759 24.42212,-23.6474 v -35.47076 c 0,-13.05981 -10.9338,-23.64687 -24.42212,-23.64687 h -14.08997 v 20.00883 c 0,13.0604 -10.93443,23.64736 -24.42213,23.64736 h -45.08775 c -11.41328,0 -20.66502,8.95823 -20.66502,20.00873 v 40.01864 c 0,13.0598 10.93448,23.64675 24.42216,23.64675 z m 5.63636,-29.10383 c -4.66943,0 -8.45423,3.66444 -8.45423,8.18531 0,4.52085 3.7848,8.18533 8.45423,8.18533 4.66882,0 8.45361,-3.66448 8.45361,-8.18533 0,-4.52087 -3.78479,-8.18531 -8.45361,-8.18531 z"
     fill="url(#paint1_linear_87_8204)"
     id="path2"
     style="fill:url(#paint1_linear_87_8204);stroke:#968f0d;stroke-width:0.535465;stroke-dasharray:none;stroke-opacity:1" /></g>
</svg>
