<?xml version="1.0" encoding="UTF-8" standalone="no"?>
<svg
   width="800"
   height="800"
   viewBox="0 0 21.621622 21.621622"
   fill="none"
   version="1.1"
   id="svg3"
   xmlns="http://www.w3.org/2000/svg">
  <!-- Main arrow pointing down into layers -->
  <path
     d="M 10.828723,4.5 L 6.328723,9.5 L 9.328723,9.5 V 16.660859 H 3.828723 a 0.3,0.3 0 0 0 -0.3,0.3 v 2.4 a 0.3,0.3 0 0 0 0.3,0.3 h 14 a 0.3,0.3 0 0 0 0.3,-0.3 v -2.4 a 0.3,0.3 0 0 0 -0.3,-0.3 H 12.328723 V 9.5 L 15.328723,9.5 Z"
     fill="#3a8ac2"
     id="path1" />
  <!-- Highlight on arrow stem -->
  <rect
     x="10.428723"
     y="8.5387058"
     width="0.92591643"
     height="2.175878"
     fill="#4db8e8"
     fill-opacity="0.4"
     rx="0.2"
     id="rect2" />
  <rect
     x="10.360481"
     y="11.73589"
     width="0.92591643"
     height="2.175878"
     fill="#4db8e8"
     fill-opacity="0.4"
     rx="0.2"
     id="rect2-4" />
  <rect
     x="10.351622"
     y="14.860819"
     width="0.92591643"
     height="2.175878"
     fill="#4db8e8"
     fill-opacity="0.4"
     rx="0.2"
     id="rect2-4-2" />
  <!-- Side layer extensions -->
  <path
     d="M 8.5584527,11.660859 H 3.828723 c -0.1656854,0 -0.3,0.134315 -0.3,0.3 v 2.4 c 0,0.165685 0.1343146,0.3 0.3,0.3 h 4.7297297 z m 4.5405403,0 h 4.72973 c 0.165685,0 0.3,0.134315 0.3,0.3 v 2.4 c 0,0.165685 -0.134315,0.3 -0.3,0.3 h -4.72973 z"
     fill="#5a7a8f"
     id="path2" />
  <!-- Subtle inner edge highlights on bottom layer -->
  <rect
     x="3.8287232"
     y="16.76086"
     width="5.4556823"
     height="0.6338442"
     fill="#ffffff"
     fill-opacity="0.15"
     rx="0.1"
     id="rect3" />
  <rect
     x="12.444799"
     y="16.792734"
     width="5.4556823"
     height="0.6338442"
     fill="#ffffff"
     fill-opacity="0.15"
     rx="0.1"
     id="rect3-5" />
  <!-- Thin outline stroke -->
  <path
     d="M 10.828723,4.5 L 6.328723,9.5 L 9.328723,9.5 V 16.660859 H 3.828723 a 0.3,0.3 0 0 0 -0.3,0.3 v 2.4 a 0.3,0.3 0 0 0 0.3,0.3 h 14 a 0.3,0.3 0 0 0 0.3,-0.3 v -2.4 a 0.3,0.3 0 0 0 -0.3,-0.3 H 12.328723 V 9.5 L 15.328723,9.5 Z"
     fill="none"
     stroke="#1a5a8a"
     stroke-width="0.2"
     stroke-opacity="0.4"
     id="path3" />
</svg>
