<?xml version="1.0" encoding="UTF-8" standalone="no"?>
<svg xmlns="http://www.w3.org/2000/svg" version="1.1" viewBox="0 0 256 256" width="256" height="256">
<path d="m107.75 22.159v21.571c-8.835 2.117-17.286 5.608-25.04 10.347l-15.234-15.234-28.632 28.634 15.26 15.26c-4.7448 7.7444-8.2443 16.186-10.371 25.016h-21.573v40.493h21.571c2.1161 8.8382 5.6076 17.289 10.347 25.043l-15.234 15.234 28.632 28.634 15.262-15.262c7.7444 4.7448 16.186 8.2443 25.016 10.371v21.573h40.493v-21.571c8.8375-2.1163 17.288-5.6078 25.041-10.347l15.236 15.236 28.632-28.634-15.26-15.26c4.745-7.745 8.2445-16.187 10.371-25.018h21.573v-40.493h-21.571c-2.1163-8.8375-5.6078-17.288-10.347-25.041l15.25-15.222-28.64-28.634-15.26 15.26c-7.745-4.745-16.187-8.2445-25.018-10.371v-21.573h-40.493zm20.247 57.537a48.303 48.303 0 0 1 48.3 48.304 48.303 48.303 0 0 1 -48.3 48.3 48.303 48.303 0 0 1 -48.303 -48.3 48.303 48.303 0 0 1 48.303 -48.304z" fill-rule="evenodd" fill="#72a7cf"/>
</svg>
