<?xml version="1.0" encoding="UTF-8" standalone="no" ?>
<!DOCTYPE svg PUBLIC "-//W3C//DTD SVG 1.1//EN" "http://www.w3.org/Graphics/SVG/1.1/DTD/svg11.dtd">
<svg xmlns="http://www.w3.org/2000/svg" xmlns:xlink="http://www.w3.org/1999/xlink" version="1.1" width="800" height="800" viewBox="0 0 800 800" xml:space="preserve">
<desc>Created with Fabric.js 5.2.4</desc>
<defs>
</defs>
<g transform="matrix(0 0 0 0 0 0)" id="ebe3107c-7293-4a08-839e-3ba796821ea0"  >
</g>
<g transform="matrix(1 0 0 1 400 400)" id="59b81e01-a34d-4f17-a58f-9285c44fa8b2"  >
<rect style="stroke: none; stroke-width: 1; stroke-dasharray: none; stroke-linecap: butt; stroke-dashoffset: 0; stroke-linejoin: miter; stroke-miterlimit: 4; fill: rgb(255,255,255); fill-rule: nonzero; opacity: 1; visibility: hidden;" vector-effect="non-scaling-stroke"  x="-400" y="-400" rx="0" ry="0" width="800" height="800" />
</g>
<g transform="matrix(0.74 0 0 0.74 37 37)"  >
<rect style="stroke: none; stroke-width: 1; stroke-dasharray: none; stroke-linecap: butt; stroke-dashoffset: 0; stroke-linejoin: miter; stroke-miterlimit: 4; fill: rgb(255,255,255); fill-opacity: 0; fill-rule: nonzero; opacity: 1;" vector-effect="non-scaling-stroke"  x="-50" y="-50" rx="0" ry="0" width="100" height="100" />
</g>
<g transform="matrix(0.74 0 0 0.74 399.6 399.6)"  >
<rect style="stroke: none; stroke-width: 1; stroke-dasharray: none; stroke-linecap: butt; stroke-dashoffset: 0; stroke-linejoin: miter; stroke-miterlimit: 4; fill: rgb(255,255,255); fill-rule: nonzero; opacity: 1; visibility: hidden;" vector-effect="non-scaling-stroke"  x="-540" y="-540" rx="0" ry="0" width="1080" height="1080" />
</g>
<g transform="matrix(0.78 0 0 0.7 412.41 371.09)"  >
<path style="stroke: rgb(0,0,0); stroke-width: 0; stroke-dasharray: none; stroke-linecap: butt; stroke-dashoffset: 0; stroke-linejoin: miter; stroke-miterlimit: 4; fill: rgb(48,105,152); fill-rule: nonzero; opacity: 1;" vector-effect="non-scaling-stroke"  transform=" translate(3214.49, 4102.63)" d="M -3297.4692 -4041.262 L -3297.4692 -4408.2794 L -3311.5162 -4423.3167 C -3349.5571 -4464.0398000000005 -3320.6408 -4531.0086 -3265.0159 -4531.0086 C -3233.946 -4531.0086 -3200.1096 -4498.6105 -3200.1096 -4468.8614 C -3200.1096 -4451.9394999999995 -3212.7376 -4425.2294999999995 -3224.0903 -4418.1398 C -3234.1612 -4411.8504 -3234.1855 -4410.9397 -3234.1855 -4043.0398 L -3234.1855 -3674.2446 L -3265.8274 -3674.2446 L -3297.4692 -3674.2446 z M -3209.8456 -4095.3248000000003 L -3209.8456 -4165.910000000001 L -3093.7336 -4165.910000000001 L -2977.6226 -4165.910000000001 L -2937.9583000000002 -4131.578600000001 C -2916.1434000000004 -4112.696600000001 -2898.2945000000004 -4095.7031000000006 -2898.2945000000004 -4093.814700000001 C -2898.2945000000004 -4091.9270000000006 -2915.6712 -4075.612400000001 -2936.9098000000004 -4057.560500000001 L -2975.5249000000003 -4024.739100000001 L -3092.6850000000004 -4024.739100000001 L -3209.8456000000006 -4024.739100000001 z M -3639.0285000000003 -4160.101500000001 C -3659.5495000000005 -4178.022100000001 -3676.5135000000005 -4193.779200000001 -3676.7261000000003 -4195.117900000001 C -3676.9404000000004 -4196.456600000001 -3658.5954 -4213.433700000001 -3635.9622000000004 -4232.8447000000015 L -3594.8112000000006 -4268.137700000001 L -3458.3102000000003 -4268.137700000001 L -3321.8091000000004 -4268.137700000001 L -3321.8091000000004 -4197.551900000001 L -3321.8091000000004 -4126.966200000002 L -3461.7635000000005 -4127.243700000002 L -3601.7179000000006 -4127.521200000002 L -3639.0285000000003 -4160.103500000002 z M -3206.6001000000006 -4227.5713000000005 C -3208.3852000000006 -4229.3563 -3209.8456000000006 -4261.1197 -3209.8456000000006 -4298.157 L -3209.8456000000006 -4365.4973 L -3019.4473000000007 -4365.4973 L -2829.0489000000007 -4365.4973 L -2790.6523000000007 -4333.0947 C -2769.5340000000006 -4315.2733 -2752.2552000000005 -4299.0809 -2752.2552000000005 -4297.111599999999 C -2752.2552000000005 -4295.142199999999 -2770.5962000000004 -4277.9598 -2793.0128000000004 -4258.928399999999 L -2833.7699000000002 -4224.3256999999985 L -3018.5623 -4224.3256999999985 C -3120.1979 -4224.3256999999985 -3204.8155 -4225.786199999999 -3206.6001 -4227.571299999999 z" stroke-linecap="round" />
</g>
<g transform="matrix(0 0 0 0 0 0)"  >
<g style=""   >
</g>
</g>
</svg>