<?xml version="1.0" encoding="UTF-8" standalone="no"?>
<svg
   version="1.1"
   width="800"
   height="800"
   viewBox="0 0 800 800"
   xml:space="preserve"
   id="svg6"
   sodipodi:docname="welcome.svg"
   inkscape:version="1.4.3 (0d15f75, 2025-12-25)"
   xmlns:inkscape="http://www.inkscape.org/namespaces/inkscape"
   xmlns:sodipodi="http://sodipodi.sourceforge.net/DTD/sodipodi-0.dtd"
   xmlns="http://www.w3.org/2000/svg"
   xmlns:svg="http://www.w3.org/2000/svg"><sodipodi:namedview
   id="namedview6"
   pagecolor="#ffffff"
   bordercolor="#000000"
   borderopacity="0.25"
   inkscape:showpageshadow="2"
   inkscape:pageopacity="0.0"
   inkscape:pagecheckerboard="0"
   inkscape:deskcolor="#d1d1d1"
   inkscape:zoom="1.5025"
   inkscape:cx="374.04326"
   inkscape:cy="354.07654"
   inkscape:window-width="2560"
   inkscape:window-height="1494"
   inkscape:window-x="-11"
   inkscape:window-y="-11"
   inkscape:window-maximized="1"
   inkscape:current-layer="svg6" />
<desc
   id="desc1">Created with Fabric.js 5.2.4</desc>
<defs
   id="defs1">
</defs>
<g
   transform="matrix(0 0 0 0 0 0)"
   id="ebe3107c-7293-4a08-839e-3ba796821ea0">
</g>
<g
   transform="matrix(1 0 0 1 400 400)"
   id="59b81e01-a34d-4f17-a58f-9285c44fa8b2">
<rect
   style="stroke: none; stroke-width: 1; stroke-dasharray: none; stroke-linecap: butt; stroke-dashoffset: 0; stroke-linejoin: miter; stroke-miterlimit: 4; fill: rgb(255,255,255); fill-rule: nonzero; opacity: 1; visibility: hidden;"
   vector-effect="non-scaling-stroke"
   x="-400"
   y="-400"
   rx="0"
   ry="0"
   width="800"
   height="800"
   id="rect1" />
</g>
<g
   transform="matrix(0.74 0 0 0.74 37 37)"
   id="g2">
<rect
   style="stroke: none; stroke-width: 1; stroke-dasharray: none; stroke-linecap: butt; stroke-dashoffset: 0; stroke-linejoin: miter; stroke-miterlimit: 4; fill: rgb(255,255,255); fill-opacity: 0; fill-rule: nonzero; opacity: 1;"
   vector-effect="non-scaling-stroke"
   x="-50"
   y="-50"
   rx="0"
   ry="0"
   width="100"
   height="100"
   id="rect2" />
</g>
<g
   transform="matrix(0.74 0 0 0.74 399.6 399.6)"
   id="g3">
<rect
   style="stroke: none; stroke-width: 1; stroke-dasharray: none; stroke-linecap: butt; stroke-dashoffset: 0; stroke-linejoin: miter; stroke-miterlimit: 4; fill: rgb(255,255,255); fill-rule: nonzero; opacity: 1; visibility: hidden;"
   vector-effect="non-scaling-stroke"
   x="-540"
   y="-540"
   rx="0"
   ry="0"
   width="1080"
   height="1080"
   id="rect3" /><path
   d="m -431.37194,-99.212482 c -21.63024,-16.951908 -39.51122,-31.857278 -39.73531,-33.123618 -0.22588,-1.26634 19.11074,-17.32575 42.96736,-35.68751 l 43.37538,-33.38527 h 143.87943 143.879554 v 66.77035 66.770258 l -147.519514,-0.2625 -147.51951,-0.2625 -39.32739,-30.8211 z"
   style="vector-effect:non-scaling-stroke;fill:#6a97bd;fill-rule:nonzero;stroke:#000000;stroke-width:0;stroke-linecap:butt;stroke-linejoin:miter;stroke-miterlimit:4;stroke-dasharray:none;stroke-dashoffset:0;fill-opacity:1"
   id="path1-8" />
</g><path
   d="m 419.06924,359.1454 v -49.40964 h 90.56735 90.56658 l 30.93816,24.03198 c 17.01562,13.2174 30.93776,25.11285 30.93776,26.43473 0,1.32139 -13.55383,12.74161 -30.11993,25.37794 l -30.11978,22.97498 H 510.4545 419.06924 Z"
   style="vector-effect:non-scaling-stroke;fill:#337ca0;fill-opacity:1;fill-rule:nonzero;stroke:#000000;stroke-width:0;stroke-linecap:butt;stroke-linejoin:miter;stroke-miterlimit:4;stroke-dasharray:none;stroke-dashoffset:0"
   id="path1-2" />
<g
   transform="matrix(0.78 0 0 0.7 412.41 371.09)"
   id="g4">
<path
   style="opacity:1;fill:#306998;fill-rule:nonzero;stroke:#000000;stroke-width:0;stroke-linecap:butt;stroke-linejoin:miter;stroke-miterlimit:4;stroke-dasharray:none;stroke-dashoffset:0"
   vector-effect="non-scaling-stroke"
   transform="translate(3214.49,4102.63)"
   d="m -3297.4692,-4041.262 v -367.0174 l -14.047,-15.0373 c -38.0409,-40.7231 -9.1246,-107.6919 46.5003,-107.6919 31.0699,0 64.9063,32.3981 64.9063,62.1472 0,16.9219 -12.628,43.6319 -23.9807,50.7216 -10.0709,6.2894 -10.0952,7.2001 -10.0952,375.1 v 368.7952 h -31.6419 -31.6418 z"
   stroke-linecap="round"
   id="path3"
   sodipodi:nodetypes="scssscscccs" />
</g>
<g
   transform="matrix(0 0 0 0 0 0)"
   id="g6">
<g
   style=""
   id="g5">
</g>
</g>
<path
   d="m 418.34198,276.40445 c 0.0195,0.28002 -0.29604,-25.60167 -0.29604,-51.52778 v -47.13821 h 148.51068 148.51075 l 29.94935,22.68182 c 16.47227,12.47498 29.94973,23.80966 29.94973,25.18817 0,1.37858 -14.30598,13.40626 -31.79092,26.72824 l -31.79054,24.22189 H 567.24692 c -79.27577,0 -148.90494,-0.15413 -148.90494,-0.15413 z"
   style="vector-effect:non-scaling-stroke;fill:#4d9bdc;fill-opacity:1;fill-rule:nonzero;stroke:#000000;stroke-width:0;stroke-linecap:butt;stroke-linejoin:miter;stroke-miterlimit:4;stroke-dasharray:none;stroke-dashoffset:0"
   id="path1"
   sodipodi:nodetypes="csccccsccsc" /></svg>
