<?xml version="1.0" encoding="UTF-8"?>
<!DOCTYPE svg PUBLIC "-//W3C//DTD SVG 1.1//EN" "http://www.w3.org/Graphics/SVG/1.1/DTD/svg11.dtd">
<svg xmlns="http://www.w3.org/2000/svg" version="1.1" width="960px" height="640px" style="shape-rendering:geometricPrecision; text-rendering:geometricPrecision; image-rendering:optimizeQuality; fill-rule:evenodd; clip-rule:evenodd" xmlns:xlink="http://www.w3.org/1999/xlink">
<g><path style="opacity:1" fill="#fefefe" d="M -0.5,-0.5 C 319.5,-0.5 639.5,-0.5 959.5,-0.5C 959.5,212.833 959.5,426.167 959.5,639.5C 639.5,639.5 319.5,639.5 -0.5,639.5C -0.5,426.167 -0.5,212.833 -0.5,-0.5 Z"/></g>
<g><path style="opacity:1" fill="#205683" d="M 539.5,33.5 C 538.735,33.9234 537.902,34.2568 537,34.5C 530.709,32.3188 524.209,31.1522 517.5,31C 502.833,30.3333 488.167,30.3333 473.5,31C 470.228,32.2344 467.061,32.401 464,31.5C 455.872,32.8828 447.705,33.8828 439.5,34.5C 442.023,33.6156 444.69,32.7823 447.5,32C 471.436,29.5734 495.436,28.9067 519.5,30C 526.468,30.2158 533.135,31.3824 539.5,33.5 Z"/></g>
<g><path style="opacity:1" fill="#064f8a" d="M 539.5,33.5 C 540.833,33.5 542.167,33.5 543.5,33.5C 547.239,35.1016 551.239,36.1016 555.5,36.5C 562.903,38.1844 570.236,40.1844 577.5,42.5C 581.064,44.919 585.064,46.5856 589.5,47.5C 618.973,59.0125 644.64,76.0125 666.5,98.5C 667.08,100.749 668.413,102.415 670.5,103.5C 674.405,108.241 678.572,112.908 683,117.5C 713.004,161.411 726.004,210.077 722,263.5C 720.805,274.237 719.305,284.904 717.5,295.5C 714.928,302.568 712.928,309.901 711.5,317.5C 709.661,319.653 708.661,322.32 708.5,325.5C 706.646,330.394 704.98,335.394 703.5,340.5C 700.094,345.665 697.428,351.332 695.5,357.5C 692.582,362.333 689.916,367.333 687.5,372.5C 683.112,378.561 679.112,384.895 675.5,391.5C 660.138,411.857 642.805,430.191 623.5,446.5C 620.525,447.655 617.858,449.322 615.5,451.5C 612.833,453.647 609.666,454.981 606,455.5C 600.585,460.462 594.419,464.295 587.5,467C 585.616,468.049 584.282,469.549 583.5,471.5C 575.311,474.921 567.311,478.588 559.5,482.5C 555.292,482.677 551.626,484.01 548.5,486.5C 545.933,486.721 543.599,487.388 541.5,488.5C 538.572,488.565 535.905,489.232 533.5,490.5C 530.572,490.565 527.905,491.232 525.5,492.5C 511.305,495.399 496.972,497.066 482.5,497.5C 469.15,497.639 455.817,497.306 442.5,496.5C 432.669,495.565 423.002,493.898 413.5,491.5C 408.468,488.214 402.802,486.547 396.5,486.5C 393.888,485.629 391.221,484.963 388.5,484.5C 384.086,481.501 379.086,479.834 373.5,479.5C 352.04,469.764 331.706,457.931 312.5,444C 298.029,431.194 284.529,417.361 272,402.5C 271.529,400.754 270.862,399.087 270,397.5C 265.9,392.276 262.067,386.943 258.5,381.5C 258.245,379.033 257.245,377.033 255.5,375.5C 255.672,374.508 255.338,373.842 254.5,373.5C 254.186,370.053 253.352,366.72 252,363.5C 247.993,355.822 244.826,347.822 242.5,339.5C 242.253,338.287 241.586,337.62 240.5,337.5C 237.357,322.279 234.523,306.946 232,291.5C 231.5,278.171 231.333,264.837 231.5,251.5C 231.505,247.466 231.838,243.466 232.5,239.5C 233.768,237.095 234.435,234.428 234.5,231.5C 235.446,225.437 236.78,219.437 238.5,213.5C 241.09,212.949 241.756,211.616 240.5,209.5C 243.391,206.047 244.891,202.047 245,197.5C 246,196.5 247,195.5 248,194.5C 249.715,187.948 251.548,181.614 253.5,175.5C 256.589,167.538 260.422,159.871 265,152.5C 269.636,145.697 274.469,139.03 279.5,132.5C 281.587,131.415 282.92,129.749 283.5,127.5C 284.901,127.029 286.234,126.362 287.5,125.5C 293.26,119.749 298.593,113.749 303.5,107.5C 306.997,106.089 309.664,103.756 311.5,100.5C 314.053,98.7763 316.72,97.2763 319.5,96C 320.167,94.3333 320.833,92.6667 321.5,91C 322.448,90.5172 323.448,90.3505 324.5,90.5C 324.5,89.5 324.5,88.5 324.5,87.5C 328.001,83.3375 332.335,80.3375 337.5,78.5C 343.559,77.1069 348.225,73.7735 351.5,68.5C 351.842,67.6618 352.508,67.3284 353.5,67.5C 355.823,66.222 358.323,65.222 361,64.5C 362.31,63.8699 363.144,62.8699 363.5,61.5C 370.554,57.3061 377.888,53.6394 385.5,50.5C 388.811,50.6928 391.478,49.6928 393.5,47.5C 397.163,47.0482 400.83,46.5482 404.5,46C 406.879,45.2838 408.879,44.1172 410.5,42.5C 419.67,38.4382 429.336,35.7715 439.5,34.5C 447.705,33.8828 455.872,32.8828 464,31.5C 467.061,32.401 470.228,32.2344 473.5,31C 488.167,30.3333 502.833,30.3333 517.5,31C 524.209,31.1522 530.709,32.3188 537,34.5C 537.902,34.2568 538.735,33.9234 539.5,33.5 Z"/></g>
<g><path style="opacity:1" fill="#a4c7da" d="M 543.5,33.5 C 546.518,33.3354 549.518,33.502 552.5,34C 553.942,34.3768 554.942,35.2101 555.5,36.5C 551.239,36.1016 547.239,35.1016 543.5,33.5 Z"/></g>
<g><path style="opacity:1" fill="#709eba" d="M 577.5,42.5 C 581.936,43.4144 585.936,45.081 589.5,47.5C 585.064,46.5856 581.064,44.919 577.5,42.5 Z"/></g>
<g><path style="opacity:1" fill="#37678f" d="M 410.5,42.5 C 408.879,44.1172 406.879,45.2838 404.5,46C 400.83,46.5482 397.163,47.0482 393.5,47.5C 398.662,44.4556 404.328,42.7889 410.5,42.5 Z"/></g>
<g><path style="opacity:1" fill="#07548e" d="M 622.5,103.5 C 618.053,102.385 614.387,100.052 611.5,96.5C 608.402,94.5719 605.735,92.0719 603.5,89C 600.883,88.1785 598.216,87.6785 595.5,87.5C 592.94,85.4272 590.274,83.2605 587.5,81C 584.11,80.2562 580.777,79.4229 577.5,78.5C 569.089,74.9876 560.422,72.321 551.5,70.5C 549.485,69.0762 547.152,68.4095 544.5,68.5C 544.167,68.5 543.833,68.5 543.5,68.5C 534.356,65.5593 525.022,63.5593 515.5,62.5C 506.382,60.9899 497.048,60.3232 487.5,60.5C 480.991,60.5004 474.658,60.8338 468.5,61.5C 464.989,61.8994 461.656,62.5661 458.5,63.5C 454.785,63.423 451.119,63.7564 447.5,64.5C 440.502,64.7736 433.835,66.107 427.5,68.5C 393.471,75.8506 362.804,90.184 335.5,111.5C 332.845,112.497 330.845,114.164 329.5,116.5C 321.229,122.769 313.562,129.769 306.5,137.5C 306.297,135.61 306.963,134.11 308.5,133C 304.862,129.645 305.196,127.478 309.5,126.5C 311.087,121.654 314.254,118.321 319,116.5C 321.718,110.326 325.551,105.993 330.5,103.5C 330.5,101.167 330.5,98.8333 330.5,96.5C 329.448,96.6495 328.448,96.4828 327.5,96C 328.9,94.5619 330.567,93.7286 332.5,93.5C 332.222,91.6536 332.889,90.3202 334.5,89.5C 337.443,92.6993 340.776,93.1993 344.5,91C 344.167,90 343.833,89 343.5,88C 346.146,87.5026 348.813,87.3359 351.5,87.5C 351.5,85.8333 351.5,84.1667 351.5,82.5C 356.671,82.436 362.004,81.936 367.5,81C 367.833,80 368.167,79 368.5,78C 367.833,76.6667 366.833,75.6667 365.5,75C 367.679,74.5581 368.345,73.5581 367.5,72C 370.146,71.5026 372.813,71.3359 375.5,71.5C 375.5,70.5 375.5,69.5 375.5,68.5C 378.92,68.5168 382.254,68.6835 385.5,69C 386.051,67.6015 386.384,66.2682 386.5,65C 384.905,65.6171 383.572,65.2837 382.5,64C 383.333,63.8333 384.167,63.6667 385,63.5C 387.901,63.9657 390.568,63.9657 393,63.5C 394.789,65.229 396.956,65.8957 399.5,65.5C 399.5,64.5 399.5,63.5 399.5,62.5C 397.319,62.7163 395.653,61.883 394.5,60C 398.77,58.9246 403.103,58.4246 407.5,58.5C 407.5,57.5 407.5,56.5 407.5,55.5C 410.167,55.5 412.833,55.5 415.5,55.5C 415.5,54.5 415.5,53.5 415.5,52.5C 418.359,52.4082 420.859,52.0749 423,51.5C 423.333,52.1667 423.667,52.8333 424,53.5C 426.01,52.553 428.01,50.8863 430,48.5C 430.915,49.3279 431.581,50.3279 432,51.5C 432.317,49.6992 432.984,49.3659 434,50.5C 434.471,52.2464 435.138,53.913 436,55.5C 438.377,52.8935 440.044,50.2268 441,47.5C 442,47.8333 443,48.1667 444,48.5C 445.399,47.7734 446.899,47.2734 448.5,47C 447.112,46.1107 447.278,45.6107 449,45.5C 450.879,47.0128 453.046,47.6795 455.5,47.5C 455.461,49.3588 456.294,50.6921 458,51.5C 460.321,51.1725 462.821,50.3392 465.5,49C 465.018,47.9916 464.852,46.825 465,45.5C 464.667,45.8333 464.333,46.1667 464,46.5C 461.103,45.5343 458.437,44.8676 456,44.5C 455.333,43.8333 455.333,43.1667 456,42.5C 457.462,43.0352 459.128,43.0352 461,42.5C 472.417,44.1776 483.917,45.011 495.5,45C 494.167,45.6667 494.167,46.3333 495.5,47C 500.202,47.1717 504.868,47.6717 509.5,48.5C 502.298,48.3813 495.298,49.8813 488.5,53C 489.167,53.1667 489.833,53.3333 490.5,53.5C 493.355,53.2779 496.355,53.1112 499.5,53C 500.579,52.044 501.745,51.2106 503,50.5C 505.621,50.7036 508.455,50.7036 511.5,50.5C 511.5,49.5 511.5,48.5 511.5,47.5C 514.167,47.5 516.833,47.5 519.5,47.5C 519.413,50.5983 519.913,50.9316 521,48.5C 521.368,49.91 522.201,50.91 523.5,51.5C 524.5,50.1667 525.5,50.1667 526.5,51.5C 526.833,50.8333 527.167,50.1667 527.5,49.5C 529.833,51.5 532.167,53.5 534.5,55.5C 535.386,54.675 535.719,53.675 535.5,52.5C 538.167,52.5 540.833,52.5 543.5,52.5C 543.5,53.5 543.5,54.5 543.5,55.5C 546.167,55.5 548.833,55.5 551.5,55.5C 551.5,57.1667 551.5,58.8333 551.5,60.5C 554.187,60.3359 556.854,60.5026 559.5,61C 558.167,61.6667 558.167,62.3333 559.5,63C 562.553,63.1786 565.553,63.6786 568.5,64.5C 567.515,66.0983 567.349,67.765 568,69.5C 570.195,71.6878 572.695,73.5211 575.5,75C 574.304,75.6543 574.304,76.1543 575.5,76.5C 578.105,75.9645 580.772,75.7978 583.5,76C 578.373,74.4741 578.373,73.4741 583.5,73C 580.53,72.0946 577.696,70.5946 575,68.5C 573.612,69.5536 572.112,69.7203 570.5,69C 571.634,67.984 571.301,67.3173 569.5,67C 573.466,66.1721 577.466,65.6721 581.5,65.5C 580.923,68.5497 582.09,70.5497 585,71.5C 585.915,70.6721 586.581,69.6721 587,68.5C 587.324,70.5689 588.158,70.9023 589.5,69.5C 590.228,71.1932 591.228,72.6932 592.5,74C 591.565,76.3806 591.232,78.8806 591.5,81.5C 594.23,81.5266 596.73,80.8599 599,79.5C 599.833,79.8333 600.667,80.1667 601.5,80.5C 600.167,81.1667 598.833,81.8333 597.5,82.5C 601.15,84.2351 604.316,86.5685 607,89.5C 609.385,87.4612 611.552,87.4612 613.5,89.5C 614.298,91.0777 614.798,92.7444 615,94.5C 615.206,90.8687 616.373,90.5354 618.5,93.5C 617.833,94.5 617.167,95.5 616.5,96.5C 620.696,97.0252 622.696,99.3586 622.5,103.5 Z"/></g>
<g><path style="opacity:1" fill="#608fae" d="M 393.5,47.5 C 391.478,49.6928 388.811,50.6928 385.5,50.5C 387.936,49.129 390.603,48.129 393.5,47.5 Z"/></g>
<g><path style="opacity:1" fill="#2b658c" d="M 468.5,61.5 C 474.658,60.8338 480.991,60.5004 487.5,60.5C 497.048,60.3232 506.382,60.9899 515.5,62.5C 511.167,62.5 506.833,62.5 502.5,62.5C 491.346,61.5052 480.012,61.1719 468.5,61.5 Z"/></g>
<g><path style="opacity:1" fill="#8ab5ce" d="M 468.5,61.5 C 480.012,61.1719 491.346,61.5052 502.5,62.5C 500.5,62.5 498.5,62.5 496.5,62.5C 483.819,62.4053 471.152,62.7387 458.5,63.5C 461.656,62.5661 464.989,61.8994 468.5,61.5 Z"/></g>
<g><path style="opacity:1" fill="#4f7fa2" d="M 363.5,61.5 C 363.144,62.8699 362.31,63.8699 361,64.5C 358.323,65.222 355.823,66.222 353.5,67.5C 353.953,66.5416 354.619,65.7083 355.5,65C 358.064,63.6039 360.731,62.4373 363.5,61.5 Z"/></g>
<g><path style="opacity:1" fill="#fafdfd" d="M 496.5,62.5 C 512.108,64.5996 527.775,66.5996 543.5,68.5C 543.833,68.5 544.167,68.5 544.5,68.5C 546.515,69.9238 548.848,70.5905 551.5,70.5C 560.422,72.321 569.089,74.9876 577.5,78.5C 583.246,81.869 589.246,84.869 595.5,87.5C 600.502,91.0031 605.835,94.0031 611.5,96.5C 614.387,100.052 618.053,102.385 622.5,103.5C 631.527,112.194 640.527,120.861 649.5,129.5C 650.419,132.089 652.086,134.089 654.5,135.5C 674.38,158.803 687.38,185.469 693.5,215.5C 696.112,240.555 696.112,265.555 693.5,290.5C 693.13,294.233 692.463,297.899 691.5,301.5C 688.993,310.428 685.993,319.095 682.5,327.5C 680.935,329.509 679.935,331.843 679.5,334.5C 677.399,337.127 676.066,340.127 675.5,343.5C 674.542,343.953 673.708,344.619 673,345.5C 672.303,348.442 671.136,351.109 669.5,353.5C 667.674,355.147 666.34,357.147 665.5,359.5C 663.836,362.159 662.17,364.825 660.5,367.5C 656.833,372.5 653.167,377.5 649.5,382.5C 645.176,387.125 640.843,391.792 636.5,396.5C 632.016,400.597 627.682,404.93 623.5,409.5C 620.545,411.122 617.878,413.122 615.5,415.5C 608.462,421.199 601.129,426.533 593.5,431.5C 591.326,431.75 589.659,432.75 588.5,434.5C 583.333,436.916 578.333,439.582 573.5,442.5C 556.215,450.765 538.215,457.099 519.5,461.5C 513.223,462.824 506.89,463.824 500.5,464.5C 493.317,464.768 486.317,465.435 479.5,466.5C 468.823,466.433 458.156,466.099 447.5,465.5C 439.265,464.803 431.265,463.469 423.5,461.5C 420.146,459.742 416.479,458.742 412.5,458.5C 407.328,456.724 401.994,455.224 396.5,454C 391.66,452.078 386.993,449.912 382.5,447.5C 380.2,443.331 376.534,441.331 371.5,441.5C 357.748,434.09 345.081,425.09 333.5,414.5C 332.089,412.086 330.089,410.419 327.5,409.5C 321.349,402.937 315.016,396.603 308.5,390.5C 304.878,384.878 300.878,379.545 296.5,374.5C 293.247,370.333 290.747,365.667 289,360.5C 288.075,359.953 287.242,359.287 286.5,358.5C 281.879,349.592 277.546,340.592 273.5,331.5C 269.866,322.274 266.866,312.94 264.5,303.5C 264.706,300.505 264.04,297.838 262.5,295.5C 262.209,290.088 261.376,284.755 260,279.5C 259.173,265.994 259.34,252.66 260.5,239.5C 263.757,229.881 265.757,219.881 266.5,209.5C 268.938,200.348 272.271,191.681 276.5,183.5C 278.245,181.967 279.245,179.967 279.5,177.5C 283.277,175.279 284.944,171.946 284.5,167.5C 291.386,157.264 298.72,147.264 306.5,137.5C 313.562,129.769 321.229,122.769 329.5,116.5C 332.155,115.503 334.155,113.836 335.5,111.5C 362.804,90.184 393.471,75.8506 427.5,68.5C 434.369,67.5813 441.036,66.2479 447.5,64.5C 451.119,63.7564 454.785,63.423 458.5,63.5C 471.152,62.7387 483.819,62.4053 496.5,62.5 Z"/></g>
<g><path style="opacity:1" fill="#d6ebf3" d="M 496.5,62.5 C 498.5,62.5 500.5,62.5 502.5,62.5C 506.833,62.5 511.167,62.5 515.5,62.5C 525.022,63.5593 534.356,65.5593 543.5,68.5C 527.775,66.5996 512.108,64.5996 496.5,62.5 Z"/></g>
<g><path style="opacity:1" fill="#7aa7c2" d="M 447.5,64.5 C 441.036,66.2479 434.369,67.5813 427.5,68.5C 433.835,66.107 440.502,64.7736 447.5,64.5 Z"/></g>
<g><path style="opacity:1" fill="#94bcd4" d="M 544.5,68.5 C 547.152,68.4095 549.485,69.0762 551.5,70.5C 548.848,70.5905 546.515,69.9238 544.5,68.5 Z"/></g>
<g><path style="opacity:1" fill="#2f618d" d="M 351.5,68.5 C 348.225,73.7735 343.559,77.1069 337.5,78.5C 337.414,77.5041 337.748,76.6708 338.5,76C 342.888,73.4765 347.222,70.9765 351.5,68.5 Z"/></g>
<g><path style="opacity:1" fill="#3a6d94" d="M 577.5,78.5 C 580.777,79.4229 584.11,80.2562 587.5,81C 590.274,83.2605 592.94,85.4272 595.5,87.5C 589.246,84.869 583.246,81.869 577.5,78.5 Z"/></g>
<g><path style="opacity:1" fill="#30648e" d="M 595.5,87.5 C 598.216,87.6785 600.883,88.1785 603.5,89C 605.735,92.0719 608.402,94.5719 611.5,96.5C 605.835,94.0031 600.502,91.0031 595.5,87.5 Z"/></g>
<g><path style="opacity:1" fill="#c2deeb" d="M 525.5,94.5 C 517.972,93.9263 510.639,92.9263 503.5,91.5C 509.093,91.8066 514.593,91.4732 520,90.5C 522.016,91.7473 523.849,93.0806 525.5,94.5 Z"/></g>
<g><path style="opacity:1" fill="#71a0bb" d="M 666.5,98.5 C 668.587,99.5846 669.92,101.251 670.5,103.5C 668.413,102.415 667.08,100.749 666.5,98.5 Z"/></g>
<g><path style="opacity:1" fill="#285b88" d="M 324.5,87.5 C 324.5,88.5 324.5,89.5 324.5,90.5C 323.448,90.3505 322.448,90.5172 321.5,91C 320.833,92.6667 320.167,94.3333 319.5,96C 316.72,97.2763 314.053,98.7763 311.5,100.5C 309.664,103.756 306.997,106.089 303.5,107.5C 298.593,113.749 293.26,119.749 287.5,125.5C 286.234,126.362 284.901,127.029 283.5,127.5C 291.154,118.365 299.154,109.531 307.5,101C 312.729,95.936 318.396,91.436 324.5,87.5 Z"/></g>
<g><path style="opacity:1" fill="#9ec4db" d="M 335.5,111.5 C 334.155,113.836 332.155,115.503 329.5,116.5C 330.845,114.164 332.845,112.497 335.5,111.5 Z"/></g>
<g><path style="opacity:1" fill="#fbfdfd" d="M 588.5,153.5 C 595.439,161.283 602.273,169.283 609,177.5C 614.807,187.456 620.307,197.456 625.5,207.5C 628.917,217.925 631.417,228.592 633,239.5C 636.387,289.227 621.221,332.06 587.5,368C 572.902,381.798 556.235,392.298 537.5,399.5C 530.517,402.05 523.517,404.383 516.5,406.5C 510.864,407.627 505.198,408.627 499.5,409.5C 483.511,410.252 467.511,410.585 451.5,410.5C 445.091,409.908 438.757,408.908 432.5,407.5C 431.292,406.766 429.959,406.433 428.5,406.5C 426.485,405.076 424.152,404.41 421.5,404.5C 397.781,396.622 377.281,383.622 360,365.5C 353.257,357.601 346.757,349.601 340.5,341.5C 336.15,332.09 331.817,322.756 327.5,313.5C 325.38,306.679 324.046,299.679 323.5,292.5C 322.675,282.857 322.342,273.191 322.5,263.5C 322.505,259.466 322.838,255.466 323.5,251.5C 325.356,241.599 328.023,231.932 331.5,222.5C 333.104,221.713 333.771,220.38 333.5,218.5C 334.5,218.5 335.5,218.5 336.5,218.5C 336.5,216.833 336.5,215.167 336.5,213.5C 337.5,213.5 338.5,213.5 339.5,213.5C 339.421,210.729 339.921,208.063 341,205.5C 343.837,202.482 346.171,199.149 348,195.5C 348.49,194.207 348.657,192.873 348.5,191.5C 352.401,185.384 356.567,179.384 361,173.5C 388.716,142.549 423.216,123.382 464.5,116C 490.153,112.776 515.153,115.443 539.5,124C 545.577,127.371 551.91,130.204 558.5,132.5C 568.605,139.535 578.605,146.535 588.5,153.5 Z"/></g>
<g><path style="opacity:1" fill="#76a4bf" d="M 283.5,127.5 C 282.92,129.749 281.587,131.415 279.5,132.5C 280.08,130.251 281.413,128.585 283.5,127.5 Z"/></g>
<g><path style="opacity:1" fill="#0a6296" d="M 412.5,427.5 C 405.346,425.461 398.346,422.961 391.5,420C 367.606,408.142 346.273,392.976 327.5,374.5C 327.443,373.391 327.11,372.391 326.5,371.5C 328.074,371.937 329.241,372.937 330,374.5C 330.617,373.551 330.451,372.718 329.5,372C 332.668,371.418 333.001,370.418 330.5,369C 330.833,368.667 331.167,368.333 331.5,368C 330.167,367.333 328.833,367.333 327.5,368C 329.901,368.805 329.734,369.638 327,370.5C 324.333,365.077 323.5,359.744 324.5,354.5C 323.001,352.198 321.668,352.531 320.5,355.5C 317.971,353.369 317.971,351.203 320.5,349C 320.138,347.775 319.638,346.609 319,345.5C 318.667,345.833 318.333,346.167 318,346.5C 317.667,345.167 317.333,343.833 317,342.5C 315.334,343.34 315.167,342.84 316.5,341C 315.74,339.559 315.074,338.059 314.5,336.5C 313.092,335.757 311.759,334.923 310.5,334C 311.423,331.959 311.756,329.792 311.5,327.5C 310.167,327.5 308.833,327.5 307.5,327.5C 307.5,324.833 307.5,322.167 307.5,319.5C 306.167,319.5 304.833,319.5 303.5,319.5C 303.666,314.156 303.499,308.823 303,303.5C 299.755,313.846 298.422,313.179 299,301.5C 300.229,303.947 301.729,304.113 303.5,302C 301.699,301.683 301.366,301.016 302.5,300C 301.896,297.532 300.562,295.532 298.5,294C 299.167,293.333 299.833,292.667 300.5,292C 299.971,288.399 298.638,284.899 296.5,281.5C 300.099,281.738 300.433,280.738 297.5,278.5C 298.833,268.167 298.833,257.833 297.5,247.5C 299.195,245.207 299.862,242.873 299.5,240.5C 298.5,239.667 297.5,238.833 296.5,238C 297.156,233.714 297.823,228.88 298.5,223.5C 299.5,223.5 300.5,223.5 301.5,223.5C 302.873,218.277 303.539,212.944 303.5,207.5C 304.833,207.5 306.167,207.5 307.5,207.5C 308.264,201.508 309.097,195.508 310,189.5C 310.308,190.308 310.808,190.975 311.5,191.5C 312.406,189.614 313.406,187.78 314.5,186C 314.167,185.667 313.833,185.333 313.5,185C 316.563,183.934 318.063,181.767 318,178.5C 318.333,178.833 318.667,179.167 319,179.5C 323.541,176.79 324.875,173.123 323,168.5C 321.221,171.276 320.221,170.943 320,167.5C 317.886,170.966 315.052,173.633 311.5,175.5C 323.045,158.044 337.712,143.711 355.5,132.5C 357.705,132.148 359.538,131.148 361,129.5C 362.324,130.88 363.657,131.214 365,130.5C 368.15,132.128 368.983,134.462 367.5,137.5C 367.089,136.738 366.923,135.738 367,134.5C 366.107,133.289 365.274,133.289 364.5,134.5C 365.552,136.11 365.552,137.777 364.5,139.5C 365.01,141.088 366.01,142.255 367.5,143C 363.911,148.593 359.578,153.593 354.5,158C 352.564,158.813 350.564,159.313 348.5,159.5C 348.5,162.167 348.5,164.833 348.5,167.5C 346.833,167.5 345.167,167.5 343.5,167.5C 343.692,170.809 342.359,173.309 339.5,175C 338.207,175.49 336.873,175.657 335.5,175.5C 335.5,179.659 336,183.659 337,187.5C 336.667,187.167 336.333,186.833 336,186.5C 335.758,188.138 334.925,189.638 333.5,191C 331.527,191.495 329.527,191.662 327.5,191.5C 327.5,194.167 327.5,196.833 327.5,199.5C 326.5,199.5 325.5,199.5 324.5,199.5C 324.663,201.857 324.497,204.19 324,206.5C 320.327,211.438 318.827,217.104 319.5,223.5C 324.275,223.789 324.775,225.455 321,228.5C 319.173,227.895 317.84,226.228 317,223.5C 313.834,250.147 313.667,276.814 316.5,303.5C 319.997,303.995 320.997,305.828 319.5,309C 320.944,310.763 321.944,312.763 322.5,315C 321.552,315.483 320.552,315.649 319.5,315.5C 319.329,318.797 319.995,319.131 321.5,316.5C 322.833,317.167 323.833,318.167 324.5,319.5C 323.359,320.425 323.359,321.259 324.5,322C 323.5,323 322.5,324 321.5,325C 321.982,326.008 322.148,327.175 322,328.5C 323.892,327.87 325.559,326.87 327,325.5C 327.145,329.037 327.978,332.371 329.5,335.5C 330.192,334.975 330.692,334.308 331,333.5C 332.405,336.619 332.905,339.952 332.5,343.5C 334.346,343.222 335.68,343.889 336.5,345.5C 336.146,347.562 335.979,349.562 336,351.5C 337.978,350.184 339.478,350.684 340.5,353C 339.833,353.333 339.167,353.667 338.5,354C 341.944,354.111 344.277,355.777 345.5,359C 351.715,361.239 352.048,363.239 346.5,365C 347.833,365.667 347.833,366.333 346.5,367C 348.061,367.318 349.228,368.151 350,369.5C 351.434,367.864 353.267,366.864 355.5,366.5C 355.833,367 356.167,367.5 356.5,368C 354.936,369.605 354.436,371.438 355,373.5C 355.333,372.833 355.667,372.167 356,371.5C 357.652,376.031 359.819,376.698 362.5,373.5C 362.587,375.703 362.587,377.87 362.5,380C 363.849,380.772 364.682,381.939 365,383.5C 366.525,383.888 368.192,383.888 370,383.5C 370.456,384.744 369.956,385.577 368.5,386C 369.624,386.249 370.624,386.749 371.5,387.5C 370.258,390.93 371.591,392.263 375.5,391.5C 375.336,394.187 375.503,396.854 376,399.5C 376.667,396.833 377.333,396.833 378,399.5C 378.667,398.167 379.333,396.833 380,395.5C 381.011,396.337 382.178,396.67 383.5,396.5C 383.338,398.527 383.505,400.527 384,402.5C 384.483,401.552 384.649,400.552 384.5,399.5C 386.39,399.297 387.89,399.963 389,401.5C 389.333,401.167 389.667,400.833 390,400.5C 391.188,401.563 391.688,402.897 391.5,404.5C 393.527,404.338 395.527,404.505 397.5,405C 399.221,406.527 401.221,407.527 403.5,408C 403.876,409.84 405.043,411.673 407,413.5C 409.669,413.653 412.503,413.32 415.5,412.5C 415.277,415.966 416.611,416.966 419.5,415.5C 428.058,419.264 437.391,421.097 447.5,421C 447.146,422.626 447.146,424.459 447.5,426.5C 452.844,426.334 458.177,426.501 463.5,427C 458.025,427.826 452.692,427.992 447.5,427.5C 447.185,429.226 447.019,430.893 447,432.5C 448.518,432.057 449.685,432.724 450.5,434.5C 451.895,433.185 452.895,433.519 453.5,435.5C 452.833,435.833 452.167,436.167 451.5,436.5C 447.566,435.146 443.566,433.979 439.5,433C 439.678,430.045 439.678,426.879 439.5,423.5C 436.606,423.958 434.106,423.291 432,421.5C 431.552,423.224 430.718,423.891 429.5,423.5C 430.025,424.192 430.692,424.692 431.5,425C 429.167,425.333 426.833,425.667 424.5,426C 426.167,426.333 427.833,426.667 429.5,427C 429,427.5 428.5,428 428,428.5C 423.039,428.356 417.873,428.023 412.5,427.5 Z"/></g>
<g><path style="opacity:1" fill="#87b2cb" d="M 649.5,129.5 C 651.914,130.911 653.581,132.911 654.5,135.5C 652.086,134.089 650.419,132.089 649.5,129.5 Z"/></g>
<g><path style="opacity:1" fill="#dbf1f8" d="M 497.5,153.5 C 491.01,153.066 484.51,152.732 478,152.5C 469.106,152.965 460.272,153.965 451.5,155.5C 455.422,153.282 459.756,152.115 464.5,152C 474.833,151.333 485.167,151.333 495.5,152C 496.416,152.278 497.082,152.778 497.5,153.5 Z"/></g>
<g><path style="opacity:1" fill="#0a6296" d="M 503.5,91.5 C 510.639,92.9263 517.972,93.9263 525.5,94.5C 561.183,101.839 592.183,117.839 618.5,142.5C 614.537,141.829 610.87,140.662 607.5,139C 610.794,141.989 612.294,145.822 612,150.5C 612.667,153.167 613.333,153.167 614,150.5C 614.5,152.333 615.667,153.5 617.5,154C 617.167,154.333 616.833,154.667 616.5,155C 617.931,155.465 619.097,156.299 620,157.5C 621.871,156.332 623.371,156.832 624.5,159C 623.5,159.333 622.5,159.667 621.5,160C 622.5,161 623.5,162 624.5,163C 622.405,163.556 622.238,164.056 624,164.5C 624.945,164.095 625.612,163.428 626,162.5C 626.635,163.966 627.469,165.3 628.5,166.5C 628.377,168.378 628.377,170.211 628.5,172C 629.743,174.455 631.743,175.622 634.5,175.5C 634.966,173.799 634.966,172.299 634.5,171C 636.323,170.868 637.323,171.868 637.5,174C 636.453,175.68 635.787,177.514 635.5,179.5C 636.811,183.407 637.478,187.407 637.5,191.5C 638.93,191.421 640.264,191.754 641.5,192.5C 643.149,194.65 644.982,196.65 647,198.5C 647.915,197.672 648.581,196.672 649,195.5C 649.5,196 650,196.5 650.5,197C 649.347,198.883 647.681,199.716 645.5,199.5C 645.777,202.448 645.444,205.281 644.5,208C 645.333,208.833 646.167,209.667 647,210.5C 648.454,216.179 650.287,221.679 652.5,227C 652.167,228 651.833,229 651.5,230C 652.167,231.333 653.167,232.333 654.5,233C 652.109,233.691 652.109,234.691 654.5,236C 652.109,237.309 652.109,238.309 654.5,239C 653.833,239.333 653.167,239.667 652.5,240C 653.833,240.667 653.833,241.333 652.5,242C 655.167,242.667 655.167,243.333 652.5,244C 655.167,244.667 655.167,245.333 652.5,246C 653.416,246.374 654.25,246.874 655,247.5C 655.497,250.146 655.664,252.813 655.5,255.5C 656.833,255.5 658.167,255.5 659.5,255.5C 659.664,258.187 659.497,260.854 659,263.5C 658,263.167 657,262.833 656,262.5C 656.021,266.009 655.188,269.175 653.5,272C 654.602,279.789 654.435,287.622 653,295.5C 652.346,294.304 651.846,294.304 651.5,295.5C 652.002,296.716 652.335,297.883 652.5,299C 651.911,306.637 650.744,313.471 649,319.5C 647.853,320.458 646.853,320.125 646,318.5C 645.421,326.802 642.921,334.302 638.5,341C 639.167,342 639.833,343 640.5,344C 637.178,345.823 634.511,348.323 632.5,351.5C 633.274,352.711 634.107,352.711 635,351.5C 635.333,352.167 635.667,352.833 636,353.5C 637.449,352.386 638.783,351.386 640,350.5C 640.383,351.056 640.883,351.389 641.5,351.5C 637.235,358.434 632.569,365.101 627.5,371.5C 623.78,374.555 620.78,378.222 618.5,382.5C 612.018,387.482 606.018,392.982 600.5,399C 578.265,415.117 553.932,426.95 527.5,434.5C 522.141,435.003 516.807,435.67 511.5,436.5C 506.556,435.876 501.556,436.043 496.5,437C 487.5,437.667 478.5,437.667 469.5,437C 470.308,434.912 471.308,432.912 472.5,431C 470.031,428.978 467.865,429.145 466,431.5C 465.5,430.333 464.667,429.5 463.5,429C 468.833,428.667 474.167,428.333 479.5,428C 480.126,427.25 480.626,426.416 481,425.5C 482.016,426.634 482.683,426.301 483,424.5C 484.686,427.022 486.019,426.689 487,423.5C 487.667,426.167 488.333,426.167 489,423.5C 489.354,425.807 490.354,426.141 492,424.5C 493.581,426.847 494.914,426.847 496,424.5C 500.858,426.414 506.025,427.081 511.5,426.5C 511.5,424.5 511.5,422.5 511.5,420.5C 516.536,420.412 521.536,419.912 526.5,419C 531.768,415.372 537.435,414.206 543.5,415.5C 543.286,413.856 543.62,412.356 544.5,411C 546.81,410.503 549.143,410.337 551.5,410.5C 551.64,408.876 550.973,407.71 549.5,407C 550.167,406.333 550.833,405.667 551.5,405C 554.226,404.818 556.893,404.318 559.5,403.5C 560.145,402.268 560.311,400.935 560,399.5C 560.414,399.957 560.914,400.291 561.5,400.5C 564.177,399.926 566.843,399.259 569.5,398.5C 569.291,397.914 568.957,397.414 568.5,397C 570.35,394.982 572.35,393.149 574.5,391.5C 575.278,396.317 576.945,396.483 579.5,392C 580.793,391.51 582.127,391.343 583.5,391.5C 582.819,386.845 584.819,384.178 589.5,383.5C 591.155,384.228 592.821,384.395 594.5,384C 591.621,382.334 590.788,379.834 592,376.5C 593.356,375.62 594.856,375.286 596.5,375.5C 596.187,372.753 596.52,370.086 597.5,367.5C 598.732,366.855 600.065,366.689 601.5,367C 600.346,366.086 600.513,365.253 602,364.5C 604,366.167 606,367.833 608,369.5C 607.482,365.575 607.482,361.575 608,357.5C 610.237,354.923 612.737,352.756 615.5,351C 614.328,350.581 613.328,349.915 612.5,349C 613.845,346.278 615.845,344.278 618.5,343C 618.33,338.836 618.33,334.336 618.5,329.5C 620.016,329.745 621.683,329.745 623.5,329.5C 620.917,328.536 620.417,327.202 622,325.5C 623.049,327.107 624.549,327.773 626.5,327.5C 626.62,321.454 628.287,315.954 631.5,311C 630.115,309.035 630.282,307.202 632,305.5C 634.304,309.142 634.971,308.475 634,303.5C 632.455,304.821 631.289,304.488 630.5,302.5C 632.185,300.983 633.685,299.316 635,297.5C 635.495,299.473 635.662,301.473 635.5,303.5C 639.161,303.574 639.828,302.574 637.5,300.5C 635.909,295.477 636.576,290.811 639.5,286.5C 635.383,284.772 635.05,283.105 638.5,281.5C 637.272,277.36 637.272,273.193 638.5,269C 638.333,268.167 638.167,267.333 638,266.5C 637.301,271.281 636.801,271.447 636.5,267C 637.721,262.672 638.721,258.339 639.5,254C 637.756,251.322 636.756,248.322 636.5,245C 637.059,240.799 637.725,236.632 638.5,232.5C 638.167,232.167 637.833,231.833 637.5,231.5C 636.481,232.687 635.314,233.687 634,234.5C 632.378,231.013 631.545,227.346 631.5,223.5C 632.552,223.649 633.552,223.483 634.5,223C 633.624,217.888 633.457,212.722 634,207.5C 632.956,208.623 632.29,209.956 632,211.5C 631.131,206.492 630.464,206.825 630,212.5C 629.529,210.754 628.862,209.087 628,207.5C 627.23,208.598 626.397,208.598 625.5,207.5C 620.307,197.456 614.807,187.456 609,177.5C 602.273,169.283 595.439,161.283 588.5,153.5C 587.572,151.401 586.072,149.734 584,148.5C 582.626,146.176 582.293,143.843 583,141.5C 580.33,139.995 578.164,137.995 576.5,135.5C 575.57,132.492 574.737,129.825 574,127.5C 572.697,128.112 571.53,128.446 570.5,128.5C 571.376,129.251 572.376,129.751 573.5,130C 572.475,132.071 571.642,134.238 571,136.5C 569.52,133.337 567.02,131.504 563.5,131C 569.96,129.701 570.46,128.201 565,126.5C 564.667,126.833 564.333,127.167 564,127.5C 562.833,125.667 561.333,124.167 559.5,123C 553.279,120.023 546.946,118.023 540.5,117C 541.448,116.517 542.448,116.351 543.5,116.5C 543.5,114.833 543.5,113.167 543.5,111.5C 540.833,111.5 538.167,111.5 535.5,111.5C 535.649,110.448 535.483,109.448 535,108.5C 533.445,110.146 531.779,110.479 530,109.5C 529.333,110.167 528.667,110.833 528,111.5C 527.585,109.709 526.585,108.376 525,107.5C 523.333,107.833 521.667,108.167 520,108.5C 519.506,106.866 519.34,105.199 519.5,103.5C 511.986,103.415 504.653,103.415 497.5,103.5C 495.931,102.286 495.098,100.619 495,98.5C 494.667,99.1667 494.333,99.8333 494,100.5C 492.551,99.3859 491.217,98.3859 490,97.5C 489.667,98.1667 489.333,98.8333 489,99.5C 487.071,98.8207 485.071,97.8207 483,96.5C 480.975,96.8277 478.809,96.9944 476.5,97C 476.167,97.3333 475.833,97.6667 475.5,98C 476.833,98.6667 478.167,99.3333 479.5,100C 474.177,100.499 468.844,100.666 463.5,100.5C 463.351,101.552 463.517,102.552 464,103.5C 466.041,102.248 468.375,101.581 471,101.5C 473.167,101.667 475.333,101.833 477.5,102C 473.5,102.333 469.5,102.667 465.5,103C 467.577,103.192 469.577,103.692 471.5,104.5C 471.333,104.833 471.167,105.167 471,105.5C 467.296,104.909 463.463,104.909 459.5,105.5C 456.409,104.594 453.242,103.928 450,103.5C 447.648,103.305 445.648,103.972 444,105.5C 443.667,104.833 443.333,104.167 443,103.5C 441.738,105.303 440.071,106.636 438,107.5C 435.101,106.126 434.934,104.626 437.5,103C 435.316,102.558 433.316,103.058 431.5,104.5C 432.55,106.102 431.883,106.935 429.5,107C 429.833,107.333 430.167,107.667 430.5,108C 429.234,108.309 428.067,108.809 427,109.5C 426,109.167 425,108.833 424,108.5C 423.667,109.5 423.333,110.5 423,111.5C 422.667,111.167 422.333,110.833 422,110.5C 419.931,111.264 417.764,111.764 415.5,112C 417.901,112.805 417.734,113.638 415,114.5C 414.333,111.833 413.667,111.833 413,114.5C 412.333,111.833 411.667,111.833 411,114.5C 410.333,111.833 409.667,111.833 409,114.5C 408.667,113.833 408.333,113.167 408,112.5C 406.879,116.509 404.379,117.509 400.5,115.5C 399.254,118.741 398.42,122.074 398,125.5C 395.379,124.689 393.045,123.355 391,121.5C 389.951,122.517 388.784,122.684 387.5,122C 388.517,120.951 388.684,119.784 388,118.5C 386.887,119.711 385.72,119.711 384.5,118.5C 380.917,120.576 377.75,123.242 375,126.5C 374.508,125.451 374.674,124.451 375.5,123.5C 374.975,122.808 374.308,122.308 373.5,122C 375.996,120.669 377.996,118.836 379.5,116.5C 418.337,96.118 459.67,87.7847 503.5,91.5 Z"/></g>
<g><path style="opacity:1" fill="#217ca6" d="M 497.5,153.5 C 502.383,154.017 507.05,155.017 511.5,156.5C 503.485,155.182 495.485,155.349 487.5,157C 489.473,157.495 491.473,157.662 493.5,157.5C 493.351,158.552 493.517,159.552 494,160.5C 497.073,159.383 500.24,159.216 503.5,160C 503.982,161.008 504.148,162.175 504,163.5C 506.642,161.941 508.975,162.275 511,164.5C 511.869,159.492 512.536,159.825 513,165.5C 513.561,164.978 514.228,164.645 515,164.5C 516.338,165.506 517.671,166.506 519,167.5C 521.242,166.825 523.409,167.325 525.5,169C 525.167,169.333 524.833,169.667 524.5,170C 525.416,170.374 526.25,170.874 527,171.5C 527.718,170.549 528.551,170.383 529.5,171C 530.925,172.362 531.758,173.862 532,175.5C 532.626,173.009 533.459,173.009 534.5,175.5C 535.086,175.291 535.586,174.957 536,174.5C 538.512,180.039 542.345,183.539 547.5,185C 547.167,185.333 546.833,185.667 546.5,186C 550.769,187.932 553.602,191.099 555,195.5C 556.101,197.394 557.434,198.061 559,197.5C 559.333,199.5 559.667,201.5 560,203.5C 560.333,203.167 560.667,202.833 561,202.5C 562.851,204.04 564.018,205.54 564.5,207C 563.833,207.333 563.167,207.667 562.5,208C 567.024,211.862 570.858,216.362 574,221.5C 575.156,220.007 575.99,220.174 576.5,222C 575.616,223.098 574.616,223.598 573.5,223.5C 574.145,224.732 574.311,226.065 574,227.5C 575.167,228.667 576.333,229.833 577.5,231C 576.853,233.469 576.52,236.302 576.5,239.5C 577.822,239.67 578.989,239.337 580,238.5C 580.684,239.784 580.517,240.951 579.5,242C 582.167,242.667 582.167,243.333 579.5,244C 582.167,244.667 582.167,245.333 579.5,246C 581.592,246.953 581.925,248.286 580.5,250C 583.167,250.667 583.167,251.333 580.5,252C 581.833,253.333 581.833,254.667 580.5,256C 581.167,256.333 581.833,256.667 582.5,257C 581.167,257.667 581.167,258.333 582.5,259C 579.833,259.667 579.833,260.333 582.5,261C 579.833,261.667 579.833,262.333 582.5,263C 579.833,263.667 579.833,264.333 582.5,265C 579.833,265.667 579.833,266.333 582.5,267C 579.833,267.667 579.833,268.333 582.5,269C 581.833,269.333 581.167,269.667 580.5,270C 582.5,270.667 583.833,272 584.5,274C 582.46,276.697 580.46,279.363 578.5,282C 580.991,282.626 580.991,283.459 578.5,284.5C 580.235,290.472 578.569,295.639 573.5,300C 576.167,300.667 576.167,301.333 573.5,302C 576.167,302.667 576.167,303.333 573.5,304C 573.833,304.333 574.167,304.667 574.5,305C 573.213,306.41 572.046,307.91 571,309.5C 570.667,308.833 570.333,308.167 570,307.5C 568.11,311.258 566.943,315.925 566.5,321.5C 564.567,321.729 562.9,322.562 561.5,324C 562.28,325.073 562.113,326.24 561,327.5C 559.334,326.66 559.167,327.16 560.5,329C 558.699,329.317 558.366,329.984 559.5,331C 558.672,331.915 557.672,332.581 556.5,333C 557.654,333.914 557.487,334.747 556,335.5C 554.333,335.5 552.667,335.5 551,335.5C 549.04,338.137 547.04,340.803 545,343.5C 544.667,343.167 544.333,342.833 544,342.5C 542.676,344.5 541.009,346.167 539,347.5C 538.667,347.167 538.333,346.833 538,346.5C 537.667,347.5 537.333,348.5 537,349.5C 534.655,350.409 532.322,352.075 530,354.5C 529,354.167 528,353.833 527,353.5C 525.039,356.463 522.706,359.129 520,361.5C 519.612,360.572 518.945,359.905 518,359.5C 516.01,360.818 514.01,362.152 512,363.5C 511.803,358.822 510.803,358.488 509,362.5C 508.026,360.122 507.359,360.456 507,363.5C 505.334,362.66 505.167,363.16 506.5,365C 505.833,366.333 504.833,367.333 503.5,368C 505.929,368.451 506.096,369.285 504,370.5C 502.542,369.253 501.042,369.253 499.5,370.5C 498.3,369.469 496.966,368.635 495.5,368C 490.412,367.509 485.579,367.009 481,366.5C 479.667,367.167 478.667,368.167 478,369.5C 477.667,368.833 477.333,368.167 477,367.5C 471.181,367.54 465.015,367.54 458.5,367.5C 455.643,368.075 453.976,369.742 453.5,372.5C 452.127,372.343 450.793,372.51 449.5,373C 450.737,373.232 451.737,373.732 452.5,374.5C 440.629,372.932 429.462,369.265 419,363.5C 414.521,360.344 409.688,357.844 404.5,356C 399.77,352.971 395.437,349.471 391.5,345.5C 393.436,346.259 395.269,347.259 397,348.5C 397.5,348.333 398,348.167 398.5,348C 397.09,347.632 396.09,346.799 395.5,345.5C 397.003,345.165 398.336,345.165 399.5,345.5C 399,344.5 398.5,343.5 398,342.5C 396.657,343.214 395.324,342.88 394,341.5C 394.089,336.301 392.256,335.635 388.5,339.5C 386.238,338.655 385.571,337.322 386.5,335.5C 387.167,336.167 387.833,336.833 388.5,337.5C 389.354,336.478 390.354,335.645 391.5,335C 388.705,333.207 386.205,331.04 384,328.5C 383.333,329.833 382.667,329.833 382,328.5C 380.113,324.461 379.113,320.461 379,316.5C 378.667,317.167 378.333,317.833 378,318.5C 377.097,317.299 375.931,316.465 374.5,316C 377.167,315.333 377.167,314.667 374.5,314C 376.268,310.857 375.601,307.857 372.5,305C 372.833,304.667 373.167,304.333 373.5,304C 372.09,303.632 371.09,302.799 370.5,301.5C 371.165,299.899 371.499,298.399 371.5,297C 369.477,295.571 368.143,293.571 367.5,291C 367.759,289.739 368.426,288.739 369.5,288C 367.398,286.267 367.065,284.267 368.5,282C 366.075,280.303 364.742,278.303 364.5,276C 364.405,269.189 364.739,262.856 365.5,257C 362.833,256.333 362.833,255.667 365.5,255C 364.167,253.667 364.167,252.333 365.5,251C 364.833,250.667 364.167,250.333 363.5,250C 364.833,249.333 364.833,248.667 363.5,248C 365.991,247.374 365.991,246.541 363.5,245.5C 365.271,245.72 366.938,244.887 368.5,243C 367.663,241.989 367.33,240.822 367.5,239.5C 366.448,239.649 365.448,239.483 364.5,239C 365.893,236.822 367.56,235.822 369.5,236C 367.152,234.312 366.985,232.478 369,230.5C 369.914,231.654 370.747,231.487 371.5,230C 370.167,229.333 370.167,228.667 371.5,228C 368.492,224.583 364.992,222.75 361,222.5C 358.806,229.065 356.306,235.398 353.5,241.5C 353.974,236.438 355.307,231.605 357.5,227C 377.716,188.625 409.05,164.791 451.5,155.5C 460.272,153.965 469.106,152.965 478,152.5C 484.51,152.732 491.01,153.066 497.5,153.5 Z"/></g>
<g><path style="opacity:1" fill="#2980a7" d="M 467.5,164.5 C 468.441,167.125 469.607,167.125 471,164.5C 471.368,165.91 472.201,166.91 473.5,167.5C 475.793,167.974 477.959,167.308 480,165.5C 480.945,165.905 481.612,166.572 482,167.5C 482.388,166.572 483.055,165.905 484,165.5C 485.333,166.833 486.667,166.833 488,165.5C 488.945,165.905 489.612,166.572 490,167.5C 490.388,166.572 491.055,165.905 492,165.5C 494.321,166.487 495.987,168.154 497,170.5C 498.217,169.614 499.551,168.614 501,167.5C 501.333,168.167 501.667,168.833 502,169.5C 503.06,169.746 504.227,169.746 505.5,169.5C 506.192,170.025 506.692,170.692 507,171.5C 507.725,169.842 508.892,169.342 510.5,170C 509.833,170.333 509.167,170.667 508.5,171C 510.061,171.318 511.228,172.151 512,173.5C 514.562,173.262 516.896,174.262 519,176.5C 520.049,175.483 521.216,175.316 522.5,176C 523.787,177.41 524.954,178.91 526,180.5C 527.566,179.939 528.899,180.606 530,182.5C 532.956,183.365 535.623,185.365 538,188.5C 538.914,187.346 539.747,187.513 540.5,189C 539.327,192.11 539.827,192.277 542,189.5C 543.487,190.253 543.654,191.086 542.5,192C 544.455,192.953 546.122,194.287 547.5,196C 547.167,196.333 546.833,196.667 546.5,197C 547.46,198.419 548.293,199.919 549,201.5C 549.667,202.833 550.333,202.833 551,201.5C 551.333,202.5 551.667,203.5 552,204.5C 552.914,203.346 553.747,203.513 554.5,205C 554.167,205.333 553.833,205.667 553.5,206C 554.191,207.067 554.691,208.234 555,209.5C 556.667,211.545 558.5,213.378 560.5,215C 559.5,215.333 558.5,215.667 557.5,216C 559.329,216.273 560.829,217.107 562,218.5C 562.333,217.833 562.667,217.167 563,216.5C 564.122,218.624 565.622,220.457 567.5,222C 567.275,224.843 566.942,227.677 566.5,230.5C 567.891,230.109 568.891,230.942 569.5,233C 569.167,233.333 568.833,233.667 568.5,234C 569.964,239.211 572.297,244.044 575.5,248.5C 575.324,250.672 575.157,253.005 575,255.5C 574.308,256.025 573.808,256.692 573.5,257.5C 573.748,264.376 573.748,271.543 573.5,279C 572.833,279.333 572.167,279.667 571.5,280C 571.665,281.837 572.332,283.837 573.5,286C 571.913,286.862 570.246,287.529 568.5,288C 569.322,292.505 569.322,296.171 568.5,299C 567.449,300.385 566.116,301.385 564.5,302C 568.327,303.58 568.161,305.08 564,306.5C 563.727,308.329 562.893,309.829 561.5,311C 561.833,311.333 562.167,311.667 562.5,312C 560.607,314.303 558.607,316.47 556.5,318.5C 557.186,320.064 557.019,321.731 556,323.5C 555.667,322.833 555.333,322.167 555,321.5C 554.667,322.833 554.333,324.167 554,325.5C 553.577,324.044 552.744,323.544 551.5,324C 552.423,326.048 551.923,327.881 550,329.5C 549.577,328.044 548.744,327.544 547.5,328C 547.833,329 548.167,330 548.5,331C 545.492,332.728 542.492,334.394 539.5,336C 538.929,337.205 538.262,338.372 537.5,339.5C 536.914,339.291 536.414,338.957 536,338.5C 534.3,341.197 531.966,343.197 529,344.5C 528.252,346.332 527.252,347.999 526,349.5C 525.667,348.833 525.333,348.167 525,347.5C 524.667,348.833 524.333,350.167 524,351.5C 523.692,350.692 523.192,350.025 522.5,349.5C 522.167,350.167 521.833,350.833 521.5,351.5C 520.033,351.277 518.533,350.944 517,350.5C 516.25,351.126 515.416,351.626 514.5,352C 515.654,352.914 515.487,353.747 514,354.5C 511.586,350.804 511.086,351.304 512.5,356C 512,356.5 511.5,357 511,357.5C 509.333,357.5 507.667,357.5 506,357.5C 505.374,355.009 504.541,355.009 503.5,357.5C 502.914,357.291 502.414,356.957 502,356.5C 499.672,357.486 497.672,359.486 496,362.5C 494.796,361.529 494.296,360.529 494.5,359.5C 493.459,361.991 492.626,361.991 492,359.5C 491.333,362.167 490.667,362.167 490,359.5C 489.333,362.167 488.667,362.167 488,359.5C 487.333,362.167 486.667,362.167 486,359.5C 485.333,360.167 484.667,360.833 484,361.5C 479.333,360.167 474.667,360.167 470,361.5C 468.488,359.043 467.154,359.043 466,361.5C 465.692,360.692 465.192,360.025 464.5,359.5C 463.304,359.846 463.304,360.346 464.5,361C 463.175,360.852 462.008,361.018 461,361.5C 460.085,360.672 459.419,359.672 459,358.5C 458.581,359.672 457.915,360.672 457,361.5C 455.611,359.773 453.944,358.439 452,357.5C 451.055,357.905 450.388,358.572 450,359.5C 449.333,355.5 448.667,355.5 448,359.5C 447.667,358.5 447.333,357.5 447,356.5C 445.951,357.517 444.784,357.684 443.5,357C 440.834,354.034 438.334,351.534 436,349.5C 434.657,350.214 433.324,349.88 432,348.5C 431.632,349.91 430.799,350.91 429.5,351.5C 429.693,350.312 429.193,348.978 428,347.5C 427.667,347.833 427.333,348.167 427,348.5C 424.714,345.101 422.047,342.101 419,339.5C 418.667,340.167 418.333,340.833 418,341.5C 417.667,340.167 417.333,338.833 417,337.5C 416.195,339.901 415.362,339.734 414.5,337C 412.295,335.573 410.128,335.073 408,335.5C 407.167,330.667 404.333,327.833 399.5,327C 399.833,326.667 400.167,326.333 400.5,326C 399.049,322.889 397.215,320.056 395,317.5C 394.195,319.901 393.362,319.734 392.5,317C 394.402,315.606 394.735,313.773 393.5,311.5C 392.448,311.649 391.448,311.483 390.5,311C 391.665,309.132 391.332,307.298 389.5,305.5C 390.025,304.808 390.692,304.308 391.5,304C 389.945,302.354 388.279,302.021 386.5,303C 389.474,301.494 389.807,299.828 387.5,298C 388.196,296.512 387.862,295.012 386.5,293.5C 385.536,296.083 384.202,296.583 382.5,295C 382.957,294.586 383.291,294.086 383.5,293.5C 380.249,290.161 379.915,286.661 382.5,283C 381.457,280.46 380.791,278.126 380.5,276C 382.878,275.026 382.544,274.359 379.5,274C 380.167,273.667 380.833,273.333 381.5,273C 380.5,272 379.5,271 378.5,270C 379.097,266.229 379.097,262.229 378.5,258C 379.13,256.108 380.13,254.441 381.5,253C 381.167,251.333 380.833,249.667 380.5,248C 380.767,245.31 382.101,242.81 384.5,240.5C 384.023,239.522 383.357,238.689 382.5,238C 383.833,236 383.833,234 382.5,232C 384.301,231.683 384.634,231.016 383.5,230C 384.362,227.266 385.195,227.099 386,229.5C 386.333,228.167 386.667,226.833 387,225.5C 387.333,226.167 387.667,226.833 388,227.5C 389.426,224.931 389.259,222.764 387.5,221C 391.116,219.078 392.616,216.244 392,212.5C 392.414,212.957 392.914,213.291 393.5,213.5C 394.427,211.887 395.261,210.221 396,208.5C 396.333,209.167 396.667,209.833 397,210.5C 398.867,208.192 399.867,205.525 400,202.5C 400.718,203.451 401.551,203.617 402.5,203C 403.46,201.581 404.293,200.081 405,198.5C 405.914,199.654 406.747,199.487 407.5,198C 407.167,197.667 406.833,197.333 406.5,197C 407.583,194.944 409.25,193.611 411.5,193C 410.167,191.16 410.334,190.66 412,191.5C 412.903,190.299 414.069,189.465 415.5,189C 414.346,188.086 414.513,187.253 416,186.5C 418.865,187.041 420.865,185.707 422,182.5C 422.718,183.451 423.551,183.617 424.5,183C 427.27,181.34 428.437,179.173 428,176.5C 429.873,177.089 431.54,176.422 433,174.5C 433.333,174.833 433.667,175.167 434,175.5C 435.827,174.341 437.493,173.008 439,171.5C 439.308,172.308 439.808,172.975 440.5,173.5C 440.489,172.559 440.989,171.892 442,171.5C 442.772,171.645 443.439,171.978 444,172.5C 446.547,171.374 448.547,169.041 450,165.5C 450.667,168.167 451.333,168.167 452,165.5C 452.667,168.167 453.333,168.167 454,165.5C 454.333,166.167 454.667,166.833 455,167.5C 458.525,166.554 462.191,166.554 466,167.5C 467.039,166.756 467.539,165.756 467.5,164.5 Z"/></g>
<g><path style="opacity:1" fill="#8db7d0" d="M 535.5,164.5 C 538.089,164.461 540.089,165.461 541.5,167.5C 539.181,167.008 537.181,166.008 535.5,164.5 Z"/></g>
<g><path style="opacity:1" fill="#bad5e3" d="M 284.5,167.5 C 284.944,171.946 283.277,175.279 279.5,177.5C 280.332,173.691 281.999,170.357 284.5,167.5 Z"/></g>
<g><path style="opacity:1" fill="#1c78a3" d="M 511.5,156.5 C 519.961,158.209 527.961,160.876 535.5,164.5C 537.181,166.008 539.181,167.008 541.5,167.5C 585.729,191.618 604.896,228.951 599,279.5C 587.203,328.629 557.037,360.129 508.5,374C 489.793,378.313 471.126,378.48 452.5,374.5C 451.737,373.732 450.737,373.232 449.5,373C 450.793,372.51 452.127,372.343 453.5,372.5C 453.976,369.742 455.643,368.075 458.5,367.5C 465.015,367.54 471.181,367.54 477,367.5C 477.333,368.167 477.667,368.833 478,369.5C 478.667,368.167 479.667,367.167 481,366.5C 485.579,367.009 490.412,367.509 495.5,368C 496.966,368.635 498.3,369.469 499.5,370.5C 501.042,369.253 502.542,369.253 504,370.5C 506.096,369.285 505.929,368.451 503.5,368C 504.833,367.333 505.833,366.333 506.5,365C 505.167,363.16 505.334,362.66 507,363.5C 507.359,360.456 508.026,360.122 509,362.5C 510.803,358.488 511.803,358.822 512,363.5C 514.01,362.152 516.01,360.818 518,359.5C 518.945,359.905 519.612,360.572 520,361.5C 522.706,359.129 525.039,356.463 527,353.5C 528,353.833 529,354.167 530,354.5C 532.322,352.075 534.655,350.409 537,349.5C 537.333,348.5 537.667,347.5 538,346.5C 538.333,346.833 538.667,347.167 539,347.5C 541.009,346.167 542.676,344.5 544,342.5C 544.333,342.833 544.667,343.167 545,343.5C 547.04,340.803 549.04,338.137 551,335.5C 552.667,335.5 554.333,335.5 556,335.5C 557.487,334.747 557.654,333.914 556.5,333C 557.672,332.581 558.672,331.915 559.5,331C 558.366,329.984 558.699,329.317 560.5,329C 559.167,327.16 559.334,326.66 561,327.5C 562.113,326.24 562.28,325.073 561.5,324C 562.9,322.562 564.567,321.729 566.5,321.5C 566.943,315.925 568.11,311.258 570,307.5C 570.333,308.167 570.667,308.833 571,309.5C 572.046,307.91 573.213,306.41 574.5,305C 574.167,304.667 573.833,304.333 573.5,304C 576.167,303.333 576.167,302.667 573.5,302C 576.167,301.333 576.167,300.667 573.5,300C 578.569,295.639 580.235,290.472 578.5,284.5C 580.991,283.459 580.991,282.626 578.5,282C 580.46,279.363 582.46,276.697 584.5,274C 583.833,272 582.5,270.667 580.5,270C 581.167,269.667 581.833,269.333 582.5,269C 579.833,268.333 579.833,267.667 582.5,267C 579.833,266.333 579.833,265.667 582.5,265C 579.833,264.333 579.833,263.667 582.5,263C 579.833,262.333 579.833,261.667 582.5,261C 579.833,260.333 579.833,259.667 582.5,259C 581.167,258.333 581.167,257.667 582.5,257C 581.833,256.667 581.167,256.333 580.5,256C 581.833,254.667 581.833,253.333 580.5,252C 583.167,251.333 583.167,250.667 580.5,250C 581.925,248.286 581.592,246.953 579.5,246C 582.167,245.333 582.167,244.667 579.5,244C 582.167,243.333 582.167,242.667 579.5,242C 580.517,240.951 580.684,239.784 580,238.5C 578.989,239.337 577.822,239.67 576.5,239.5C 576.52,236.302 576.853,233.469 577.5,231C 576.333,229.833 575.167,228.667 574,227.5C 574.311,226.065 574.145,224.732 573.5,223.5C 574.616,223.598 575.616,223.098 576.5,222C 575.99,220.174 575.156,220.007 574,221.5C 570.858,216.362 567.024,211.862 562.5,208C 563.167,207.667 563.833,207.333 564.5,207C 564.018,205.54 562.851,204.04 561,202.5C 560.667,202.833 560.333,203.167 560,203.5C 559.667,201.5 559.333,199.5 559,197.5C 557.434,198.061 556.101,197.394 555,195.5C 553.602,191.099 550.769,187.932 546.5,186C 546.833,185.667 547.167,185.333 547.5,185C 542.345,183.539 538.512,180.039 536,174.5C 535.586,174.957 535.086,175.291 534.5,175.5C 533.459,173.009 532.626,173.009 532,175.5C 531.758,173.862 530.925,172.362 529.5,171C 528.551,170.383 527.718,170.549 527,171.5C 526.25,170.874 525.416,170.374 524.5,170C 524.833,169.667 525.167,169.333 525.5,169C 523.409,167.325 521.242,166.825 519,167.5C 517.671,166.506 516.338,165.506 515,164.5C 514.228,164.645 513.561,164.978 513,165.5C 512.536,159.825 511.869,159.492 511,164.5C 508.975,162.275 506.642,161.941 504,163.5C 504.148,162.175 503.982,161.008 503.5,160C 500.24,159.216 497.073,159.383 494,160.5C 493.517,159.552 493.351,158.552 493.5,157.5C 491.473,157.662 489.473,157.495 487.5,157C 495.485,155.349 503.485,155.182 511.5,156.5 Z"/></g>
<g><path style="opacity:1" fill="#0a5d93" d="M 326.5,371.5 C 325.5,370.833 324.5,370.167 323.5,369.5C 307.687,351.868 296.02,331.868 288.5,309.5C 286.501,300.44 284.668,291.44 283,282.5C 282.333,271.167 282.333,259.833 283,248.5C 284.161,253.416 284.827,258.416 285,263.5C 285.193,258.25 285.693,253.083 286.5,248C 285.809,246.933 285.309,245.766 285,244.5C 284.667,245.5 284.333,246.5 284,247.5C 283.502,244.183 283.335,240.85 283.5,237.5C 283.5,236.833 283.5,236.167 283.5,235.5C 285.163,233.562 285.829,231.228 285.5,228.5C 285.858,225.733 286.525,223.067 287.5,220.5C 288.79,219.942 289.623,218.942 290,217.5C 291.143,214.223 291.977,210.89 292.5,207.5C 297.371,196.022 303.705,185.355 311.5,175.5C 315.052,173.633 317.886,170.966 320,167.5C 320.221,170.943 321.221,171.276 323,168.5C 324.875,173.123 323.541,176.79 319,179.5C 318.667,179.167 318.333,178.833 318,178.5C 318.063,181.767 316.563,183.934 313.5,185C 313.833,185.333 314.167,185.667 314.5,186C 313.406,187.78 312.406,189.614 311.5,191.5C 310.808,190.975 310.308,190.308 310,189.5C 309.097,195.508 308.264,201.508 307.5,207.5C 306.167,207.5 304.833,207.5 303.5,207.5C 303.539,212.944 302.873,218.277 301.5,223.5C 300.5,223.5 299.5,223.5 298.5,223.5C 297.823,228.88 297.156,233.714 296.5,238C 297.5,238.833 298.5,239.667 299.5,240.5C 299.862,242.873 299.195,245.207 297.5,247.5C 298.833,257.833 298.833,268.167 297.5,278.5C 300.433,280.738 300.099,281.738 296.5,281.5C 298.638,284.899 299.971,288.399 300.5,292C 299.833,292.667 299.167,293.333 298.5,294C 300.562,295.532 301.896,297.532 302.5,300C 301.366,301.016 301.699,301.683 303.5,302C 301.729,304.113 300.229,303.947 299,301.5C 298.422,313.179 299.755,313.846 303,303.5C 303.499,308.823 303.666,314.156 303.5,319.5C 304.833,319.5 306.167,319.5 307.5,319.5C 307.5,322.167 307.5,324.833 307.5,327.5C 308.833,327.5 310.167,327.5 311.5,327.5C 311.756,329.792 311.423,331.959 310.5,334C 311.759,334.923 313.092,335.757 314.5,336.5C 315.074,338.059 315.74,339.559 316.5,341C 315.167,342.84 315.334,343.34 317,342.5C 317.333,343.833 317.667,345.167 318,346.5C 318.333,346.167 318.667,345.833 319,345.5C 319.638,346.609 320.138,347.775 320.5,349C 317.971,351.203 317.971,353.369 320.5,355.5C 321.668,352.531 323.001,352.198 324.5,354.5C 323.5,359.744 324.333,365.077 327,370.5C 329.734,369.638 329.901,368.805 327.5,368C 328.833,367.333 330.167,367.333 331.5,368C 331.167,368.333 330.833,368.667 330.5,369C 333.001,370.418 332.668,371.418 329.5,372C 330.451,372.718 330.617,373.551 330,374.5C 329.241,372.937 328.074,371.937 326.5,371.5 Z"/></g>
<g><path style="opacity:1" fill="#3785aa" d="M 542.5,208.5 C 519.842,190.921 494.175,184.754 465.5,190C 437.847,196.684 416.347,211.851 401,235.5C 389.877,257.683 389.71,280.017 400.5,302.5C 396.957,299.518 395.79,300.185 397,304.5C 395.956,303.377 395.29,302.044 395,300.5C 391.799,300.766 391.633,299.6 394.5,297C 393.262,297.077 392.262,296.911 391.5,296.5C 391.709,295.914 392.043,295.414 392.5,295C 391.736,292.931 391.236,290.764 391,288.5C 390.552,286.776 389.718,286.109 388.5,286.5C 389.04,285.252 389.707,284.085 390.5,283C 386.5,282.333 386.5,281.667 390.5,281C 388.479,278.957 388.146,276.957 389.5,275C 388.833,274.333 388.167,273.667 387.5,273C 388.471,271.796 389.471,271.296 390.5,271.5C 389.746,268.223 389.246,264.89 389,261.5C 388.333,264.167 387.667,266.833 387,269.5C 386.749,267.567 386.249,265.734 385.5,264C 388.167,263.333 388.167,262.667 385.5,262C 385.5,260.667 385.5,259.333 385.5,258C 386.376,256.415 387.709,255.415 389.5,255C 389.167,252.667 388.833,250.333 388.5,248C 390.351,246.316 392.018,244.483 393.5,242.5C 392.289,241.28 392.289,240.113 393.5,239C 391.009,238.374 391.009,237.541 393.5,236.5C 392.998,235.284 392.665,234.117 392.5,233C 393.025,232.308 393.692,231.808 394.5,231.5C 395.096,232.716 395.263,234.049 395,235.5C 397.369,234.073 397.869,232.239 396.5,230C 399.167,229.333 399.167,228.667 396.5,228C 398.991,227.374 398.991,226.541 396.5,225.5C 397.313,224.186 398.313,223.019 399.5,222C 398.85,220.391 399.35,218.891 401,217.5C 401.333,217.833 401.667,218.167 402,218.5C 402.5,216.667 403.667,215.5 405.5,215C 404.692,214.692 404.025,214.192 403.5,213.5C 404.529,213.704 405.529,213.204 406.5,212C 405.167,210.16 405.334,209.66 407,210.5C 408.779,208.983 408.279,208.149 405.5,208C 407.316,206.685 408.983,205.185 410.5,203.5C 411.675,204.855 412.675,204.688 413.5,203C 412.66,201.334 413.16,201.167 415,202.5C 415.456,201.256 414.956,200.423 413.5,200C 414.646,199.355 415.646,198.522 416.5,197.5C 417.72,196.289 418.887,196.289 420,197.5C 420.317,195.699 420.984,195.366 422,196.5C 424.459,194.95 425.126,192.95 424,190.5C 425.503,190.835 426.836,190.835 428,190.5C 430.034,189.257 430.867,187.757 430.5,186C 431.167,185.333 431.833,185.333 432.5,186C 431.984,188.033 432.65,188.033 434.5,186C 434.043,185.586 433.709,185.086 433.5,184.5C 436.955,184.039 440.122,183.039 443,181.5C 443.333,182.167 443.667,182.833 444,183.5C 444.333,181.5 444.667,179.5 445,177.5C 445.333,178.5 445.667,179.5 446,180.5C 446.29,178.956 446.956,177.623 448,176.5C 448.974,178.878 449.641,178.544 450,175.5C 450.333,176.5 450.667,177.5 451,178.5C 452.325,176.662 454.159,175.662 456.5,175.5C 466.794,175.522 477.461,175.688 488.5,176C 489.749,177.824 490.915,177.657 492,175.5C 492.626,177.991 493.459,177.991 494.5,175.5C 499.749,175.931 504.083,177.098 507.5,179C 508.552,180.716 507.886,181.716 505.5,182C 506.833,182.667 506.833,183.333 505.5,184C 507.488,184.18 509.488,184.014 511.5,183.5C 511.596,179.689 512.262,179.689 513.5,183.5C 514.086,183.291 514.586,182.957 515,182.5C 516.891,184.39 519.058,185.89 521.5,187C 523.042,188.741 523.876,190.574 524,192.5C 525.333,189.833 526.667,189.833 528,192.5C 530.179,191.739 532.345,192.072 534.5,193.5C 535.506,194.396 535.506,195.062 534.5,195.5C 532.669,194.071 530.669,193.571 528.5,194C 529.759,194.923 531.092,195.757 532.5,196.5C 533.92,200.217 536.587,202.55 540.5,203.5C 541.562,205.022 542.229,206.688 542.5,208.5 Z"/></g>
<g><path style="opacity:1" fill="#9dc3d8" d="M 279.5,177.5 C 279.245,179.967 278.245,181.967 276.5,183.5C 276.461,180.911 277.461,178.911 279.5,177.5 Z"/></g>
<g><path style="opacity:1" fill="#fcfefe" d="M 542.5,208.5 C 553.832,219.159 560.832,232.159 563.5,247.5C 563.864,259.295 562.864,270.962 560.5,282.5C 559.069,283.78 558.402,285.447 558.5,287.5C 550.788,302.883 540.121,315.883 526.5,326.5C 491.753,347.809 457.086,347.809 422.5,326.5C 414.339,319.345 407.006,311.679 400.5,303.5C 400.5,303.167 400.5,302.833 400.5,302.5C 389.71,280.017 389.877,257.683 401,235.5C 416.347,211.851 437.847,196.684 465.5,190C 494.175,184.754 519.842,190.921 542.5,208.5 Z"/></g>
<g><path style="opacity:1" fill="#0e5e93" d="M 618.5,142.5 C 644.946,166.376 661.28,196.043 667.5,231.5C 667.875,237.009 668.542,242.342 669.5,247.5C 669.5,249.167 669.5,250.833 669.5,252.5C 669.447,262.512 669.113,272.512 668.5,282.5C 665.154,301.295 659.487,319.295 651.5,336.5C 648.379,341.771 645.046,346.771 641.5,351.5C 640.883,351.389 640.383,351.056 640,350.5C 638.783,351.386 637.449,352.386 636,353.5C 635.667,352.833 635.333,352.167 635,351.5C 634.107,352.711 633.274,352.711 632.5,351.5C 634.511,348.323 637.178,345.823 640.5,344C 639.833,343 639.167,342 638.5,341C 642.921,334.302 645.421,326.802 646,318.5C 646.853,320.125 647.853,320.458 649,319.5C 650.744,313.471 651.911,306.637 652.5,299C 652.335,297.883 652.002,296.716 651.5,295.5C 651.846,294.304 652.346,294.304 653,295.5C 654.435,287.622 654.602,279.789 653.5,272C 655.188,269.175 656.021,266.009 656,262.5C 657,262.833 658,263.167 659,263.5C 659.497,260.854 659.664,258.187 659.5,255.5C 658.167,255.5 656.833,255.5 655.5,255.5C 655.664,252.813 655.497,250.146 655,247.5C 654.25,246.874 653.416,246.374 652.5,246C 655.167,245.333 655.167,244.667 652.5,244C 655.167,243.333 655.167,242.667 652.5,242C 653.833,241.333 653.833,240.667 652.5,240C 653.167,239.667 653.833,239.333 654.5,239C 652.109,238.309 652.109,237.309 654.5,236C 652.109,234.691 652.109,233.691 654.5,233C 653.167,232.333 652.167,231.333 651.5,230C 651.833,229 652.167,228 652.5,227C 650.287,221.679 648.454,216.179 647,210.5C 646.167,209.667 645.333,208.833 644.5,208C 645.444,205.281 645.777,202.448 645.5,199.5C 647.681,199.716 649.347,198.883 650.5,197C 650,196.5 649.5,196 649,195.5C 648.581,196.672 647.915,197.672 647,198.5C 644.982,196.65 643.149,194.65 641.5,192.5C 640.264,191.754 638.93,191.421 637.5,191.5C 637.478,187.407 636.811,183.407 635.5,179.5C 635.787,177.514 636.453,175.68 637.5,174C 637.323,171.868 636.323,170.868 634.5,171C 634.966,172.299 634.966,173.799 634.5,175.5C 631.743,175.622 629.743,174.455 628.5,172C 628.377,170.211 628.377,168.378 628.5,166.5C 627.469,165.3 626.635,163.966 626,162.5C 625.612,163.428 624.945,164.095 624,164.5C 622.238,164.056 622.405,163.556 624.5,163C 623.5,162 622.5,161 621.5,160C 622.5,159.667 623.5,159.333 624.5,159C 623.371,156.832 621.871,156.332 620,157.5C 619.097,156.299 617.931,155.465 616.5,155C 616.833,154.667 617.167,154.333 617.5,154C 615.667,153.5 614.5,152.333 614,150.5C 613.333,153.167 612.667,153.167 612,150.5C 612.294,145.822 610.794,141.989 607.5,139C 610.87,140.662 614.537,141.829 618.5,142.5 Z"/></g>
<g><path style="opacity:1" fill="#205684" d="M 253.5,175.5 C 251.548,181.614 249.715,187.948 248,194.5C 247,195.5 246,196.5 245,197.5C 244.891,202.047 243.391,206.047 240.5,209.5C 241.756,211.616 241.09,212.949 238.5,213.5C 241.96,200.101 246.96,187.434 253.5,175.5 Z"/></g>
<g><path style="opacity:1" fill="#6293b1" d="M 292.5,207.5 C 291.977,210.89 291.143,214.223 290,217.5C 289.623,218.942 288.79,219.942 287.5,220.5C 288.599,215.856 290.266,211.522 292.5,207.5 Z"/></g>
<g><path style="opacity:1" fill="#dbeff7" d="M 348.5,191.5 C 348.657,192.873 348.49,194.207 348,195.5C 346.171,199.149 343.837,202.482 341,205.5C 339.921,208.063 339.421,210.729 339.5,213.5C 338.5,213.5 337.5,213.5 336.5,213.5C 336.5,215.167 336.5,216.833 336.5,218.5C 335.5,218.5 334.5,218.5 333.5,218.5C 333.771,220.38 333.104,221.713 331.5,222.5C 333.978,216.872 336.478,211.206 339,205.5C 341.93,200.628 345.097,195.961 348.5,191.5 Z"/></g>
<g><path style="opacity:1" fill="#cee6f1" d="M 266.5,209.5 C 265.757,219.881 263.757,229.881 260.5,239.5C 260.336,236.813 260.503,234.146 261,231.5C 262.524,223.96 264.358,216.626 266.5,209.5 Z"/></g>
<g><path style="opacity:1" fill="#4f81a2" d="M 695.5,223.5 C 696.268,224.263 696.768,225.263 697,226.5C 697.499,230.821 697.666,235.154 697.5,239.5C 696.542,234.342 695.875,229.009 695.5,223.5 Z"/></g>
<g><path style="opacity:1" fill="#6899b6" d="M 285.5,228.5 C 285.829,231.228 285.163,233.562 283.5,235.5C 283.41,232.848 284.076,230.515 285.5,228.5 Z"/></g>
<g><path style="opacity:1" fill="#74a2bd" d="M 234.5,231.5 C 234.435,234.428 233.768,237.095 232.5,239.5C 232.294,236.505 232.96,233.838 234.5,231.5 Z"/></g>
<g><path style="opacity:1" fill="#dff2f8" d="M 693.5,215.5 C 695.04,217.838 695.706,220.505 695.5,223.5C 695.875,229.009 696.542,234.342 697.5,239.5C 697.5,242.167 697.5,244.833 697.5,247.5C 697.543,258.191 697.043,268.857 696,279.5C 695.892,283.465 695.059,287.132 693.5,290.5C 696.112,265.555 696.112,240.555 693.5,215.5 Z"/></g>
<g><path style="opacity:1" fill="#81adc6" d="M 667.5,231.5 C 669.26,236.553 669.927,241.886 669.5,247.5C 668.542,242.342 667.875,237.009 667.5,231.5 Z"/></g>
<g><path style="opacity:1" fill="#28648f" d="M 283.5,237.5 C 283.335,240.85 283.502,244.183 284,247.5C 284.333,246.5 284.667,245.5 285,244.5C 285.309,245.766 285.809,246.933 286.5,248C 285.693,253.083 285.193,258.25 285,263.5C 284.827,258.416 284.161,253.416 283,248.5C 282.333,259.833 282.333,271.167 283,282.5C 284.668,291.44 286.501,300.44 288.5,309.5C 279.898,285.987 278.232,261.987 283.5,237.5 Z"/></g>
<g><path style="opacity:1" fill="#aed2e7" d="M 669.5,252.5 C 670.165,256.151 670.499,259.985 670.5,264C 670.63,270.399 669.963,276.566 668.5,282.5C 669.113,272.512 669.447,262.512 669.5,252.5 Z"/></g>
<g><path style="opacity:1" fill="#2e638e" d="M 697.5,247.5 C 698.824,259.007 698.824,270.673 697.5,282.5C 697.006,286.384 696.006,290.051 694.5,293.5C 695.119,296.631 694.119,299.297 691.5,301.5C 692.463,297.899 693.13,294.233 693.5,290.5C 695.059,287.132 695.892,283.465 696,279.5C 697.043,268.857 697.543,258.191 697.5,247.5 Z"/></g>
<g><path style="opacity:1" fill="#5f90ae" d="M 262.5,295.5 C 264.04,297.838 264.706,300.505 264.5,303.5C 262.96,301.162 262.294,298.495 262.5,295.5 Z"/></g>
<g><path style="opacity:1" fill="#1e5481" d="M 231.5,251.5 C 231.333,264.837 231.5,278.171 232,291.5C 234.523,306.946 237.357,322.279 240.5,337.5C 239.326,336.486 238.66,335.153 238.5,333.5C 235.618,322.518 233.285,311.518 231.5,300.5C 230.236,284.016 230.236,267.683 231.5,251.5 Z"/></g>
<g><path style="opacity:1" fill="#d1e6f0" d="M 717.5,295.5 C 717.55,300.552 717.05,305.552 716,310.5C 714.444,313.598 712.944,316.598 711.5,319.5C 711.5,318.833 711.5,318.167 711.5,317.5C 712.928,309.901 714.928,302.568 717.5,295.5 Z"/></g>
<g><path style="opacity:1" fill="#cbe2ed" d="M 231.5,300.5 C 233.285,311.518 235.618,322.518 238.5,333.5C 235.73,331.634 234.23,328.968 234,325.5C 232.274,317.252 231.441,308.918 231.5,300.5 Z"/></g>
<g><path style="opacity:1" fill="#6393b1" d="M 711.5,317.5 C 711.5,318.167 711.5,318.833 711.5,319.5C 710.985,321.751 709.985,323.751 708.5,325.5C 708.661,322.32 709.661,319.653 711.5,317.5 Z"/></g>
<g><path style="opacity:1" fill="#5283a5" d="M 682.5,327.5 C 682.834,330.491 681.834,332.824 679.5,334.5C 679.935,331.843 680.935,329.509 682.5,327.5 Z"/></g>
<g><path style="opacity:1" fill="#afd0e2" d="M 703.5,340.5 C 702.378,345.353 700.712,350.019 698.5,354.5C 698.132,356.175 697.132,357.175 695.5,357.5C 697.428,351.332 700.094,345.665 703.5,340.5 Z"/></g>
<g><path style="opacity:1" fill="#205481" d="M 240.5,337.5 C 241.586,337.62 242.253,338.287 242.5,339.5C 244.826,347.822 247.993,355.822 252,363.5C 253.352,366.72 254.186,370.053 254.5,373.5C 251.118,366.228 247.618,358.895 244,351.5C 243.122,346.749 241.955,342.082 240.5,337.5 Z"/></g>
<g><path style="opacity:1" fill="#7daac4" d="M 669.5,353.5 C 669.155,356.198 667.822,358.198 665.5,359.5C 666.34,357.147 667.674,355.147 669.5,353.5 Z"/></g>
<g><path style="opacity:1" fill="#235d8e" d="M 273.5,331.5 C 277.546,340.592 281.879,349.592 286.5,358.5C 287.242,359.287 288.075,359.953 289,360.5C 290.747,365.667 293.247,370.333 296.5,374.5C 295.542,374.047 294.708,373.381 294,372.5C 293.683,374.301 293.016,374.634 292,373.5C 290.7,370.705 289.2,368.039 287.5,365.5C 287.833,364.833 288.167,364.167 288.5,363.5C 285.843,360.853 283.677,357.853 282,354.5C 281.667,355.167 281.333,355.833 281,356.5C 279.885,355 279.052,353.333 278.5,351.5C 277.092,350.757 275.759,349.923 274.5,349C 275.167,348.667 275.833,348.333 276.5,348C 276.014,345.973 276.014,343.807 276.5,341.5C 275.325,341.719 274.325,341.386 273.5,340.5C 273.742,337.681 273.742,334.681 273.5,331.5 Z"/></g>
<g><path style="opacity:1" fill="#8db6cf" d="M 323.5,369.5 C 324.5,370.167 325.5,370.833 326.5,371.5C 327.11,372.391 327.443,373.391 327.5,374.5C 325.413,373.415 324.08,371.749 323.5,369.5 Z"/></g>
<g><path style="opacity:1" fill="#40719a" d="M 660.5,367.5 C 658.472,370.897 656.972,374.564 656,378.5C 653.398,379.296 651.232,380.629 649.5,382.5C 653.167,377.5 656.833,372.5 660.5,367.5 Z"/></g>
<g><path style="opacity:1" fill="#96bdd4" d="M 255.5,375.5 C 257.245,377.033 258.245,379.033 258.5,381.5C 256.755,379.967 255.755,377.967 255.5,375.5 Z"/></g>
<g><path style="opacity:1" fill="#b7d7e9" d="M 627.5,371.5 C 626.37,373.315 625.704,375.315 625.5,377.5C 622.944,378.702 620.611,380.369 618.5,382.5C 620.78,378.222 623.78,374.555 627.5,371.5 Z"/></g>
<g><path style="opacity:1" fill="#d0e6f0" d="M 687.5,372.5 C 686.247,378.336 683.914,383.67 680.5,388.5C 678.971,389.763 677.305,390.763 675.5,391.5C 679.112,384.895 683.112,378.561 687.5,372.5 Z"/></g>
<g><path style="opacity:1" fill="#386d94" d="M 649.5,382.5 C 647.668,386.381 645.501,390.047 643,393.5C 642.667,393.167 642.333,392.833 642,392.5C 640.549,394.464 638.716,395.797 636.5,396.5C 640.843,391.792 645.176,387.125 649.5,382.5 Z"/></g>
<g><path style="opacity:1" fill="#0f6799" d="M 588.5,153.5 C 578.605,146.535 568.605,139.535 558.5,132.5C 551.91,130.204 545.577,127.371 539.5,124C 515.153,115.443 490.153,112.776 464.5,116C 423.216,123.382 388.716,142.549 361,173.5C 356.567,179.384 352.401,185.384 348.5,191.5C 345.097,195.961 341.93,200.628 339,205.5C 336.478,211.206 333.978,216.872 331.5,222.5C 328.023,231.932 325.356,241.599 323.5,251.5C 321.891,254.149 321.057,257.149 321,260.5C 320.177,268.677 320.344,276.677 321.5,284.5C 321.802,287.373 322.469,290.039 323.5,292.5C 324.046,299.679 325.38,306.679 327.5,313.5C 329.262,319.771 331.095,325.771 333,331.5C 335.442,334.048 337.108,337.048 338,340.5C 338.671,341.252 339.504,341.586 340.5,341.5C 346.757,349.601 353.257,357.601 360,365.5C 377.281,383.622 397.781,396.622 421.5,404.5C 423.515,405.924 425.848,406.59 428.5,406.5C 429.959,406.433 431.292,406.766 432.5,407.5C 432.611,408.117 432.944,408.617 433.5,409C 454.988,413.687 476.654,414.687 498.5,412C 499.056,411.617 499.389,411.117 499.5,410.5C 499.5,410.167 499.5,409.833 499.5,409.5C 505.198,408.627 510.864,407.627 516.5,406.5C 524.372,406.131 531.372,403.798 537.5,399.5C 556.235,392.298 572.902,381.798 587.5,368C 621.221,332.06 636.387,289.227 633,239.5C 631.417,228.592 628.917,217.925 625.5,207.5C 626.397,208.598 627.23,208.598 628,207.5C 628.862,209.087 629.529,210.754 630,212.5C 630.464,206.825 631.131,206.492 632,211.5C 632.29,209.956 632.956,208.623 634,207.5C 633.457,212.722 633.624,217.888 634.5,223C 633.552,223.483 632.552,223.649 631.5,223.5C 631.545,227.346 632.378,231.013 634,234.5C 635.314,233.687 636.481,232.687 637.5,231.5C 637.833,231.833 638.167,232.167 638.5,232.5C 637.725,236.632 637.059,240.799 636.5,245C 636.756,248.322 637.756,251.322 639.5,254C 638.721,258.339 637.721,262.672 636.5,267C 636.801,271.447 637.301,271.281 638,266.5C 638.167,267.333 638.333,268.167 638.5,269C 637.272,273.193 637.272,277.36 638.5,281.5C 635.05,283.105 635.383,284.772 639.5,286.5C 636.576,290.811 635.909,295.477 637.5,300.5C 639.828,302.574 639.161,303.574 635.5,303.5C 635.662,301.473 635.495,299.473 635,297.5C 633.685,299.316 632.185,300.983 630.5,302.5C 631.289,304.488 632.455,304.821 634,303.5C 634.971,308.475 634.304,309.142 632,305.5C 630.282,307.202 630.115,309.035 631.5,311C 628.287,315.954 626.62,321.454 626.5,327.5C 624.549,327.773 623.049,327.107 622,325.5C 620.417,327.202 620.917,328.536 623.5,329.5C 621.683,329.745 620.016,329.745 618.5,329.5C 618.33,334.336 618.33,338.836 618.5,343C 615.845,344.278 613.845,346.278 612.5,349C 613.328,349.915 614.328,350.581 615.5,351C 612.737,352.756 610.237,354.923 608,357.5C 607.482,361.575 607.482,365.575 608,369.5C 606,367.833 604,366.167 602,364.5C 600.513,365.253 600.346,366.086 601.5,367C 600.065,366.689 598.732,366.855 597.5,367.5C 596.52,370.086 596.187,372.753 596.5,375.5C 594.856,375.286 593.356,375.62 592,376.5C 590.788,379.834 591.621,382.334 594.5,384C 592.821,384.395 591.155,384.228 589.5,383.5C 584.819,384.178 582.819,386.845 583.5,391.5C 582.127,391.343 580.793,391.51 579.5,392C 576.945,396.483 575.278,396.317 574.5,391.5C 572.35,393.149 570.35,394.982 568.5,397C 568.957,397.414 569.291,397.914 569.5,398.5C 566.843,399.259 564.177,399.926 561.5,400.5C 560.914,400.291 560.414,399.957 560,399.5C 560.311,400.935 560.145,402.268 559.5,403.5C 556.893,404.318 554.226,404.818 551.5,405C 550.833,405.667 550.167,406.333 549.5,407C 550.973,407.71 551.64,408.876 551.5,410.5C 549.143,410.337 546.81,410.503 544.5,411C 543.62,412.356 543.286,413.856 543.5,415.5C 537.435,414.206 531.768,415.372 526.5,419C 521.536,419.912 516.536,420.412 511.5,420.5C 511.5,422.5 511.5,424.5 511.5,426.5C 506.025,427.081 500.858,426.414 496,424.5C 494.914,426.847 493.581,426.847 492,424.5C 490.354,426.141 489.354,425.807 489,423.5C 488.333,426.167 487.667,426.167 487,423.5C 486.019,426.689 484.686,427.022 483,424.5C 482.683,426.301 482.016,426.634 481,425.5C 480.626,426.416 480.126,427.25 479.5,428C 474.167,428.333 468.833,428.667 463.5,429C 464.667,429.5 465.5,430.333 466,431.5C 467.865,429.145 470.031,428.978 472.5,431C 471.308,432.912 470.308,434.912 469.5,437C 478.5,437.667 487.5,437.667 496.5,437C 501.556,436.043 506.556,435.876 511.5,436.5C 507.381,437.738 503.047,438.571 498.5,439C 489.506,439.5 480.506,439.666 471.5,439.5C 458.032,438.65 444.699,436.817 431.5,434C 424.828,432.512 418.495,430.346 412.5,427.5C 417.873,428.023 423.039,428.356 428,428.5C 428.5,428 429,427.5 429.5,427C 427.833,426.667 426.167,426.333 424.5,426C 426.833,425.667 429.167,425.333 431.5,425C 430.692,424.692 430.025,424.192 429.5,423.5C 430.718,423.891 431.552,423.224 432,421.5C 434.106,423.291 436.606,423.958 439.5,423.5C 439.678,426.879 439.678,430.045 439.5,433C 443.566,433.979 447.566,435.146 451.5,436.5C 452.167,436.167 452.833,435.833 453.5,435.5C 452.895,433.519 451.895,433.185 450.5,434.5C 449.685,432.724 448.518,432.057 447,432.5C 447.019,430.893 447.185,429.226 447.5,427.5C 452.692,427.992 458.025,427.826 463.5,427C 458.177,426.501 452.844,426.334 447.5,426.5C 447.146,424.459 447.146,422.626 447.5,421C 437.391,421.097 428.058,419.264 419.5,415.5C 416.611,416.966 415.277,415.966 415.5,412.5C 412.503,413.32 409.669,413.653 407,413.5C 405.043,411.673 403.876,409.84 403.5,408C 401.221,407.527 399.221,406.527 397.5,405C 395.527,404.505 393.527,404.338 391.5,404.5C 391.688,402.897 391.188,401.563 390,400.5C 389.667,400.833 389.333,401.167 389,401.5C 387.89,399.963 386.39,399.297 384.5,399.5C 384.649,400.552 384.483,401.552 384,402.5C 383.505,400.527 383.338,398.527 383.5,396.5C 382.178,396.67 381.011,396.337 380,395.5C 379.333,396.833 378.667,398.167 378,399.5C 377.333,396.833 376.667,396.833 376,399.5C 375.503,396.854 375.336,394.187 375.5,391.5C 371.591,392.263 370.258,390.93 371.5,387.5C 370.624,386.749 369.624,386.249 368.5,386C 369.956,385.577 370.456,384.744 370,383.5C 368.192,383.888 366.525,383.888 365,383.5C 364.682,381.939 363.849,380.772 362.5,380C 362.587,377.87 362.587,375.703 362.5,373.5C 359.819,376.698 357.652,376.031 356,371.5C 355.667,372.167 355.333,372.833 355,373.5C 354.436,371.438 354.936,369.605 356.5,368C 356.167,367.5 355.833,367 355.5,366.5C 353.267,366.864 351.434,367.864 350,369.5C 349.228,368.151 348.061,367.318 346.5,367C 347.833,366.333 347.833,365.667 346.5,365C 352.048,363.239 351.715,361.239 345.5,359C 344.277,355.777 341.944,354.111 338.5,354C 339.167,353.667 339.833,353.333 340.5,353C 339.478,350.684 337.978,350.184 336,351.5C 335.979,349.562 336.146,347.562 336.5,345.5C 335.68,343.889 334.346,343.222 332.5,343.5C 332.905,339.952 332.405,336.619 331,333.5C 330.692,334.308 330.192,334.975 329.5,335.5C 327.978,332.371 327.145,329.037 327,325.5C 325.559,326.87 323.892,327.87 322,328.5C 322.148,327.175 321.982,326.008 321.5,325C 322.5,324 323.5,323 324.5,322C 323.359,321.259 323.359,320.425 324.5,319.5C 323.833,318.167 322.833,317.167 321.5,316.5C 319.995,319.131 319.329,318.797 319.5,315.5C 320.552,315.649 321.552,315.483 322.5,315C 321.944,312.763 320.944,310.763 319.5,309C 320.997,305.828 319.997,303.995 316.5,303.5C 313.667,276.814 313.834,250.147 317,223.5C 317.84,226.228 319.173,227.895 321,228.5C 324.775,225.455 324.275,223.789 319.5,223.5C 318.827,217.104 320.327,211.438 324,206.5C 324.497,204.19 324.663,201.857 324.5,199.5C 325.5,199.5 326.5,199.5 327.5,199.5C 327.5,196.833 327.5,194.167 327.5,191.5C 329.527,191.662 331.527,191.495 333.5,191C 334.925,189.638 335.758,188.138 336,186.5C 336.333,186.833 336.667,187.167 337,187.5C 336,183.659 335.5,179.659 335.5,175.5C 336.873,175.657 338.207,175.49 339.5,175C 342.359,173.309 343.692,170.809 343.5,167.5C 345.167,167.5 346.833,167.5 348.5,167.5C 348.5,164.833 348.5,162.167 348.5,159.5C 350.564,159.313 352.564,158.813 354.5,158C 359.578,153.593 363.911,148.593 367.5,143C 366.01,142.255 365.01,141.088 364.5,139.5C 365.552,137.777 365.552,136.11 364.5,134.5C 365.274,133.289 366.107,133.289 367,134.5C 366.923,135.738 367.089,136.738 367.5,137.5C 368.983,134.462 368.15,132.128 365,130.5C 363.657,131.214 362.324,130.88 361,129.5C 359.538,131.148 357.705,132.148 355.5,132.5C 357.304,129.902 359.638,127.735 362.5,126C 367.927,122.362 373.594,119.195 379.5,116.5C 377.996,118.836 375.996,120.669 373.5,122C 374.308,122.308 374.975,122.808 375.5,123.5C 374.674,124.451 374.508,125.451 375,126.5C 377.75,123.242 380.917,120.576 384.5,118.5C 385.72,119.711 386.887,119.711 388,118.5C 388.684,119.784 388.517,120.951 387.5,122C 388.784,122.684 389.951,122.517 391,121.5C 393.045,123.355 395.379,124.689 398,125.5C 398.42,122.074 399.254,118.741 400.5,115.5C 404.379,117.509 406.879,116.509 408,112.5C 408.333,113.167 408.667,113.833 409,114.5C 409.667,111.833 410.333,111.833 411,114.5C 411.667,111.833 412.333,111.833 413,114.5C 413.667,111.833 414.333,111.833 415,114.5C 417.734,113.638 417.901,112.805 415.5,112C 417.764,111.764 419.931,111.264 422,110.5C 422.333,110.833 422.667,111.167 423,111.5C 423.333,110.5 423.667,109.5 424,108.5C 425,108.833 426,109.167 427,109.5C 428.067,108.809 429.234,108.309 430.5,108C 430.167,107.667 429.833,107.333 429.5,107C 431.883,106.935 432.55,106.102 431.5,104.5C 433.316,103.058 435.316,102.558 437.5,103C 434.934,104.626 435.101,106.126 438,107.5C 440.071,106.636 441.738,105.303 443,103.5C 443.333,104.167 443.667,104.833 444,105.5C 445.648,103.972 447.648,103.305 450,103.5C 453.242,103.928 456.409,104.594 459.5,105.5C 463.463,104.909 467.296,104.909 471,105.5C 471.167,105.167 471.333,104.833 471.5,104.5C 469.577,103.692 467.577,103.192 465.5,103C 469.5,102.667 473.5,102.333 477.5,102C 475.333,101.833 473.167,101.667 471,101.5C 468.375,101.581 466.041,102.248 464,103.5C 463.517,102.552 463.351,101.552 463.5,100.5C 468.844,100.666 474.177,100.499 479.5,100C 478.167,99.3333 476.833,98.6667 475.5,98C 475.833,97.6667 476.167,97.3333 476.5,97C 478.809,96.9944 480.975,96.8277 483,96.5C 485.071,97.8207 487.071,98.8207 489,99.5C 489.333,98.8333 489.667,98.1667 490,97.5C 491.217,98.3859 492.551,99.3859 494,100.5C 494.333,99.8333 494.667,99.1667 495,98.5C 495.098,100.619 495.931,102.286 497.5,103.5C 504.653,103.415 511.986,103.415 519.5,103.5C 519.34,105.199 519.506,106.866 520,108.5C 521.667,108.167 523.333,107.833 525,107.5C 526.585,108.376 527.585,109.709 528,111.5C 528.667,110.833 529.333,110.167 530,109.5C 531.779,110.479 533.445,110.146 535,108.5C 535.483,109.448 535.649,110.448 535.5,111.5C 538.167,111.5 540.833,111.5 543.5,111.5C 543.5,113.167 543.5,114.833 543.5,116.5C 542.448,116.351 541.448,116.517 540.5,117C 546.946,118.023 553.279,120.023 559.5,123C 561.333,124.167 562.833,125.667 564,127.5C 564.333,127.167 564.667,126.833 565,126.5C 570.46,128.201 569.96,129.701 563.5,131C 567.02,131.504 569.52,133.337 571,136.5C 571.642,134.238 572.475,132.071 573.5,130C 572.376,129.751 571.376,129.251 570.5,128.5C 571.53,128.446 572.697,128.112 574,127.5C 574.737,129.825 575.57,132.492 576.5,135.5C 578.164,137.995 580.33,139.995 583,141.5C 582.293,143.843 582.626,146.176 584,148.5C 586.072,149.734 587.572,151.401 588.5,153.5 Z"/></g>
<g><path style="opacity:1" fill="#3c769b" d="M 327.5,313.5 C 331.817,322.756 336.15,332.09 340.5,341.5C 339.504,341.586 338.671,341.252 338,340.5C 337.108,337.048 335.442,334.048 333,331.5C 331.095,325.771 329.262,319.771 327.5,313.5 Z"/></g>
<g><path style="opacity:1" fill="#3985aa" d="M 558.5,287.5 C 558.566,292.805 558.733,298.138 559,303.5C 558.138,301.913 557.471,300.246 557,298.5C 556.667,298.833 556.333,299.167 556,299.5C 557.323,303.19 556.323,306.19 553,308.5C 552.586,308.043 552.086,307.709 551.5,307.5C 550.77,308.934 549.77,310.1 548.5,311C 551.464,311.84 551.797,312.84 549.5,314C 550.654,314.914 550.487,315.747 549,316.5C 548.282,315.549 547.449,315.383 546.5,316C 546.833,317 547.167,318 547.5,319C 545.835,321.073 544.335,323.24 543,325.5C 542.667,324.833 542.333,324.167 542,323.5C 540.766,325.734 538.933,327.234 536.5,328C 537.5,328.333 538.5,328.667 539.5,329C 537.714,329.785 536.214,330.951 535,332.5C 533.984,331.366 533.317,331.699 533,333.5C 532.667,333.167 532.333,332.833 532,332.5C 529.596,335.92 527.763,336.254 526.5,333.5C 525.5,334 524.5,334.5 523.5,335C 524.311,337.291 523.477,339.125 521,340.5C 520,340.167 519,339.833 518,339.5C 516.881,340.552 516.381,341.719 516.5,343C 514.273,343.121 512.44,343.954 511,345.5C 508.765,344.761 506.765,344.761 505,345.5C 504.333,347.5 503.667,349.5 503,351.5C 502.751,350.376 502.251,349.376 501.5,348.5C 499.93,348.694 498.43,348.694 497,348.5C 496.221,349.728 495.221,350.728 494,351.5C 490.757,350.664 487.757,350.331 485,350.5C 484.333,353.167 483.667,353.167 483,350.5C 478.02,351.157 472.853,351.157 467.5,350.5C 464.194,352.473 460.694,352.473 457,350.5C 456.667,350.833 456.333,351.167 456,351.5C 455.641,348.456 454.974,348.122 454,350.5C 453.333,347.833 452.667,347.833 452,350.5C 451.333,346.5 450.667,346.5 450,350.5C 449.641,347.456 448.974,347.122 448,349.5C 447.333,348.167 446.667,346.833 446,345.5C 444.984,346.634 444.317,346.301 444,344.5C 442.84,346.797 441.84,346.464 441,343.5C 440.667,344.167 440.333,344.833 440,345.5C 438.615,344.449 437.615,343.116 437,341.5C 436.333,342.167 435.667,342.833 435,343.5C 430.712,341.208 427.046,338.208 424,334.5C 423.282,335.451 422.449,335.617 421.5,335C 420.167,333.667 420.167,332.333 421.5,331C 419.396,330.209 418.063,328.709 417.5,326.5C 417.331,327.397 416.998,328.397 416.5,329.5C 415.808,328.975 415.308,328.308 415,327.5C 414.667,327.833 414.333,328.167 414,328.5C 412.601,327.773 411.101,327.273 409.5,327C 410.938,326.781 412.271,326.281 413.5,325.5C 411.833,324.5 410.5,323.167 409.5,321.5C 408.719,322.729 408.219,324.062 408,325.5C 407.727,323.899 407.227,322.399 406.5,321C 406.833,320.667 407.167,320.333 407.5,320C 406.353,317.512 404.686,315.512 402.5,314C 402.833,313.667 403.167,313.333 403.5,313C 401.691,310.151 400.691,306.985 400.5,303.5C 407.006,311.679 414.339,319.345 422.5,326.5C 457.086,347.809 491.753,347.809 526.5,326.5C 540.121,315.883 550.788,302.883 558.5,287.5 Z"/></g>
<g><path style="opacity:1" fill="#679ab7" d="M 563.5,247.5 C 564.663,258.021 564.496,268.688 563,279.5C 562.764,281.119 561.931,282.119 560.5,282.5C 561.931,282.119 562.764,281.119 563,279.5C 564.496,268.688 564.663,258.021 563.5,247.5 Z"/></g>
<g><path style="opacity:1" fill="#3a7b9d" d="M 323.5,251.5 C 322.838,255.466 322.505,259.466 322.5,263.5C 321.509,270.313 321.175,277.313 321.5,284.5C 320.344,276.677 320.177,268.677 321,260.5C 321.057,257.149 321.891,254.149 323.5,251.5 Z"/></g>
<g><path style="opacity:1" fill="#9ec6dd" d="M 322.5,263.5 C 322.342,273.191 322.675,282.857 323.5,292.5C 322.469,290.039 321.802,287.373 321.5,284.5C 321.175,277.313 321.509,270.313 322.5,263.5 Z"/></g>
<g><path style="opacity:1" fill="#b9daee" d="M 529.5,247.5 C 531.006,250.356 531.672,253.523 531.5,257C 531.496,259.361 531.163,261.527 530.5,263.5C 530.528,258.138 530.194,252.805 529.5,247.5 Z"/></g>
<g><path style="opacity:1" fill="#1775a1" d="M 391.5,345.5 C 376.914,333.368 365.414,318.702 357,301.5C 349.92,281.646 348.753,261.646 353.5,241.5C 356.306,235.398 358.806,229.065 361,222.5C 364.992,222.75 368.492,224.583 371.5,228C 370.167,228.667 370.167,229.333 371.5,230C 370.747,231.487 369.914,231.654 369,230.5C 366.985,232.478 367.152,234.312 369.5,236C 367.56,235.822 365.893,236.822 364.5,239C 365.448,239.483 366.448,239.649 367.5,239.5C 367.33,240.822 367.663,241.989 368.5,243C 366.938,244.887 365.271,245.72 363.5,245.5C 365.991,246.541 365.991,247.374 363.5,248C 364.833,248.667 364.833,249.333 363.5,250C 364.167,250.333 364.833,250.667 365.5,251C 364.167,252.333 364.167,253.667 365.5,255C 362.833,255.667 362.833,256.333 365.5,257C 364.739,262.856 364.405,269.189 364.5,276C 364.742,278.303 366.075,280.303 368.5,282C 367.065,284.267 367.398,286.267 369.5,288C 368.426,288.739 367.759,289.739 367.5,291C 368.143,293.571 369.477,295.571 371.5,297C 371.499,298.399 371.165,299.899 370.5,301.5C 371.09,302.799 372.09,303.632 373.5,304C 373.167,304.333 372.833,304.667 372.5,305C 375.601,307.857 376.268,310.857 374.5,314C 377.167,314.667 377.167,315.333 374.5,316C 375.931,316.465 377.097,317.299 378,318.5C 378.333,317.833 378.667,317.167 379,316.5C 379.113,320.461 380.113,324.461 382,328.5C 382.667,329.833 383.333,329.833 384,328.5C 386.205,331.04 388.705,333.207 391.5,335C 390.354,335.645 389.354,336.478 388.5,337.5C 387.833,336.833 387.167,336.167 386.5,335.5C 385.571,337.322 386.238,338.655 388.5,339.5C 392.256,335.635 394.089,336.301 394,341.5C 395.324,342.88 396.657,343.214 398,342.5C 398.5,343.5 399,344.5 399.5,345.5C 398.336,345.165 397.003,345.165 395.5,345.5C 396.09,346.799 397.09,347.632 398.5,348C 398,348.167 397.5,348.333 397,348.5C 395.269,347.259 393.436,346.259 391.5,345.5 Z"/></g>
<g><path style="opacity:1" fill="#4c93b1" d="M 529.5,247.5 C 530.194,252.805 530.528,258.138 530.5,263.5C 526.979,275.348 520.312,285.181 510.5,293C 496.23,302.282 480.564,305.949 463.5,304C 435.905,296.39 426.405,278.89 435,251.5C 449.23,229.803 469.396,219.97 495.5,222C 512.588,223.301 523.922,231.801 529.5,247.5 Z"/></g>
<g><path style="opacity:1" fill="#f9fdfd" d="M 476.5,245.5 C 494.045,244.557 500.211,252.557 495,269.5C 492.474,273.69 488.974,276.857 484.5,279C 480.167,279.667 475.833,279.667 471.5,279C 469.237,277.016 467.07,274.849 465,272.5C 461.77,260.311 465.603,251.311 476.5,245.5 Z"/></g>
<g><path style="opacity:1" fill="#0a558e" d="M 675.5,343.5 C 675.693,348.688 676.026,354.021 676.5,359.5C 674.833,359.5 673.167,359.5 671.5,359.5C 671.682,361.591 671.348,363.591 670.5,365.5C 672.863,367.736 674.863,370.236 676.5,373C 674.555,372.872 672.722,373.038 671,373.5C 669.548,372.093 669.715,370.593 671.5,369C 670.228,367.693 669.228,366.193 668.5,364.5C 667.646,365.948 666.646,367.281 665.5,368.5C 666.428,369.768 666.595,371.101 666,372.5C 664.374,374.917 662.874,377.417 661.5,380C 662.167,381 662.833,382 663.5,383C 662.167,382.667 660.833,382.333 659.5,382C 658.87,385.271 657.87,388.438 656.5,391.5C 651.959,390.472 648.626,392.138 646.5,396.5C 646.977,397.478 647.643,398.311 648.5,399C 647.448,400.119 646.281,400.619 645,400.5C 644.503,402.81 644.337,405.143 644.5,407.5C 642.473,407.662 640.473,407.495 638.5,407C 639.765,402.526 639.099,402.359 636.5,406.5C 635.914,406.291 635.414,405.957 635,405.5C 634.459,408.209 632.959,410.209 630.5,411.5C 633.964,414.301 636.797,413.634 639,409.5C 639.495,411.473 639.662,413.473 639.5,415.5C 636.833,415.5 634.167,415.5 631.5,415.5C 631.66,417.199 631.494,418.866 631,420.5C 628.908,419.36 626.741,419.36 624.5,420.5C 623.749,419.624 623.249,418.624 623,417.5C 623.009,421.208 623.176,424.708 623.5,428C 622.256,428.456 621.423,427.956 621,426.5C 619.155,429.59 616.822,432.257 614,434.5C 612.16,433.167 611.66,433.334 612.5,435C 610.951,436.214 609.785,437.714 609,439.5C 608.667,439.167 608.333,438.833 608,438.5C 607.71,440.044 607.044,441.377 606,442.5C 604.853,441.542 603.853,441.875 603,443.5C 602.333,442.833 601.667,442.167 601,441.5C 599.983,443.376 599.149,445.376 598.5,447.5C 594.316,445.418 591.649,446.918 590.5,452C 588.226,451.613 586.059,451.446 584,451.5C 582.464,455.046 580.131,458.046 577,460.5C 576.383,461.449 576.549,462.282 577.5,463C 575.527,463.495 573.527,463.662 571.5,463.5C 571.724,461.213 572.391,459.047 573.5,457C 573.37,455.941 572.87,455.108 572,454.5C 571.333,455.833 570.667,455.833 570,454.5C 568.153,457.406 566.986,460.573 566.5,464C 567.623,465.044 568.956,465.71 570.5,466C 570,466.5 569.5,467 569,467.5C 567.732,467.384 566.398,467.051 565,466.5C 563.54,468.422 561.873,469.089 560,468.5C 559.333,465.833 558.667,465.833 558,468.5C 557.333,465.833 556.667,465.833 556,468.5C 555.333,465.833 554.667,465.833 554,468.5C 553.692,467.692 553.192,467.025 552.5,466.5C 552.168,467.789 551.834,469.455 551.5,471.5C 548.833,471.5 546.167,471.5 543.5,471.5C 543.307,475.449 542.807,475.449 542,471.5C 541.667,472.5 541.333,473.5 541,474.5C 538.388,473.946 535.888,474.613 533.5,476.5C 531.577,476.37 529.744,476.036 528,475.5C 527.517,476.448 527.351,477.448 527.5,478.5C 531.172,479.045 530.838,479.378 526.5,479.5C 526.684,473.106 524.351,471.272 519.5,474C 519.854,475.626 519.854,477.459 519.5,479.5C 516.753,479.813 514.086,479.48 511.5,478.5C 513.278,475.169 512.278,473.502 508.5,473.5C 506.796,474.068 505.296,474.068 504,473.5C 502.615,474.551 501.615,475.884 501,477.5C 500.692,476.692 500.192,476.025 499.5,475.5C 499.704,476.529 499.204,477.529 498,478.5C 496.601,478.499 495.101,478.165 493.5,477.5C 492.808,478.025 492.308,478.692 492,479.5C 491.692,478.692 491.192,478.025 490.5,477.5C 488.93,477.694 487.43,477.694 486,477.5C 485.333,478.167 484.667,478.833 484,479.5C 483,478.167 482,478.167 481,479.5C 480.196,478.196 479.029,477.529 477.5,477.5C 471.452,478.261 465.619,478.261 460,477.5C 459.626,476.584 459.126,475.75 458.5,475C 460.279,475.979 461.945,475.646 463.5,474C 462.584,473.626 461.75,473.126 461,472.5C 457.247,473.006 452.747,473.173 447.5,473C 448.931,473.465 450.097,474.299 451,475.5C 451.667,472.833 452.333,472.833 453,475.5C 453.333,474.833 453.667,474.167 454,473.5C 455.067,474.191 456.234,474.691 457.5,475C 456.299,475.903 455.465,477.069 455,478.5C 449.57,477.992 444.237,476.992 439,475.5C 437.984,476.634 437.317,476.301 437,474.5C 433.761,475.64 430.595,475.64 427.5,474.5C 426.459,476.991 425.626,476.991 425,474.5C 424.026,476.878 423.359,476.544 423,473.5C 420.667,473.833 418.333,474.167 416,474.5C 415.71,472.956 415.044,471.623 414,470.5C 409.102,471.019 404.269,471.352 399.5,471.5C 399.662,469.473 399.495,467.473 399,465.5C 398.346,466.696 397.846,466.696 397.5,465.5C 398.723,463.54 400.056,461.707 401.5,460C 400.181,458.372 398.848,458.539 397.5,460.5C 392.867,456.622 391.701,457.622 394,463.5C 394.925,464.047 395.758,464.713 396.5,465.5C 395.753,465.736 394.92,466.07 394,466.5C 392.447,464.306 390.281,463.14 387.5,463C 385.875,462.147 385.542,461.147 386.5,460C 385.551,459.383 384.718,459.549 384,460.5C 383.333,459.167 383.333,457.833 384,456.5C 385.264,456.64 386.431,456.64 387.5,456.5C 387,456.167 386.5,455.833 386,455.5C 380.4,456.296 374.233,456.296 367.5,455.5C 367.539,453.641 366.706,452.308 365,451.5C 363.333,451.833 361.667,452.167 360,452.5C 359.506,450.866 359.34,449.199 359.5,447.5C 356.956,447.896 354.789,447.229 353,445.5C 352.667,445.833 352.333,446.167 352,446.5C 351.138,444.913 350.471,443.246 350,441.5C 348.165,442.119 345.999,442.286 343.5,442C 343.833,439.667 344.167,437.333 344.5,435C 340.119,435.389 336.619,433.889 334,430.5C 332.333,430.833 330.667,431.167 329,431.5C 328.5,431 328,430.5 327.5,430C 328.415,427.895 328.582,425.395 328,422.5C 328.718,423.451 329.551,423.617 330.5,423C 328.625,419.047 327.125,414.88 326,410.5C 324.267,408.398 322.267,408.065 320,409.5C 318.657,405.639 317.157,405.639 315.5,409.5C 314.3,408.469 312.966,407.635 311.5,407C 312.308,406.692 312.975,406.192 313.5,405.5C 309.142,405.406 308.475,403.406 311.5,399.5C 307.874,397.272 306.874,394.272 308.5,390.5C 315.016,396.603 321.349,402.937 327.5,409.5C 328.911,411.914 330.911,413.581 333.5,414.5C 345.081,425.09 357.748,434.09 371.5,441.5C 374.967,443.736 378.634,445.736 382.5,447.5C 386.993,449.912 391.66,452.078 396.5,454C 401.994,455.224 407.328,456.724 412.5,458.5C 415.854,460.258 419.521,461.258 423.5,461.5C 431.265,463.469 439.265,464.803 447.5,465.5C 455.278,467.001 463.278,467.668 471.5,467.5C 477.011,467.499 482.344,467.166 487.5,466.5C 490.167,466.5 492.833,466.5 495.5,466.5C 504.011,466.532 512.011,464.866 519.5,461.5C 538.215,457.099 556.215,450.765 573.5,442.5C 576.587,442.253 579.42,441.253 582,439.5C 583.067,441.283 584.567,441.783 586.5,441C 585.529,439.796 584.529,439.296 583.5,439.5C 585.521,438.145 587.188,436.479 588.5,434.5C 590.848,434.408 592.514,433.408 593.5,431.5C 601.129,426.533 608.462,421.199 615.5,415.5C 619.02,414.647 621.687,412.647 623.5,409.5C 627.682,404.93 632.016,400.597 636.5,396.5C 638.716,395.797 640.549,394.464 642,392.5C 642.333,392.833 642.667,393.167 643,393.5C 645.501,390.047 647.668,386.381 649.5,382.5C 651.232,380.629 653.398,379.296 656,378.5C 656.972,374.564 658.472,370.897 660.5,367.5C 662.17,364.825 663.836,362.159 665.5,359.5C 667.822,358.198 669.155,356.198 669.5,353.5C 671.136,351.109 672.303,348.442 673,345.5C 673.708,344.619 674.542,343.953 675.5,343.5 Z"/></g>
<g><path style="opacity:1" fill="#5787a8" d="M 623.5,409.5 C 621.687,412.647 619.02,414.647 615.5,415.5C 617.878,413.122 620.545,411.122 623.5,409.5 Z"/></g>
<g><path style="opacity:1" fill="#dbf0f8" d="M 499.5,409.5 C 499.5,409.833 499.5,410.167 499.5,410.5C 490.167,411.106 480.834,411.773 471.5,412.5C 464.641,412.264 457.974,411.598 451.5,410.5C 467.511,410.585 483.511,410.252 499.5,409.5 Z"/></g>
<g><path style="opacity:1" fill="#93bbd3" d="M 327.5,409.5 C 330.089,410.419 332.089,412.086 333.5,414.5C 330.911,413.581 328.911,411.914 327.5,409.5 Z"/></g>
<g><path style="opacity:1" fill="#8ab4cd" d="M 421.5,404.5 C 424.152,404.41 426.485,405.076 428.5,406.5C 425.848,406.59 423.515,405.924 421.5,404.5 Z"/></g>
<g><path style="opacity:1" fill="#598fae" d="M 537.5,399.5 C 531.372,403.798 524.372,406.131 516.5,406.5C 523.517,404.383 530.517,402.05 537.5,399.5 Z"/></g>
<g><path style="opacity:1" fill="#36779a" d="M 432.5,407.5 C 438.757,408.908 445.091,409.908 451.5,410.5C 457.974,411.598 464.641,412.264 471.5,412.5C 480.834,411.773 490.167,411.106 499.5,410.5C 499.389,411.117 499.056,411.617 498.5,412C 476.654,414.687 454.988,413.687 433.5,409C 432.944,408.617 432.611,408.117 432.5,407.5 Z"/></g>
<g><path style="opacity:1" fill="#5c92b3" d="M 593.5,431.5 C 592.514,433.408 590.848,434.408 588.5,434.5C 589.659,432.75 591.326,431.75 593.5,431.5 Z"/></g>
<g><path style="opacity:1" fill="#d4ebf5" d="M 527.5,434.5 C 524.788,435.359 522.122,436.525 519.5,438C 513.769,438.21 508.103,438.876 502.5,440C 491.992,440.825 481.658,440.659 471.5,439.5C 480.506,439.666 489.506,439.5 498.5,439C 503.047,438.571 507.381,437.738 511.5,436.5C 516.807,435.67 522.141,435.003 527.5,434.5 Z"/></g>
<g><path style="opacity:1" fill="#366d98" d="M 588.5,434.5 C 587.188,436.479 585.521,438.145 583.5,439.5C 584.529,439.296 585.529,439.796 586.5,441C 584.567,441.783 583.067,441.283 582,439.5C 579.42,441.253 576.587,442.253 573.5,442.5C 578.333,439.582 583.333,436.916 588.5,434.5 Z"/></g>
<g><path style="opacity:1" fill="#b5d3e3" d="M 371.5,441.5 C 376.534,441.331 380.2,443.331 382.5,447.5C 378.634,445.736 374.967,443.736 371.5,441.5 Z"/></g>
<g><path style="opacity:1" fill="#9ac2d9" d="M 623.5,446.5 C 621.2,448.984 618.533,450.984 615.5,452.5C 615.5,452.167 615.5,451.833 615.5,451.5C 617.858,449.322 620.525,447.655 623.5,446.5 Z"/></g>
<g><path style="opacity:1" fill="#215683" d="M 615.5,451.5 C 615.5,451.833 615.5,452.167 615.5,452.5C 613.021,454.539 610.354,456.206 607.5,457.5C 605.147,458.34 603.147,459.674 601.5,461.5C 595.27,464.391 589.27,467.725 583.5,471.5C 584.282,469.549 585.616,468.049 587.5,467C 594.419,464.295 600.585,460.462 606,455.5C 609.666,454.981 612.833,453.647 615.5,451.5 Z"/></g>
<g><path style="opacity:1" fill="#98bfd7" d="M 412.5,458.5 C 416.479,458.742 420.146,459.742 423.5,461.5C 419.521,461.258 415.854,460.258 412.5,458.5 Z"/></g>
<g><path style="opacity:1" fill="#86b1ca" d="M 607.5,457.5 C 606.198,459.822 604.198,461.155 601.5,461.5C 603.147,459.674 605.147,458.34 607.5,457.5 Z"/></g>
<g><path style="opacity:1" fill="#b0d3e7" d="M 500.5,464.5 C 498.833,465.167 497.167,465.833 495.5,466.5C 492.833,466.5 490.167,466.5 487.5,466.5C 484.833,466.5 482.167,466.5 479.5,466.5C 486.317,465.435 493.317,464.768 500.5,464.5 Z"/></g>
<g><path style="opacity:1" fill="#356c92" d="M 519.5,461.5 C 512.011,464.866 504.011,466.532 495.5,466.5C 497.167,465.833 498.833,465.167 500.5,464.5C 506.89,463.824 513.223,462.824 519.5,461.5 Z"/></g>
<g><path style="opacity:1" fill="#72a1bc" d="M 447.5,465.5 C 458.156,466.099 468.823,466.433 479.5,466.5C 482.167,466.5 484.833,466.5 487.5,466.5C 482.344,467.166 477.011,467.499 471.5,467.5C 463.278,467.668 455.278,467.001 447.5,465.5 Z"/></g>
<g><path style="opacity:1" fill="#cde3ed" d="M 373.5,479.5 C 379.086,479.834 384.086,481.501 388.5,484.5C 382.608,484.861 377.274,483.361 372.5,480C 372.728,479.601 373.062,479.435 373.5,479.5 Z"/></g>
<g><path style="opacity:1" fill="#87b0cb" d="M 559.5,482.5 C 556.061,484.204 552.395,485.538 548.5,486.5C 551.626,484.01 555.292,482.677 559.5,482.5 Z"/></g>
<g><path style="opacity:1" fill="#2e5f89" d="M 396.5,486.5 C 402.802,486.547 408.468,488.214 413.5,491.5C 407.325,491.207 401.658,489.541 396.5,486.5 Z"/></g>
<g><path style="opacity:1" fill="#9ac1d8" d="M 541.5,488.5 C 539.162,490.04 536.495,490.706 533.5,490.5C 535.905,489.232 538.572,488.565 541.5,488.5 Z"/></g>
<g><path style="opacity:1" fill="#91bad2" d="M 533.5,490.5 C 531.162,492.04 528.495,492.706 525.5,492.5C 527.905,491.232 530.572,490.565 533.5,490.5 Z"/></g>
<g><path style="opacity:1" fill="#72a1bc" d="M 442.5,496.5 C 455.817,497.306 469.15,497.639 482.5,497.5C 477.177,498.166 471.677,498.499 466,498.5C 457.94,498.693 450.107,498.027 442.5,496.5 Z"/></g>
<g><path style="opacity:1" fill="#adadad" d="M 240.5,550.5 C 252.969,548.686 261.803,553.353 267,564.5C 267.667,575.167 267.667,585.833 267,596.5C 265.689,602.283 262.522,606.783 257.5,610C 249.555,611.488 241.555,611.822 233.5,611C 226.333,609.167 221.833,604.667 220,597.5C 219.113,585.784 219.446,574.117 221,562.5C 225.279,554.782 231.779,550.782 240.5,550.5 Z"/></g>
<g><path style="opacity:1" fill="#aeaeae" d="M 317.5,551.5 C 329.229,551.088 340.896,551.588 352.5,553C 357.667,555.5 361.5,559.333 364,564.5C 367.938,578.072 363.772,587.906 351.5,594C 344.833,594.333 338.167,594.667 331.5,595C 330.527,600.407 330.193,605.907 330.5,611.5C 326.167,611.5 321.833,611.5 317.5,611.5C 317.5,591.5 317.5,571.5 317.5,551.5 Z"/></g>
<g><path style="opacity:1" fill="#adadad" d="M 401.5,551.5 C 417.167,551.5 432.833,551.5 448.5,551.5C 448.5,555.167 448.5,558.833 448.5,562.5C 442.575,562.192 436.741,562.525 431,563.5C 430.5,579.497 430.333,595.497 430.5,611.5C 425.968,611.931 421.635,611.431 417.5,610C 418.657,594.574 418.824,579.074 418,563.5C 412.259,562.525 406.425,562.192 400.5,562.5C 401.398,558.695 401.731,555.028 401.5,551.5 Z"/></g>
<g><path style="opacity:1" fill="#afafaf" d="M 493.5,551.5 C 497.833,551.5 502.167,551.5 506.5,551.5C 506.167,566.515 506.501,581.515 507.5,596.5C 509.905,599.555 513.072,601.222 517,601.5C 521.328,601.28 524.994,599.613 528,596.5C 529.434,581.558 529.934,566.558 529.5,551.5C 533.833,551.5 538.167,551.5 542.5,551.5C 542.904,567.543 542.404,583.543 541,599.5C 535.9,608.708 528.067,612.708 517.5,611.5C 507.076,612.897 499.576,608.897 495,599.5C 493.546,583.571 493.046,567.571 493.5,551.5 Z"/></g>
<g><path style="opacity:1" fill="#aeaeae" d="M 593.5,551.5 C 597.884,551.174 602.217,551.508 606.5,552.5C 614.014,565.532 621.514,578.532 629,591.5C 628.91,578.24 629.076,564.907 629.5,551.5C 633.5,551.5 637.5,551.5 641.5,551.5C 641.5,571.5 641.5,591.5 641.5,611.5C 637.154,611.666 632.821,611.499 628.5,611C 628,610.5 627.5,610 627,609.5C 619.525,596.774 611.858,584.107 604,571.5C 604.332,584.81 604.499,598.144 604.5,611.5C 600.5,611.5 596.5,611.5 592.5,611.5C 592.19,591.837 592.524,571.837 593.5,551.5 Z"/></g>
<g><path style="opacity:1" fill="#adadad" d="M 714.5,550.5 C 724.88,549.606 732.713,553.606 738,562.5C 739.455,578.763 739.955,595.096 739.5,611.5C 735.5,611.5 731.5,611.5 727.5,611.5C 727.829,605.463 727.496,599.463 726.5,593.5C 719.321,592.491 711.988,592.491 704.5,593.5C 704.5,599.5 704.5,605.5 704.5,611.5C 700.5,611.5 696.5,611.5 692.5,611.5C 691.401,596.859 691.234,582.192 692,567.5C 692.958,561.737 695.791,557.237 700.5,554C 705.091,552.222 709.757,551.055 714.5,550.5 Z"/></g>
<g><path style="opacity:1" fill="#fbfbfb" d="M 711.5,561.5 C 725.809,561.276 731.142,568.276 727.5,582.5C 719.5,582.5 711.5,582.5 703.5,582.5C 703.175,577.401 703.675,572.401 705,567.5C 706.494,564.686 708.66,562.686 711.5,561.5 Z"/></g>
<g><path style="opacity:1" fill="#fdfdfd" d="M 238.5,561.5 C 245.331,560.051 250.831,562.051 255,567.5C 255.667,576.5 255.667,585.5 255,594.5C 252.533,598.987 248.7,601.321 243.5,601.5C 240.436,600.879 237.436,600.045 234.5,599C 232.996,597.509 232.163,595.676 232,593.5C 231.083,584.091 231.416,574.758 233,565.5C 234.812,564.023 236.645,562.69 238.5,561.5 Z"/></g>
<g><path style="opacity:1" fill="#fbfbfb" d="M 329.5,562.5 C 336.721,561.886 343.721,562.719 350.5,565C 352.496,569.271 352.996,573.771 352,578.5C 351.167,580.667 349.667,582.167 347.5,583C 341.509,583.499 335.509,583.666 329.5,583.5C 329.5,576.5 329.5,569.5 329.5,562.5 Z"/></g>
</svg>
