<svg xmlns="http://www.w3.org/2000/svg" xmlns:xlink="http://www.w3.org/1999/xlink" viewBox="0 0 81 81" fill="#fff" fill-rule="evenodd" stroke="#000" stroke-linecap="round" stroke-linejoin="round"><use xlink:href="#A" x=".5" y=".5"/><symbol id="A" overflow="visible"><g fill="#0072c6" stroke="none"><path d="M26.33 31.157l-8.077-6.538C14.8 29.56 13.234 35.32 13.467 40.99l10.327-1.086c0-3.024.834-6.061 2.536-8.747m22.59-5.11l6.54-8.078c-4.944-3.45-10.709-5.008-16.381-4.771l1.086 10.325a16.33 16.33 0 0 1 8.755 2.525"/><path d="M36.565 23.93l-1.088-10.336a26.64 26.64 0 0 0-14.957 8.197l8.07 6.534c2.248-2.254 5.029-3.731 7.975-4.395M24.193 43.502l-10.336 1.091c.992 5.587 3.752 10.882 8.194 14.971l6.533-8.07a16.3 16.3 0 0 1-4.39-7.992m34.094-23.267l-6.534 8.072c1.613 1.604 2.815 3.485 3.623 5.499h10.84a26.6 26.6 0 0 0-7.928-13.571zm12.53 19.73c-.01-1.885-1.533-3.394-3.41-3.394l-.006-.008-.994.008H55.712 43.55c-.014-.013-.019.011-.03 0-.912-.904-2.102-1.301-3.291-1.301a4.67 4.67 0 0 0-3.326 1.386c-1.818 1.832-1.806 4.792.029 6.61a4.65 4.65 0 0 0 3.283 1.352c1.101 0 2.197-.477 3.076-1.246h24.136a3.4 3.4 0 0 0 3.389-3.398h.003zM40 6.72c18.35 0 33.28 14.93 33.28 33.28S58.35 73.28 40 73.28 6.72 58.35 6.72 40 21.65 6.72 40 6.72M40 0C17.909 0 0 17.909 0 40s17.909 40 40 40 40-17.909 40-40S62.091 0 40 0h0z"/></g></symbol></svg>