<?xml version="1.0" encoding="UTF-8" standalone="no"?>
<svg
   viewBox="0 0 81 81"
   fill="#fff"
   fill-rule="evenodd"
   stroke="#000"
   stroke-linecap="round"
   stroke-linejoin="round"
   version="1.1"
   id="svg2"
   sodipodi:docname="rmonitor.svg"
   inkscape:version="1.4.3 (0d15f75, 2025-12-25)"
   xmlns:inkscape="http://www.inkscape.org/namespaces/inkscape"
   xmlns:sodipodi="http://sodipodi.sourceforge.net/DTD/sodipodi-0.dtd"
   xmlns:xlink="http://www.w3.org/1999/xlink"
   xmlns="http://www.w3.org/2000/svg"
   xmlns:svg="http://www.w3.org/2000/svg">
  <defs
     id="defs2" />
  <sodipodi:namedview
     id="namedview2"
     pagecolor="#ffffff"
     bordercolor="#000000"
     borderopacity="0.25"
     inkscape:showpageshadow="2"
     inkscape:pageopacity="0.0"
     inkscape:pagecheckerboard="0"
     inkscape:deskcolor="#d1d1d1"
     inkscape:zoom="14.975309"
     inkscape:cx="40.499999"
     inkscape:cy="40.566776"
     inkscape:window-width="2560"
     inkscape:window-height="1494"
     inkscape:window-x="-11"
     inkscape:window-y="-11"
     inkscape:window-maximized="1"
     inkscape:current-layer="svg2" />
  <use
     xlink:href="#A"
     x="0.5"
     y="0.5"
     id="use1"
     transform="matrix(0.88981863,0,0,0.86895095,4.2620156,4.4727796)"
     style="fill:#0000ff" />
  <symbol
     id="A"
     overflow="visible">
    <g
       stroke="none"
       id="g2">
      <!-- Gauge arc segments (clockwise from bottom-left) -->
      <!-- Bottom-left: low/idle zone - purple -->
      <path
         fill="#8b5cf6"
         d="M24.193 43.502l-10.336 1.091c.992 5.587 3.752 10.882 8.194 14.971l6.533-8.07a16.3 16.3 0 0 1-4.39-7.992"
         id="arc-low" />
      <!-- Left: good zone - green -->
      <path
         fill="#10b981"
         d="M26.33 31.157l-8.077-6.538C14.8 29.56 13.234 35.32 13.467 40.99l10.327-1.086c0-3.024.834-6.061 2.536-8.747"
         id="arc-good" />
      <!-- Top-left: normal zone - teal -->
      <path
         fill="#06b6d4"
         d="M36.565 23.93l-1.088-10.336a26.64 26.64 0 0 0-14.957 8.197l8.07 6.534c2.248-2.254 5.029-3.731 7.975-4.395"
         id="arc-normal" />
      <!-- Top-right: warning zone - amber -->
      <path
         fill="#f59e0b"
         d="M48.92 26.047l6.54-8.078c-4.944-3.45-10.709-5.008-16.381-4.771l1.086 10.325a16.33 16.33 0 0 1 8.755 2.525"
         id="arc-warning" />
      <!-- Right: critical zone - red -->
      <path
         fill="#ef4444"
         d="M58.287 20.235l-6.534 8.072c1.613 1.604 2.815 3.485 3.623 5.499h10.84a26.6 26.6 0 0 0-7.928-13.571z"
         id="arc-critical" />
      <!-- Needle/pointer - dark gray -->
      <path
         fill="#374151"
         d="M70.817 39.965c-.01-1.885-1.533-3.394-3.41-3.394l-.006-.008-.994.008H55.712 43.55c-.014-.013-.019.011-.03 0-.912-.904-2.102-1.301-3.291-1.301a4.67 4.67 0 0 0-3.326 1.386c-1.818 1.832-1.806 4.792.029 6.61a4.65 4.65 0 0 0 3.283 1.352c1.101 0 2.197-.477 3.076-1.246h24.136a3.4 3.4 0 0 0 3.389-3.398h.003z"
         id="needle"
         style="fill:#008080" />
      <!-- Outer ring and inner circle - blue -->
      <path
         fill="#0072c6"
         d="M40 6.72c18.35 0 33.28 14.93 33.28 33.28S58.35 73.28 40 73.28 6.72 58.35 6.72 40 21.65 6.72 40 6.72M40 0C17.909 0 0 17.909 0 40s17.909 40 40 40 40-17.909 40-40S62.091 0 40 0h0z"
         id="ring" />
    </g>
  </symbol>
</svg>
