<?xml version="1.0" encoding="UTF-8" standalone="no"?>
<svg
   viewBox="0 0 81 81"
   fill="#fff"
   fill-rule="evenodd"
   stroke="#000"
   stroke-linecap="round"
   stroke-linejoin="round"
   version="1.1"
   id="svg2"
   sodipodi:docname="rmonitor.svg"
   inkscape:version="1.4.3 (0d15f75, 2025-12-25)"
   xmlns:inkscape="http://www.inkscape.org/namespaces/inkscape"
   xmlns:sodipodi="http://sodipodi.sourceforge.net/DTD/sodipodi-0.dtd"
   xmlns:xlink="http://www.w3.org/1999/xlink"
   xmlns="http://www.w3.org/2000/svg"
   xmlns:svg="http://www.w3.org/2000/svg">
  <defs
     id="defs2" />
  <sodipodi:namedview
     id="namedview2"
     pagecolor="#ffffff"
     bordercolor="#000000"
     borderopacity="0.25"
     inkscape:showpageshadow="2"
     inkscape:pageopacity="0.0"
     inkscape:pagecheckerboard="0"
     inkscape:deskcolor="#d1d1d1"
     inkscape:zoom="14.975309"
     inkscape:cx="40.499999"
     inkscape:cy="40.633552"
     inkscape:window-width="2560"
     inkscape:window-height="1494"
     inkscape:window-x="-11"
     inkscape:window-y="-11"
     inkscape:window-maximized="1"
     inkscape:current-layer="svg2" />
  <use
     xlink:href="#A"
     x="0.5"
     y="0.5"
     id="use1"
     transform="matrix(0.75626546,0,0,0.75459605,8.6233303,10.012631)"
     style="fill:#94a6df;fill-opacity:1" />
  <symbol
     id="A"
     overflow="visible"
     transform="translate(2.0032976,5.7427863)">
    <g
       stroke="none"
       id="g2">
      <!-- Gauge arc segments (clockwise from bottom-left) -->
      <!-- Bottom-left: low/idle zone - purple -->
      <path
         fill="#8b5cf6"
         d="m 24.193,43.502 -10.336,1.091 c 0.992,5.587 3.752,10.882 8.194,14.971 l 6.533,-8.07 a 16.3,16.3 0 0 1 -4.39,-7.992"
         id="arc-low"
         style="fill:#a39ab8;fill-opacity:1" />
      <!-- Left: good zone - green -->
      <path
         fill="#10b981"
         d="M 26.33,31.157 18.253,24.619 C 14.8,29.56 13.234,35.32 13.467,40.99 l 10.327,-1.086 c 0,-3.024 0.834,-6.061 2.536,-8.747"
         id="arc-good"
         style="fill:#26a378;fill-opacity:1" />
      <!-- Top-left: normal zone - teal -->
      <path
         fill="#06b6d4"
         d="M 36.565,23.93 35.477,13.594 A 26.64,26.64 0 0 0 20.52,21.791 l 8.07,6.534 c 2.248,-2.254 5.029,-3.731 7.975,-4.395"
         id="arc-normal"
         style="fill:#3d8e9d;fill-opacity:1" />
      <!-- Top-right: warning zone - amber -->
      <path
         fill="#f59e0b"
         d="m 48.92,26.047 6.54,-8.078 C 50.516,14.519 44.751,12.961 39.079,13.198 l 1.086,10.325 a 16.33,16.33 0 0 1 8.755,2.525"
         id="arc-warning"
         style="fill:#cc9434;fill-opacity:1" />
      <!-- Right: critical zone - red -->
      <path
         fill="#ef4444"
         d="m 58.287,20.235 -6.534,8.072 c 1.613,1.604 2.815,3.485 3.623,5.499 h 10.84 A 26.6,26.6 0 0 0 58.288,20.235 Z"
         id="arc-critical"
         style="fill:#c46f6f;fill-opacity:1" />
      <!-- Needle/pointer - dark gray -->
      <path
         fill="#374151"
         d="m 70.817,39.965 c -0.01,-1.885 -1.533,-3.394 -3.41,-3.394 l -0.006,-0.008 -0.994,0.008 H 55.712 43.55 c -0.014,-0.013 -0.019,0.011 -0.03,0 -0.912,-0.904 -2.102,-1.301 -3.291,-1.301 a 4.67,4.67 0 0 0 -3.326,1.386 c -1.818,1.832 -1.806,4.792 0.029,6.61 a 4.65,4.65 0 0 0 3.283,1.352 c 1.101,0 2.197,-0.477 3.076,-1.246 h 24.136 a 3.4,3.4 0 0 0 3.389,-3.398 h 0.003 z"
         id="needle"
         style="fill:#008080" />
      <!-- Outer ring and inner circle - blue -->
      <path
         fill="#0072c6"
         d="M 40,6.72 C 58.35,6.72 73.28,21.65 73.28,40 73.28,58.35 58.35,73.28 40,73.28 21.65,73.28 6.72,58.35 6.72,40 6.72,21.65 21.65,6.72 40,6.72 M 40,0 C 17.909,0 0,17.909 0,40 0,62.091 17.909,80 40,80 62.091,80 80,62.091 80,40 80,17.909 62.091,0 40,0 Z"
         id="ring"
         style="fill:#4d98d1;fill-opacity:1" />
    </g>
  </symbol>
</svg>
