<?xml version="1.0" encoding="UTF-8" standalone="no"?>
<svg
   width="927.99969"
   height="928.00146"
   viewBox="0 0 1031.1108 1031.1128"
   fill="none"
   version="1.1"
   id="svg12"
   sodipodi:docname="chainlit.svg"
   inkscape:version="1.4.3 (0d15f75, 2025-12-25)"
   xmlns:inkscape="http://www.inkscape.org/namespaces/inkscape"
   xmlns:sodipodi="http://sodipodi.sourceforge.net/DTD/sodipodi-0.dtd"
   xmlns="http://www.w3.org/2000/svg"
   xmlns:svg="http://www.w3.org/2000/svg">
  <sodipodi:namedview
     id="namedview12"
     pagecolor="#bfbfbf"
     bordercolor="#000000"
     borderopacity="0.25"
     inkscape:showpageshadow="2"
     inkscape:pageopacity="0.0"
     inkscape:pagecheckerboard="0"
     inkscape:deskcolor="#d1d1d1"
     inkscape:zoom="1.2952586"
     inkscape:cx="463.61398"
     inkscape:cy="464"
     inkscape:window-width="2560"
     inkscape:window-height="1494"
     inkscape:window-x="-11"
     inkscape:window-y="-11"
     inkscape:window-maximized="1"
     inkscape:current-layer="svg12" />
  <g
     id="g12"
     transform="matrix(0.85394708,0,0,0.85487174,112.37568,166.41894)">
    <path
       d="m 279.43297,424.31897 c -6.462,-22.369 -18.507,-43.467 -36.135,-61.096 -55.658,-55.657 -145.896895,-55.657 -201.554695,0 -55.6577,55.658 -55.6577,145.897 0,201.55501 17.6287,17.629 38.7266,29.674 61.095705,36.135 11.634,3.707 25.021,6.589 39.622,9.734 48.304,10.401 109.904,23.665 165.334,79.095 0,0 8.06299,-18.14 25.195,-35.272 17.132,-17.132 35.27199,-25.195 35.27199,-25.195 -55.43,-55.429 -68.694,-117.03 -79.096,-165.333 -3.144,-14.602 -6.026,-27.989 -9.733,-39.62301 z"
       fill="url(#paint0_linear_361_1710)"
       id="path1"
       style="fill:url(#paint0_linear_361_1710)" />
    <path
       d="m 648.56697,503.68297 c 6.462,22.36901 18.507,43.46601 36.135,61.09501 55.658,55.658 145.897,55.658 201.555,0 55.65701,-55.65801 55.65701,-145.897 0,-201.555 -17.629,-17.628 -38.72699,-29.673 -61.096,-36.135 -11.634,-3.70601 -25.02099,-6.589 -39.62199,-9.733 -48.304,-10.401 -109.904,-23.666 -165.334,-79.095 0,0 -8.063,18.13899 -25.195,35.272 -17.132,17.132 -35.27201,25.194 -35.27201,25.194 55.43,55.43 68.694,117.03 79.096,165.334 3.14401,14.602 6.026,27.989 9.733,39.62299 z"
       fill="url(#paint1_linear_361_1710)"
       id="path2"
       style="fill:url(#paint1_linear_361_1710)" />
    <path
       d="m 327.08798,102.83897 c 6.462,-22.369395 18.507,-43.467095 36.135,-61.095695 55.658,-55.6577 145.89699,-55.6577 201.55499,0 55.658,55.6578 55.658,145.896705 0,201.554695 -17.629,17.629 -38.727,29.674 -61.09599,36.135 -11.63401,3.707 -25.02,6.589 -39.62201,9.733 -48.304,10.402 -109.904,23.666 -165.334,79.096 0,0 -8.062,-18.13999 -25.194,-35.27199 -17.132,-17.13201 -35.272,-25.195 -35.272,-25.195 55.429,-55.429 68.69401,-117.03 79.09501,-165.333 3.144,-14.602 6.02699,-27.989 9.733,-39.62301 z"
       fill="url(#paint2_linear_361_1710)"
       id="path3"
       style="fill:url(#paint2_linear_361_1710)" />
    <path
       d="m 600.91197,825.16298 c -6.462,22.369 -18.50699,43.466 -36.135,61.095 -55.65799,55.658 -145.89699,55.658 -201.55499,0 -55.658,-55.658 -55.658,-145.897 0,-201.555 17.629,-17.62801 38.727,-29.673 61.096,-36.135 11.634,-3.706 25.02,-6.58901 39.622,-9.733 48.30399,-10.401 109.90399,-23.666 165.334,-79.095 0,0 8.062,18.139 25.194,35.272 17.13199,17.132 35.272,25.194 35.272,25.194 -55.43,55.43 -68.694,117.03 -79.095,165.334 -3.144,14.60199 -6.02701,27.989 -9.73301,39.623 z"
       fill="url(#paint3_linear_361_1710)"
       id="path4"
       style="fill:url(#paint3_linear_361_1710)" />
    <path
       d="m 277.75697,424.80297 c 0.005,0.015 0.009,0.03 0.014,0.045 3.67599,11.538 6.541,24.836 9.69,39.461 l 0.016,0.075 c 10.294,47.804 23.481,109.045 77.827,164.385 -0.291,0.147 -0.608,0.309 -0.949,0.486 -2.003,1.042 -4.846,2.607 -8.227,4.712 -6.758,4.208 -15.689,10.586 -24.372,19.269 -8.683,8.684 -15.061,17.614 -19.269,24.37199 -2.10501,3.381 -3.67,6.22401 -4.712,8.227 -0.177,0.341 -0.339,0.658 -0.486,0.949 -55.341,-54.34599 -116.58201,-67.53299 -164.38501,-77.82599 l -0.075,-0.017 c -14.625,-3.149 -27.922,-6.014 -39.46,-9.69 -0.015,-0.005 -0.03,-0.009 -0.046,-0.014 -22.093105,-6.381 -42.931205,-18.277 -60.346205,-35.692 -54.9766,-54.977 -54.9766,-144.112 0,-199.088 54.9765,-54.977 144.111195,-54.977 199.087195,0 17.415,17.415 29.311,38.253 35.693,60.346 z m 372.486,78.395 c -0.005,-0.015 -0.009,-0.03 -0.014,-0.045 -3.676,-11.538 -6.541,-24.836 -9.69,-39.46 l -0.016,-0.076 c -10.294,-47.803 -23.481,-109.044 -77.827,-164.384 0.291,-0.147 0.608,-0.31 0.949,-0.487 2.003,-1.042 4.846,-2.607 8.227,-4.712 6.758,-4.208 15.689,-10.586 24.372,-19.269 8.683,-8.683 15.061,-17.614 19.269,-24.372 2.105,-3.381 3.67,-6.223 4.712,-8.227 0.177,-0.341 0.339,-0.657 0.486,-0.948 55.341,54.346 116.582,67.533 164.385,77.826 l 0.075,0.016 c 14.625,3.149 27.922,6.014 39.46,9.69 l 0.017,0.006 0.029,0.008 c 22.093,6.382 42.931,18.278 60.346,35.693 54.977,54.976 54.977,144.111 0,199.088 -54.976,54.976 -144.111,54.976 -199.087,0 -17.415,-17.415 -29.311,-38.253 -35.693,-60.347 z m -321.493,-399.82999 c 0.005,-0.015 0.01,-0.03 0.014,-0.045 6.382,-22.093405 18.278,-42.931305 35.69299,-60.346205 54.976,-54.9766 144.111,-54.9766 199.088,0 54.976,54.9765 54.976,144.111195 0,199.087195 -17.415,17.416 -38.254,29.312 -60.347,35.693 -0.015,0.005 -0.031,0.009 -0.046,0.014 -11.53699,3.676 -24.83499,6.541 -39.459,9.69 l -0.076,0.016 c -47.803,10.294 -109.044,23.481 -164.384,77.827 -0.147,-0.291 -0.31,-0.608 -0.487,-0.949 -1.042,-2.003 -2.607,-4.846 -4.712,-8.227 -4.208,-6.758 -10.586,-15.689 -19.269,-24.372 -8.683,-8.683 -17.614,-15.061 -24.372,-19.269 -3.381,-2.105 -6.223,-3.67 -8.227,-4.712 -0.341,-0.177 -0.657,-0.339 -0.948,-0.486 54.346,-55.33999 67.533,-116.581 77.826,-164.38499 l 0.016,-0.075 c 3.149,-14.625 6.014,-27.923 9.69,-39.461 z m 270.5,721.26499 c -0.005,0.015 -0.01,0.03 -0.014,0.045 -6.382,22.094 -18.278,42.932 -35.693,60.346 -54.97599,54.977 -144.11099,54.977 -199.08799,0 -54.976,-54.976 -54.976,-144.111 0,-199.087 17.415,-17.415 38.254,-29.311 60.347,-35.693 0.015,-0.004 0.03,-0.009 0.046,-0.014 11.53699,-3.676 24.83499,-6.541 39.459,-9.69 l 0.076,-0.016 c 47.80299,-10.293 109.04399,-23.48 164.38399,-77.826 0.14701,0.291 0.31,0.607 0.487,0.948 1.042,2.004 2.607,4.846 4.712,8.227 4.208,6.758 10.586,15.689 19.269,24.372 8.683,8.683 17.614,15.061 24.372,19.269 3.381,2.105 6.223,3.67 8.227,4.712 0.341,0.177 0.657,0.34 0.948,0.487 -54.346,55.34 -67.533,116.581 -77.826,164.384 l -0.016,0.076 c -3.149,14.624 -6.014,27.922 -9.69,39.46 z"
       stroke="#000000"
       stroke-opacity="0.1"
       stroke-width="3.48872"
       stroke-linejoin="round"
       id="path5" />
  </g>
  <defs
     id="defs12">
    <linearGradient
       id="paint0_linear_361_1710"
       x1="416.035"
       y1="964.23199"
       x2="393.73401"
       y2="-97.798401"
       gradientUnits="userSpaceOnUse"
       gradientTransform="translate(-2.5e-5,9.75e-4)">
      <stop
         stop-color="#FF004F"
         id="stop5" />
      <stop
         offset="1"
         stop-color="#FF0581"
         id="stop6" />
    </linearGradient>
    <linearGradient
       id="paint1_linear_361_1710"
       x1="416.035"
       y1="964.23199"
       x2="393.73401"
       y2="-97.798401"
       gradientUnits="userSpaceOnUse"
       gradientTransform="translate(-2.5e-5,9.75e-4)">
      <stop
         stop-color="#FF004F"
         id="stop7" />
      <stop
         offset="1"
         stop-color="#FF0581"
         id="stop8" />
    </linearGradient>
    <linearGradient
       id="paint2_linear_361_1710"
       x1="416.035"
       y1="964.23199"
       x2="393.73401"
       y2="-97.798401"
       gradientUnits="userSpaceOnUse"
       gradientTransform="translate(-2.5e-5,9.75e-4)">
      <stop
         stop-color="#FF004F"
         id="stop9" />
      <stop
         offset="1"
         stop-color="#FF0581"
         id="stop10" />
    </linearGradient>
    <linearGradient
       id="paint3_linear_361_1710"
       x1="416.035"
       y1="964.23199"
       x2="393.73401"
       y2="-97.798401"
       gradientUnits="userSpaceOnUse"
       gradientTransform="translate(-2.5e-5,9.75e-4)">
      <stop
         stop-color="#FF004F"
         id="stop11" />
      <stop
         offset="1"
         stop-color="#FF0581"
         id="stop12" />
    </linearGradient>
  </defs>
</svg>
