<?xml version="1.0" encoding="UTF-8" standalone="no"?>
<svg
   height="20.935295"
   style="line-height:1"
   viewBox="0 0 30.003047 26.169119"
   width="24.002438"
   version="1.1"
   id="svg8"
   sodipodi:docname="gradio.svg"
   inkscape:version="1.4.3 (0d15f75, 2025-12-25)"
   xmlns:inkscape="http://www.inkscape.org/namespaces/inkscape"
   xmlns:sodipodi="http://sodipodi.sourceforge.net/DTD/sodipodi-0.dtd"
   xmlns="http://www.w3.org/2000/svg"
   xmlns:svg="http://www.w3.org/2000/svg"
   xmlns:rdf="http://www.w3.org/1999/02/22-rdf-syntax-ns#"
   xmlns:cc="http://creativecommons.org/ns#"
   xmlns:dc="http://purl.org/dc/elements/1.1/">
  <sodipodi:namedview
     id="namedview8"
     pagecolor="#ffffff"
     bordercolor="#000000"
     borderopacity="0.25"
     inkscape:showpageshadow="2"
     inkscape:pageopacity="0.0"
     inkscape:pagecheckerboard="0"
     inkscape:deskcolor="#d1d1d1"
     inkscape:zoom="50.083333"
     inkscape:cx="11.990017"
     inkscape:cy="10.462562"
     inkscape:window-width="2560"
     inkscape:window-height="1494"
     inkscape:window-x="-11"
     inkscape:window-y="-11"
     inkscape:window-maximized="1"
     inkscape:current-layer="svg8" />
  <title
     id="title1">Gradio</title>
  <path
     clip-rule="evenodd"
     d="m 14.070173,10.113283 a 1.532,1.532 0 0 1 1.524,0 l 10.468,6 a 1.532,1.532 0 0 1 0,2.66 l -10.468,6 c -0.472,0.27 -1.052,0.27 -1.524,0 l -10.4679995,-6 a 1.533,1.533 0 0 1 0,-2.66 z m -6.6239995,7.33 7.3859995,4.233 7.386,-4.233 -7.386,-4.234 z"
     fill="url(#lobe-icons-gradio-fill-0)"
     fill-rule="evenodd"
     id="path1"
     style="fill:url(#lobe-icons-gradio-fill-0)" />
  <path
     clip-rule="evenodd"
     d="m 14.070173,4.2432832 a 1.533,1.533 0 0 1 1.524,0 l 10.468,5.9999998 a 1.532,1.532 0 0 1 0,2.659 l -10.468,6 c -0.472,0.27 -1.052,0.27 -1.524,0 l -10.4679995,-6 a 1.532,1.532 0 0 1 0,-2.659 z m -6.6239995,7.3299998 7.3859995,4.233 7.386,-4.233 -7.386,-4.2339998 z"
     fill="url(#lobe-icons-gradio-fill-1)"
     fill-rule="evenodd"
     id="path2"
     style="fill:url(#lobe-icons-gradio-fill-1)" />
  <path
     clip-rule="evenodd"
     d="m 15.616173,12.775283 -10.4929995,5.974 -1.517,-2.664 10.4939995,-5.974 z"
     fill="url(#lobe-icons-gradio-fill-2)"
     fill-rule="evenodd"
     id="path3"
     style="fill:url(#lobe-icons-gradio-fill-2)" />
  <defs
     id="defs8">
    <linearGradient
       gradientUnits="userSpaceOnUse"
       id="lobe-icons-gradio-fill-0"
       x1="0.182"
       x2="19.377001"
       y1="14.907"
       y2="14.907"
       gradientTransform="translate(2.8321735,2.5102832)">
      <stop
         stop-color="#F9D100"
         id="stop3" />
      <stop
         offset="1"
         stop-color="#F97700"
         id="stop4" />
    </linearGradient>
    <linearGradient
       gradientUnits="userSpaceOnUse"
       id="lobe-icons-gradio-fill-1"
       x1="23.74"
       x2="4.5190001"
       y1="9.0369997"
       y2="9.0369997"
       gradientTransform="translate(2.8321735,2.5102832)">
      <stop
         stop-color="#F9D100"
         id="stop5" />
      <stop
         offset="1"
         stop-color="#F97700"
         id="stop6" />
    </linearGradient>
    <linearGradient
       gradientUnits="userSpaceOnUse"
       id="lobe-icons-gradio-fill-2"
       x1="0.182"
       x2="19.35"
       y1="14.907"
       y2="14.793"
       gradientTransform="translate(2.8321735,2.5102832)">
      <stop
         stop-color="#F9D100"
         id="stop7" />
      <stop
         offset="1"
         stop-color="#F97700"
         id="stop8" />
    </linearGradient>
  </defs>
  <metadata
     id="metadata8">
    <rdf:RDF>
      <cc:Work
         rdf:about="">
        <dc:title>Gradio</dc:title>
      </cc:Work>
    </rdf:RDF>
  </metadata>
</svg>
