<?xml version="1.0" encoding="UTF-8" standalone="no"?>
<svg
   height="20.935295"
   style="line-height:1"
   viewBox="0 0 30.003047 26.169119"
   width="24.002438"
   version="1.1"
   id="svg8"
   xmlns="http://www.w3.org/2000/svg">
  <title id="title1">Gradio</title>
  <path
     clip-rule="evenodd"
     d="m 14.070173,10.113283 a 1.532,1.532 0 0 1 1.524,0 l 10.468,6 a 1.532,1.532 0 0 1 0,2.66 l -10.468,6 c -0.472,0.27 -1.052,0.27 -1.524,0 l -10.4679995,-6 a 1.533,1.533 0 0 1 0,-2.66 z m -6.6239995,7.33 7.3859995,4.233 7.386,-4.233 -7.386,-4.234 z"
     fill="#F9A800"
     fill-rule="evenodd"
     id="path1" />
  <path
     clip-rule="evenodd"
     d="m 14.070173,4.2432832 a 1.533,1.533 0 0 1 1.524,0 l 10.468,5.9999998 a 1.532,1.532 0 0 1 0,2.659 l -10.468,6 c -0.472,0.27 -1.052,0.27 -1.524,0 l -10.4679995,-6 a 1.532,1.532 0 0 1 0,-2.659 z m -6.6239995,7.3299998 7.3859995,4.233 7.386,-4.233 -7.386,-4.2339998 z"
     fill="#F9B800"
     fill-rule="evenodd"
     id="path2" />
  <path
     clip-rule="evenodd"
     d="m 15.616173,12.775283 -10.4929995,5.974 -1.517,-2.664 10.4939995,-5.974 z"
     fill="#F98800"
     fill-rule="evenodd"
     id="path3" />
</svg>
