<?xml version="1.0" encoding="UTF-8" standalone="no"?>
<svg
   version="1.0"
   width="371.80225pt"
   height="414.40201pt"
   viewBox="0 0 371.80228 414.40188"
   preserveAspectRatio="xMidYMid"
   id="svg10"
   sodipodi:docname="optuna.svg"
   inkscape:version="1.4.3 (0d15f75, 2025-12-25)"
   xmlns:inkscape="http://www.inkscape.org/namespaces/inkscape"
   xmlns:sodipodi="http://sodipodi.sourceforge.net/DTD/sodipodi-0.dtd"
   xmlns="http://www.w3.org/2000/svg"
   xmlns:svg="http://www.w3.org/2000/svg">
  <defs
     id="defs10" />
  <sodipodi:namedview
     id="namedview10"
     pagecolor="#ffffff"
     bordercolor="#000000"
     borderopacity="0.25"
     inkscape:showpageshadow="2"
     inkscape:pageopacity="0.0"
     inkscape:pagecheckerboard="0"
     inkscape:deskcolor="#d1d1d1"
     inkscape:document-units="pt"
     inkscape:zoom="0.80411299"
     inkscape:cx="247.47766"
     inkscape:cy="302.81814"
     inkscape:window-width="2560"
     inkscape:window-height="1494"
     inkscape:window-x="-11"
     inkscape:window-y="-11"
     inkscape:window-maximized="1"
     inkscape:current-layer="svg10" />
  <g
     transform="matrix(0.066667,0,0,-0.066667,-111.40028,457.16747)"
     fill="#000000"
     stroke="none"
     id="g10">
    <path
       d="M 4215,5694 C 1976,5293 1402,2554 3353,1579 c 1578,-789 3421,357 3418,2126 -2,1000 -616,1736 -1648,1973 -146,34 -750,44 -908,16 z m 821,-322 c 1520,-336 2009,-2006 912,-3114 -864,-872 -2262,-844 -3029,60 -959,1132 -424,2650 1069,3030 292,74 772,85 1048,24 z"
       id="path1"
       style="fill:#2360b1;fill-opacity:1" />
    <path
       d="M 4268,5129 C 2922,4946 2203,3609 2937,2655 3741,1610 5309,1621 6007,2675 6802,3876 5769,5333 4268,5129 Z m 667,-259 C 5786,4618 6175,3756 5798,2959 5349,2012 4000,1835 3325,2634 c -690,816 -102,2092 1048,2276 122,20 436,-3 562,-40 z"
       id="path2"
       style="fill:#366eb4;fill-opacity:1" />
    <path
       d="M 4290,4545 C 3383,4390 2985,3463 3568,2860 c 702,-727 1904,-404 2057,553 109,680 -576,1261 -1335,1132 z m 484,-344 c 736,-188 664,-1167 -102,-1389 -514,-150 -1063,266 -984,744 74,447 611,766 1086,645 z"
       id="path3"
       style="fill:#4094c8;fill-opacity:1" />
    <path
       d="m 4414,3893 c -268,-84 -427,-340 -336,-542 170,-372 858,-213 899,208 24,250 -271,425 -563,334 z m 217,-241 c 91,-103 -5,-281 -150,-281 -161,0 -177,232 -22,310 62,31 129,20 172,-29 z"
       id="path4"
       style="fill:#2da1d2;fill-opacity:1" />
  </g>
</svg>
