<?xml version="1.0" encoding="UTF-8" standalone="no"?>
<!-- Generator: Adobe Illustrator 26.5.0, SVG Export Plug-In . SVG Version: 6.00 Build 0)  -->

<svg
   version="1.1"
   id="Layer_1"
   x="0px"
   y="0px"
   viewBox="0 0 2106.1523 1430.2026"
   xml:space="preserve"
   sodipodi:docname="shiny.svg"
   width="2106.1523"
   height="1430.2026"
   inkscape:version="1.4.3 (0d15f75, 2025-12-25)"
   xmlns:inkscape="http://www.inkscape.org/namespaces/inkscape"
   xmlns:sodipodi="http://sodipodi.sourceforge.net/DTD/sodipodi-0.dtd"
   xmlns="http://www.w3.org/2000/svg"
   xmlns:svg="http://www.w3.org/2000/svg"><defs
   id="defs7" /><sodipodi:namedview
   id="namedview7"
   pagecolor="#505050"
   bordercolor="#eeeeee"
   borderopacity="1"
   inkscape:showpageshadow="0"
   inkscape:pageopacity="0"
   inkscape:pagecheckerboard="0"
   inkscape:deskcolor="#505050"
   inkscape:zoom="0.46375816"
   inkscape:cx="1055.507"
   inkscape:cy="672.76444"
   inkscape:window-width="2880"
   inkscape:window-height="1676"
   inkscape:window-x="-12"
   inkscape:window-y="-12"
   inkscape:window-maximized="1"
   inkscape:current-layer="Layer_1_00000016797738894439544970000003318810302168151739_" />
<style
   type="text/css"
   id="style1">
	.st0{fill:#0088DA;}
	.st1{fill:#E2B058;}
	.st2{opacity:0.9;fill:#FFFFFF;enable-background:new    ;}
	.st3{fill:none;}
	.st4{opacity:0.25;fill:url(#SVGID_1_);enable-background:new    ;}
	.st5{fill:#0078BE;}
</style>
<g
   id="Layer_1_00000016797738894439544970000003318810302168151739_"
   transform="translate(-204.84761,-782.41903)">
	<g
   id="g7">
		
		
		<path
   class="st2"
   d="m 423.8,1568 v 0 c -11.3,-0.3 -3.8,0 0,0 z m -0.3,0 c -11,-0.3 -6.2,0 -2.4,0 h 5.8 -0.3 -3.1 c 2.4,0 3.4,0.4 0,0 z m 284.4,-167.4 c 23.6,-91.5 -87.4,-213.4 -96.6,-225 -0.1,-0.1 -0.2,-0.2 -0.3,-0.4 -133.2,-136.3 -64.7,-272.4 28.3,-257.4 66.9,11 32.3,109.1 68.3,118.7 h 0.7 c 21.6,2.1 63.8,-49.8 70,-67.3 24,-67.9 -114.6,-109.5 -156.8,-106.7 -84.7,5.1 -140.3,51.1 -174.3,127 -62.4,139.6 54.2,232.6 124.9,328.4 53.5,72.4 51.1,136.9 -14.4,199 -72,68.3 -145.2,-28.5 -154.8,-94.7 -8.6,-60.7 -18.5,-100.2 -69.3,-23 -47,71.7 18.5,159.7 77.7,169 14,1 234.4,49.3 296.6,-167.6 z m 920.5,383.9 c -325.2,29.5 -803.9,73.4 -904.7,425.5 -0.7,2.1 -2.4,3.1 -4.5,2.4 -1,-0.3 -1.7,-0.7 -2.1,-1.7 C 618.3,2041.9 406,1918 209,1923.9 c -2.1,0.3 -3.8,-0.7 -4.1,-2.7 -0.3,-2 0.7,-3.8 2.7,-4.1 507.1,-251.8 1025.1,-131.1 1572.7,-228.9 229.5,-60.1 372.1,-167.2 449.6,-349.4 12.9,-22.2 12.2,-56.5 -23.5,-32.1 -55.2,37.4 -106.1,91.6 -166.1,120.8 -2.7,1.4 -5.8,2.7 -8.9,3.8 -1,0.3 -1.7,1.4 -2.1,2.4 -173.9,396.8 -657.8,69.7 -89.9,-13 1.4,-0.3 2.4,-1.4 2.4,-2.4 l 32,-104 c 0.7,-2.1 -0.7,-3.8 -2.4,-4.5 -1.4,-0.3 -3.1,0.3 -3.8,1.4 -13,19.2 -27.4,37.4 -42.9,54.6 -20.2,21.3 -36,34.3 -48,39.1 -13.7,5.1 -28.1,8.2 -42.5,8.9 -17.2,1 -31.9,-5.8 -43.2,-20.2 -11.3,-14.4 -17.5,-35.7 -18.9,-63.8 -0.3,-4.5 -0.3,-9.6 0,-15.1 0.3,-2.1 -0.7,-3.8 -2.4,-4.5 -2.1,-0.3 -3.8,0.7 -4.5,2.4 -5.5,10.6 -11,20.6 -16.5,29.5 -16.1,28.1 -36.4,53.9 -59.4,76.9 -22.6,22.6 -44.6,34.7 -64.8,36 -38.1,2.4 -58.7,-19.2 -61.4,-64.5 -2.7,-43.2 14.4,-132.1 51.5,-264.5 2.1,-5.8 2.7,-12 2.4,-17.8 -0.7,-12 -7.5,-16.8 -21.6,-15.8 -16.1,1.4 -31.6,7.9 -44.3,18.5 -15.8,13.4 -28.8,29.9 -38.1,48.4 -11.3,20.6 -21.3,41.9 -30.5,63.5 -9.6,23.7 -17.5,48.4 -23.7,73.4 -6.9,27.8 -12.7,51.1 -16.5,69.3 -4.1,18.9 -7.9,38.8 -11.7,59.4 -2.7,14.4 -5.8,32.3 -6.5,35 l -0.7,2.7 c 0,0 -93.5,6.5 -94.3,6.2 -2,-16.8 16.7,-80.9 18.7,-90.6 -17.1,29.9 -23.8,39.4 -37.6,57.7 -8.9,11.3 -18.6,22.1 -28.8,32.3 -22.6,22.6 -44.6,34.7 -64.8,36 -1.4,0 -2.7,0 -4.1,0 -33.3,0 -52.1,-26.1 -55.2,-77.5 -0.7,-10.3 -1,-20.6 -0.7,-31.2 0.3,-2.1 -0.7,-3.8 -2.4,-4.5 -2.1,-0.3 -3.8,0.7 -4.5,2.4 -51.8,95 -98.5,143.1 -141.7,145.8 -38.1,2.4 -58.7,-20.2 -61.8,-67.6 -3.4,-52.5 11,-129.4 42.9,-228.2 6.9,-24.4 9.9,-41.2 9.3,-50.1 -1,-13.7 -7.2,-15.4 -12.4,-15.4 h -1.4 c -4.5,0.3 -14.1,3.1 -34.3,15.8 -17.8,11.7 -33.3,26.1 -46,42.9 -14.8,19.2 -26.4,40.8 -35,63.5 -8.9,24 -16.1,44.9 -21.3,62.4 -5.2,17.5 -10.3,39.1 -15.4,63.8 -5.1,24.7 -9.6,46 -13.7,61.8 -4.1,15.8 -8.2,34 -12.4,54.9 l -0.7,2.7 -90.6,5.8 c -2.1,0 -3.8,-1.4 -3.8,-3.4 0,-0.3 0,-0.7 0,-1.4 v 0 c 13.4,-46.3 32.3,-121.5 56.3,-223 24,-101.6 46,-182.9 63.8,-241.2 15.4,-50.8 33.6,-100.9 54.9,-149.3 16.5,-37.7 38.8,-73.1 65.9,-104.3 25.7,-28.8 54.6,-44.3 85.1,-46.3 32.3,-2.1 49.4,14.1 51.8,47.4 1.4,22.3 -5.1,52.2 -19.2,89.6 -25.7,66.2 -68.6,143.4 -128,229.5 -1.4,1.4 -1.4,3.8 0,5.1 1.4,1.3 3.8,1.4 5.1,0 10.3,-7.9 21.3,-15.1 32.9,-20.9 17.2,-8.9 36,-14.1 55.6,-15.8 36.7,-2.4 56.3,14.4 58.7,49.8 1,13 -0.3,26.1 -4.1,38.4 -3.4,11.3 -7.2,24.7 -11.7,39.5 -4.1,14.8 -7.5,27.1 -10.3,36.4 -2.7,9.6 -6.2,22.3 -10.6,38.4 -4.5,16.1 -7.9,30.2 -9.9,41.2 -6.2,27.8 -8.6,50.1 -7.5,66.2 1.4,20.6 9.6,20.6 12.4,20.6 h 1 c 34.7,-2.1 75.5,-62.4 121.8,-179.1 0.3,-0.7 0.3,-1 0.7,-1.7 10.6,-38.4 24,-76.2 40.1,-112.5 19.2,-42.2 42.5,-64.5 70,-66.2 l 54.9,-2.7 c 2.1,0 3.8,1.4 3.8,3.4 0,1 -0.3,2.1 -1,2.7 v 0 c -8.6,8.2 -19.9,30.2 -33.6,65.5 -14.4,38.1 -24.4,64.2 -30.9,81.7 -6.5,18.2 -14.1,42.9 -22,73.8 -7.9,30.9 -11.3,55.6 -9.9,74.1 1.7,24.4 11,24.4 14.1,24.4 h 1 c 4.8,-0.3 13.7,-3.8 29.8,-18.5 12.4,-11.3 23,-24 31.9,-38.1 8.2,-13.4 17.2,-30.2 27.1,-50.8 9.9,-20.6 18.5,-38.4 25.7,-53.5 7.9,-16.1 11,-21.6 13,-23.7 l 4.5,-8.2 c 16.8,-67.9 24.7,-115.6 23,-142.1 0,-4.5 -1,-8.9 -3.1,-13 v 0 c -1,-1.4 -1,-3.8 0.7,-4.8 0.7,-0.3 1.4,-0.7 2.1,-0.7 l 38.1,-2.4 c 22.3,-1.4 36.4,0 43.6,4.8 7.2,4.8 11.7,12.7 12,20.9 0,8.2 -0.7,16.8 -2.4,25 -0.3,2.1 1,3.8 3.1,4.1 1,0.3 2.4,-0.3 3.1,-1 42.9,-44.6 87.5,-68.6 133.5,-71.4 36.7,-2.4 56.6,15.1 58.7,51.8 0.7,11.7 0,23.3 -2.4,35 -2.4,11.7 -8.2,34.3 -18.5,69.3 -21.6,75.1 -31.9,125.6 -30.2,150.3 1,17.5 7.9,19.6 13,19.6 h 1 c 4.8,-0.3 13.7,-3.8 29.5,-18.9 12.4,-11.7 23,-24.7 32.3,-38.8 9.9,-16.1 19.2,-32.9 27.4,-50.1 9.9,-19.9 18.2,-37.7 25.4,-52.8 2.4,-5.5 4.5,-9.6 6.2,-13 0,-0.3 0.3,-0.3 0.3,-0.7 9.9,-41.9 21.6,-76.5 35,-103.3 15.4,-31.6 32.9,-52.5 51.5,-62.8 18.5,-10.3 43.9,-16.1 76.5,-18.2 v 0 c 4.1,-0.3 7.5,2.7 7.9,6.5 0,0.3 0,0.3 0,0.7 0.3,3.8 -1.7,7.9 -5.8,13 -23,25 -45.3,69.3 -66.9,131.8 -21.6,62.4 -30.9,114.9 -28.5,156.8 1.4,19.2 6.2,29.2 14.4,29.2 h 0.7 c 20.2,-1.4 46,-26.4 75.8,-74.8 29.2,-46 52.1,-95.4 68.6,-147.2 2.1,-6.9 4.8,-16.5 8.6,-29.5 3.8,-13 6.5,-21.6 7.9,-26.4 1.4,-4.8 4.1,-11.7 7.5,-20.2 2.3,-6.7 5.7,-12.8 9.7,-18.5 0.2,-0.3 0.4,-0.5 0.6,-0.8 2.7,-3 6.7,-7 11.3,-12 4.8,-5.1 10.3,-8.9 16.8,-11 16.1,-4.8 32.6,-7.9 49.4,-9.3 l 38.1,-2.4 c 1.7,-0.7 3.8,0.3 4.5,2.1 0.7,1.7 -0.3,3.8 -2.1,4.5 l -0.7,0.7 c -17.2,13.4 -34,45.3 -49.7,95 -13,42.2 -24,81.3 -32.6,116 -8.6,34.7 -14.1,55.9 -16.1,63.5 -2.1,7.5 -6.5,26.1 -13.4,54.2 -5.1,21.3 -9.6,38.8 -13.4,52.8 -0.7,1.7 0,3.8 1.7,4.5 1,0.3 2.4,0.3 3.4,-0.7 37.4,-22.3 71.7,-49.1 102.9,-79.6 17.5,-17.5 156.4,-164.1 156.4,-71.4 -8.7,344.1 -357.4,522.1 -682.6,551.6 z m -587,-972 c -13.4,0.7 -37.1,21.3 -72.7,113.2 -24.7,63.5 -48.7,135.9 -71.7,215.5 -0.7,2.1 0.7,3.8 2.4,4.5 1.4,0.3 3.1,0 4.1,-1.4 61.8,-94.4 104.6,-172.9 127.3,-234.3 14.1,-41.9 20.6,-69.7 19.9,-82 -1,-15.1 -6.9,-15.1 -8.6,-15.1 z m 885.7,657.5 c -14.3,2.7 -190.1,48 -172.3,86.9 20.3,44.1 138.9,-12.1 172.3,-86.9 z m -608.2,-452.3 v 0 c 22,-1 49.4,-9.3 55.9,-41.9 3.1,-14.8 -5.8,-31.6 -11.3,-36.4 -5.5,-4.8 -13,-6.9 -23,-6.2 -10,0.7 -22,6.9 -33.3,17.5 -15.1,14.1 -14.4,34.3 -9.6,47.7 4.5,11.4 12.4,18.9 21.3,19.3 z"
   id="path3"
   style="fill:#00aad4" />
		
		
			<linearGradient
   id="SVGID_1_"
   gradientUnits="userSpaceOnUse"
   x1="1256.8513"
   y1="-1247.4922"
   x2="1261.5251"
   y2="418.99509"
   gradientTransform="translate(0,736.4382)">
			<stop
   offset="0"
   style="stop-color:#FFFFFF;stop-opacity:0.83"
   id="stop4" />
			<stop
   offset="0.56"
   style="stop-color:#FFFFFF;stop-opacity:0.37"
   id="stop5" />
			<stop
   offset="1"
   style="stop-color:#FFFFFF;stop-opacity:0"
   id="stop6" />
		</linearGradient>
		
		
		
	</g>
</g>
<g
   id="Layer_2_00000100375734305614562830000003601880053455265933_"
   transform="translate(-204.84761,-782.41903)">
</g>
</svg>
